<svg version="1.1" xmlns="http://www.w3.org/2000/svg" viewBox="0 0 866 512.5" width="1732" height="1025">
    <!-- svg-source:excalidraw -->

    <defs>
        <style>
            @font-face {
            font-family: "Virgil";
            src: url("https://excalidraw.com/Virgil.woff2");
            }
            @font-face {
            font-family: "Cascadia";
            src: url("https://excalidraw.com/Cascadia.woff2");
            }
        </style>
    </defs>
    <g stroke-linecap="round" transform="translate(245 10) rotate(0 170.5 67)">
        <path d="M0 0 C0 0, 0 0, 0 0 M0 0 C0 0, 0 0, 0 0 M-0.14 6.3 C0.82 5.01, 3.28 3.68, 4.83 0.19 M-0.46 6.26 C1.7 4.3, 3.43 2.14, 5.31 0.55 M1.15 11.34 C2.91 6.76, 6.11 5.18, 9.39 0.2 M0.43 11.27 C3.95 8.29, 7.81 3.28, 10.73 0.3 M1.46 18.09 C2.4 14.6, 5.49 10.59, 15.14 -1.13 M0.26 18.6 C2.5 14.19, 6.13 10.59, 15.35 0.82 M-1.26 25.27 C5.06 19.71, 10.5 11.92, 22.15 1.06 M0.05 24.64 C6.97 16.72, 13.03 9.55, 22.21 0.68 M1.73 28.77 C9.67 21.2, 18.48 7.59, 26.56 0.79 M-0.74 29.6 C8.65 19.19, 19.34 7.8, 27.2 0.48 M-0.47 37.08 C13.1 23.84, 24.45 9.21, 33.22 -1.5 M-0.37 36.11 C9.8 25.37, 19.82 13.51, 32.63 -0.23 M2.09 41.18 C12.61 31.75, 24.02 16.64, 36.29 -0.94 M-0.8 42.32 C8.98 32.72, 19.46 21.18, 35.95 0.18 M0.26 48.71 C14.06 33.17, 29.16 14.71, 42.59 1.55 M0.31 49.23 C9.2 38.77, 19.05 26.61, 42.93 0.48 M0.61 54.53 C13.79 39.37, 25.94 24.43, 48.53 1.22 M0.12 54.47 C12.05 41.22, 22.51 28.66, 48.33 -0.33 M-1.76 62.67 C18.22 39.23, 38.29 14.88, 51.41 -0.68 M-0.71 61.39 C18.62 39.45, 36.26 19.37, 53.13 0.02 M-0.48 68.93 C16.05 47.73, 33.25 27.42, 58.34 1 M0.52 66.88 C18.1 45.96, 37.21 24.87, 57.16 0.15 M-1.74 74.96 C14.98 57.41, 26.27 41.51, 65.62 1.14 M0.51 72.64 C25.46 44.27, 48.18 17.51, 64.35 0.04 M-0.16 78.46 C16.65 61.4, 31.45 42.71, 67.57 -1.7 M-0.06 78.56 C20.95 56.58, 42.88 31.64, 69.35 0.18 M-0.07 83.74 C28.2 54, 54.92 21.86, 75.97 0.51 M0 84.45 C24.99 56.74, 50.32 26.73, 74.78 0.56 M1.4 91.63 C30.01 57.09, 55.97 26.77, 80.88 -0.77 M-0.93 91.17 C21.34 66.29, 43.11 41.11, 79.89 -0.24 M1.01 98.1 C18.99 75.49, 37.34 52.23, 86.04 -0.86 M-0.76 98.42 C16.93 78.16, 35.78 57.95, 85.74 0.02 M1.55 104.38 C29.44 67.77, 60.73 35.09, 89.75 0.08 M0.31 104.03 C33.21 67.46, 64.13 30.23, 89.89 0.29 M0.03 111.09 C28.77 75.73, 56.42 42.82, 96.22 -1.11 M-0.25 109.32 C25.01 81.4, 49.22 51.51, 95.61 -0.72 M-1.6 116.84 C23.28 90.78, 47.88 62.21, 100.47 -0.68 M1.2 114.86 C28.17 84.24, 53.3 54.95, 100.54 0.57 M0.38 120.17 C39.48 78.39, 77.91 35.06, 107.69 -2.15 M-0.8 121.59 C41.2 76.79, 81.2 30.91, 105.89 -0.41 M-1.75 130.09 C37.06 85.14, 77.51 39.61, 110.14 1.61 M-0.31 128.55 C25.03 100, 48.78 73.07, 111.12 0.79 M0.92 132.26 C40.25 85.72, 81.03 38.08, 117.82 -0.99 M0 134.29 C37.64 91.77, 75.54 47.68, 116.5 1.36 M3.41 133.08 C49.41 83.76, 94.56 34.28, 122.68 1.82 M6.05 134.09 C33.44 102.49, 59.57 72.73, 121.02 0.58 M9.8 132.39 C46.51 92.48, 81.38 54.2, 126.73 -0.68 M11.15 133.86 C36.07 104.21, 61.46 75.11, 126.42 1.15 M13.81 135.27 C43.58 102.39, 66.41 71.2, 132.81 0.96 M16.42 135.16 C60.5 82.92, 105.08 31.66, 131.69 -1.04 M21 131.93 C59.21 92.35, 95 46.58, 137.41 2.17 M20.75 134.25 C61.73 86.06, 104.37 38.01, 137.77 0.2 M25.58 135.58 C50.4 108.62, 73.36 82.19, 142.08 -1.73 M25.45 135.16 C73.58 81.44, 120.18 27.63, 142.71 0.36 M33.82 132.33 C66.06 96.58, 97.41 56.88, 146.29 -1.63 M31.49 134.77 C68.98 92.45, 107.52 47.71, 148.41 -0.63 M36.92 135.07 C63.42 100.5, 92.96 70.1, 154.83 -0.83 M36.12 133.84 C62.8 107.94, 86.44 78.13, 153.74 0.6 M42.36 133.28 C81.63 88.46, 120.89 43.44, 158.65 -1.07 M42.15 134.12 C73.26 96.92, 107.02 58.72, 159.3 -0.05 M46.82 135 C80.88 98.72, 114.56 61.18, 166.24 -0.75 M48.52 133.37 C74.42 104.22, 100.07 74.37, 164.53 -1.08 M51.53 132.62 C92.34 85.52, 133.83 39.72, 168.54 -0.96 M53.61 134.42 C90.09 92.51, 125.19 51.98, 168.49 -0.36 M59.13 132.82 C88.37 101.98, 117.92 68.4, 174.27 0.3 M57.83 134.3 C90 95.98, 122.23 59.59, 174.94 -0.03 M65.06 134.39 C97.59 97.11, 128.32 58.32, 178.85 2.08 M64.85 133.2 C92.48 101.53, 118.69 69.36, 179.12 0.54 M70.46 134.15 C104.91 91.4, 142.72 49.07, 183.73 -1.7 M68.3 133.62 C94.5 101.25, 121.19 70.91, 184.89 -0.2 M73.49 132.81 C97.74 103.71, 124.08 74.4, 189.29 -0.36 M74.93 133.37 C103.99 99.71, 133.32 65.62, 191.43 -0.86 M78.26 132.83 C106.14 102.17, 133.6 69, 198.21 -0.59 M79.31 134.69 C104.91 105.81, 130.42 75.9, 196.42 -0.13 M86.17 132.3 C128.8 85.57, 171.21 34.3, 200.35 -0.55 M85.01 133.27 C113.69 99.03, 141.22 67.45, 200.75 0.37 M88.8 134.84 C133.16 82.2, 177.86 30.89, 208.12 -0.03 M89.3 133.32 C136.98 81.09, 181.85 29.28, 207.67 -0.95 M94.62 136.2 C119.66 103.91, 146.61 75.36, 213.36 1.47 M95.69 135.39 C128.14 95.47, 161.59 57.53, 211.51 -0.48 M101.15 134.39 C139.65 87.17, 181.04 41.42, 218.7 -1.46 M99.84 133.68 C137.7 89.11, 178.33 42.52, 216.85 -0.41 M107.11 135.81 C152.66 83.57, 195.14 32.77, 222.46 1.82 M105.62 135.36 C147.44 86.91, 188.72 39.97, 223.23 0.34 M111.18 133.87 C147.4 95.84, 181.94 54.45, 229.99 -0.17 M111.56 134.38 C145.6 92.91, 180.06 51.08, 228.29 -0.81 M116.8 134.86 C161.82 86, 204.82 33.85, 234.58 0.84 M115.6 134.51 C163.55 83.15, 207.34 31.19, 232.51 0.95 M123.6 135.83 C150.05 101.64, 178.8 66.35, 240.18 -0.49 M122.21 134.42 C164.94 85.65, 209.14 37.18, 237.73 -0.34 M128.27 134.49 C157.42 100.78, 185.14 67.97, 245.5 -0.98 M127.15 134.77 C157.65 99, 187.28 63.81, 243.07 -0.12 M131.91 135.04 C158.46 105.1, 182.7 76.73, 248.24 1.18 M132.61 133.21 C161.43 100.98, 190.93 67.91, 248.99 0.01 M136.94 134.07 C172.74 91.04, 210.75 46.41, 255.77 1.05 M137.91 133.51 C183.01 81.58, 228.61 31.13, 253.71 0.08 M142.44 134.44 C167.63 108.34, 191.34 80.15, 258.01 0.87 M142.69 134.57 C178.6 93.01, 213.44 52.92, 260.01 0.87 M149.04 135.13 C174.06 100.76, 202.61 68.14, 266.79 -0.17 M147.59 133.52 C185.51 90.71, 222.67 47.6, 264.32 -1.11 M154.31 133.16 C184.1 99.61, 213.33 65.83, 268.76 0.06 M153.47 134.73 C193.19 89.16, 232.12 44.62, 269.48 -0.46 M157.61 133.4 C204.07 83.71, 246.98 32.57, 276.74 0.41 M158.02 134.95 C200.51 84.67, 241.72 37.61, 275.88 0.07 M163.48 134.52 C189.22 104.52, 211.88 79.85, 282.61 -1.59 M165.05 134.3 C207.84 83.43, 253.27 30.91, 280.19 0.74 M170.51 134.8 C215.77 81.48, 265.74 25.75, 284.65 0.07 M169.1 133.4 C208.66 90.04, 248.7 44.59, 286.49 -0.22 M174.71 134.03 C207.48 93.24, 242.92 56.12, 292.46 1.79 M174.66 134.34 C213.98 88.58, 254.48 44.71, 291.01 0.57 M178.4 135.41 C213.19 95.88, 245.94 58.38, 298.32 0.23 M180.84 133.84 C208.03 103.76, 235.4 72.43, 297.3 0.59 M185.56 135.38 C229.63 82.71, 273.26 33.52, 302.05 -1.79 M186.59 134.27 C221.63 93.64, 256.85 52.06, 302.92 0.56 M190.75 133.54 C227.49 95.24, 259.89 56.1, 306.4 -1.46 M191.33 134.69 C233.42 85.31, 275.08 36.79, 308.61 -0.53 M198.42 134.46 C236.41 90.18, 274.8 43.99, 313.92 1.91 M196.22 133.95 C225.6 98.7, 254.79 64.36, 312.99 -0.36 M199.85 133.65 C232.74 100.17, 259.52 68.76, 318.33 0.8 M200.77 133.73 C247.61 80.97, 293.01 29.75, 317.76 -0.21 M207.83 136.09 C234.68 104.12, 260 72.54, 321.41 1.31 M207.4 134.38 C230.88 107.45, 254.72 80.03, 322.36 0.13 M212.82 134.41 C242.1 101.17, 269.97 64.54, 328.37 1.04 M211.43 134.19 C248.77 91.24, 284.63 50.78, 329.21 -0.65 M215.11 135.01 C256.77 86.4, 296.77 40.04, 332.7 -1 M217.02 134.73 C259.99 82.6, 305.26 31.7, 334.31 -0.22 M223.55 132.67 C259.78 93.65, 294.86 50.67, 339.59 1.44 M223.71 134.66 C253.15 99.63, 282.86 64.53, 338.51 0.34 M228.42 132.43 C271.84 84.28, 314.98 33.95, 341.45 1.27 M227.1 134.8 C258.99 98.1, 291.02 64.1, 342.85 1.23 M232.79 135.46 C273.12 87.61, 309.77 42.15, 344.65 8.68 M234.06 133.17 C268.68 94.15, 304.09 53.74, 343.1 7.65 M237.41 132.97 C261.99 104.94, 290.85 76.73, 341.57 12.17 M237.4 134.07 C260.78 110.57, 281.46 86.01, 343.57 14.1 M244.07 132.02 C264.05 110.85, 286.8 86.43, 344.2 20.82 M243.05 133.14 C275.2 99.3, 304.96 63.29, 342.64 19.77 M248.51 133.46 C271.63 107.58, 295.64 82.48, 342.19 27.05 M248.79 134.43 C280.4 97.06, 312.09 61.61, 342.52 26.54 M255.74 133.76 C273.62 111.58, 295.9 88.76, 343.01 32.82 M255.35 133.42 C273.26 114.06, 290.95 93.59, 343.24 32.32 M260.98 134.91 C281.89 107.91, 306.7 79.79, 344.05 39.74 M259.22 134.15 C284.44 105.93, 310.29 76.62, 342.64 38.39 M264.97 134.27 C282.86 112.16, 303.28 88.27, 343.41 43.64 M265.72 134.23 C287.72 107.68, 310.22 82.74, 342.84 43.13 M270.9 134.5 C295.08 106.51, 316.09 80.02, 344.72 48.53 M269.75 133.94 C293.58 106.97, 317.32 80.93, 343 51.18 M275.74 133.35 C294.06 114.23, 307.88 93.95, 343.88 57.16 M274.98 133.23 C290.62 117.42, 303.73 101.96, 343.8 57.18 M279.15 133.62 C298.27 114.67, 318.28 91.08, 341.23 61.16 M280.52 134.88 C300.07 112.12, 318.39 91.13, 343.42 63.1 M286.83 132.97 C302.95 114.71, 316.38 98.44, 341.68 67.2 M286.09 133.46 C307.17 110.43, 326.22 87, 343.53 69.58 M291.43 133.84 C309.68 111.86, 325.95 91.99, 340.79 76.29 M290.76 134.48 C309.47 114.34, 325.92 94.32, 343.14 74.47 M295.86 133.29 C314.1 115.41, 330.69 98.11, 344.91 82 M298.09 133.38 C308.75 121.64, 319.41 107.1, 342.59 80.13 M302.23 132.91 C311.49 123.02, 320.08 110.2, 343.36 88.52 M302.82 134.65 C311.46 122.99, 322 111.48, 343.5 86.77 M307.22 132.66 C317.35 121.03, 329.75 108.72, 343.13 93.28 M308.09 132.86 C320 118.74, 332.78 105.65, 343.29 92.26 M310.9 132.79 C321.24 120.47, 334.89 110.44, 341.77 100.88 M312.11 133.72 C323.98 119.98, 336.4 106.36, 343.91 99.16 M319.5 136.39 C326.7 122.52, 339.06 112.07, 342.09 105.66 M318.67 133.91 C325.18 126.28, 331.53 119.03, 342.35 106.58 M321.55 135.59 C326.12 127.52, 333.41 121.91, 344.32 109.84 M323.15 134.39 C328.46 128.01, 333.53 121.8, 342.59 111.44 M328.05 133.67 C330.89 130.15, 337.39 125.06, 342.28 117.7 M328.46 133.71 C333.51 128.18, 338.04 122.58, 343.58 117.83 M334.81 135.15 C336.89 129.63, 338.04 128.31, 342.43 122.49 M333.7 133.87 C336.47 131.04, 339.49 127.45, 343.62 123 M338.42 134.31 C339.73 133.55, 340.69 132.82, 342.98 130.01 M338.76 134.59 C340.2 132.92, 341.08 132.05, 343.23 129.72"
              stroke="#fa5252" stroke-width="0.5" fill="none"/>
        <path d="M0.59 -0.35 C126.58 0.77, 253.18 1.13, 341 -0.6 M0.13 0.08 C109.6 -1.49, 217.34 -2.3, 341.35 0.11 M342.23 1.02 C341.53 32.03, 341.95 68.23, 339.82 134.21 M340.29 0.83 C341.93 31.08, 340.38 61.97, 340.73 134.99 M341.41 132.93 C217.38 134.9, 91.87 135.54, -1.14 135.17 M340.4 133.69 C264.55 133.7, 189.31 133.65, -0.6 134.62 M1.39 133.75 C0.39 95.78, 0.1 57.83, 1.97 0.47 M0.72 134.7 C0.87 80.32, 1.05 26.13, -0.39 -0.85"
              stroke="#000000" stroke-width="1" fill="none"/>
    </g>
    <g stroke-linecap="round" transform="translate(542 368.5) rotate(0 157 67)">
        <path d="M0 0 C0 0, 0 0, 0 0 M0 0 C0 0, 0 0, 0 0 M-0.24 6.41 C1.41 4.39, 2.67 2.24, 5.59 1.09 M-0.63 6.32 C1.07 4.37, 3.32 2.9, 4.92 0.58 M-0.89 13.03 C1.66 10.67, 3.89 8.21, 10.89 -0.42 M0.65 11.62 C2.76 7.91, 6.76 4.44, 10.81 -0.7 M1.56 18.03 C4.74 15.47, 9.2 9.12, 16.67 1.75 M0.19 18.51 C6.2 11.63, 11.48 6.38, 16.48 0.63 M-0.55 25.1 C5.58 14.08, 15.23 6.62, 19.56 0.25 M0.83 24.09 C5.21 19.52, 10.34 14.02, 20.35 0.32 M-1.4 32.47 C9.51 19.29, 20.63 7.45, 24.88 -1.07 M-0.94 29.61 C6.15 22.96, 12.07 15.75, 27.24 1.08 M0.02 36.54 C10.18 22.42, 22.85 12.53, 32.46 -1.49 M-0.51 37.55 C11.37 25.61, 20.29 12.9, 32.4 -0.47 M1.64 44.5 C10.48 29.79, 17.69 22.46, 35.2 0.65 M0.08 41.71 C13.95 26.81, 26.72 10.69, 37.34 0.12 M0.18 50.74 C12.94 31.8, 31.42 15.37, 44.32 0.06 M-0.79 49.4 C9.4 38.74, 18.17 27.99, 42.19 -1.06 M-0.39 53.68 C9.23 44.02, 18.07 30.33, 47.89 0.64 M-0.65 54.11 C11.97 40.68, 24.97 27.64, 47.45 -0.26 M1.79 59.94 C12 50.15, 19.93 35.89, 51.99 -0.44 M0.87 61.49 C13.15 46.15, 27.51 30.64, 52.35 -0.18 M-1.06 69.16 C15.08 49.51, 27.59 34.18, 59.37 -0.57 M-0.31 67.97 C17.07 45.94, 33.65 27.32, 58.64 0 M-0.47 74.42 C16.64 52.61, 36.43 31.94, 62.52 0.43 M0.39 73 C15.25 54.38, 31.89 37.43, 62.89 0.53 M-1.77 78.62 C26.15 48.22, 57.13 14.94, 70.3 0.39 M-0.69 79.25 C16.34 60.81, 32.3 43.39, 68.36 1.05 M0.3 83.29 C26.96 54.55, 49.44 28.86, 73.12 -1.06 M0.15 85.23 C29.52 54.36, 56.65 21.55, 75.25 0.52 M0.3 92.82 C27.74 58.52, 56.26 26.49, 77.49 1.66 M-0.15 91.3 C20.87 67.36, 42.63 40.87, 78.52 -0.84 M-1.5 99.23 C16.34 74.88, 35.6 56.51, 83.21 0.16 M0.22 98.31 C22.21 72.37, 45.19 46.14, 84.24 0.35 M-1.18 102.59 C22.88 80.46, 40.17 56.52, 89.94 0.24 M1.03 103.79 C34.38 65.37, 67.33 26.58, 89.38 0.66 M-1.29 111.44 C32.98 68, 70.13 29.63, 94.39 -2.02 M-0.91 110.19 C31.56 72.32, 62 37.79, 96.12 -0.33 M1.63 115.56 C39.85 69.11, 76.51 28.19, 100.86 -0.09 M-0.05 115.49 C35.65 73.25, 73.52 30.39, 101.65 0 M-0.3 122.22 C33.17 84.56, 69.13 41.41, 106.44 -0.91 M-0.33 121.2 C44.17 73.28, 84.57 24.32, 106.52 -0.8 M-1.87 128.94 C24.64 100.81, 45.51 72.79, 111.61 -0.73 M0.48 129.02 C25.32 99.8, 51.08 70.73, 110.42 -0.29 M1.12 135.93 C44.4 79.62, 89.22 30.04, 116.69 -0.25 M-0.08 133.01 C35.53 91.54, 71.76 51.25, 115.84 -0.46 M7.08 132.42 C49.08 85.09, 90.35 35.08, 123.78 -0.25 M5.11 133.78 C29.91 108.49, 55.07 80.31, 121.19 0.43 M9.28 135.65 C56.46 79.71, 101.86 28.04, 126.62 -1.21 M10.73 133.28 C47.92 92.19, 84.83 50.88, 127.86 0.1 M14.26 132.85 C55.2 91.02, 91.2 47.19, 131.11 1.56 M16.52 134.59 C48.6 94.72, 83.33 55.6, 131.88 0.87 M21.7 135.43 C57.61 91.22, 96.58 48.95, 137.91 2.07 M22.38 133.94 C52.24 98.03, 82.31 64.07, 137.77 -0.34 M27.02 135.13 C50.63 106.96, 76.9 78.46, 143.56 -0.26 M26.19 134.62 C69.73 84.66, 113.95 34.62, 142.8 -0.15 M30.55 132.08 C64.52 94.69, 98.53 55.3, 147.11 -0.44 M32.07 132.93 C55.79 104.77, 80.5 74.09, 148.85 -0.68 M36.13 134.98 C81.97 84.66, 124.2 32.58, 155.25 0.16 M36.26 134.11 C64.18 102.64, 92.81 72.05, 154.68 0.28 M44.23 133.19 C83.73 85.89, 125.76 34.79, 156.93 2.01 M43.39 134.29 C73.11 98.68, 103.07 62.55, 159.78 -0.7 M46.58 132.89 C74.52 102.59, 102.54 70.89, 164.5 -0.53 M48.3 134.4 C93.6 82.03, 138.38 31.29, 164.65 -0.83 M51.31 133.17 C91.04 89.9, 129.51 45.1, 168.3 0.99 M52.35 134.14 C86.16 97.32, 119.94 58.79, 168.64 0.89 M57.54 134.18 C87.23 102.93, 110.51 72.61, 173.82 1.15 M59.26 133.91 C88.12 100.69, 115.28 67.76, 174.23 -0.4 M64.54 133.25 C101.21 92.31, 137.52 48.9, 180.31 0.88 M63.36 134.71 C105.38 84.11, 146.85 35.06, 180.91 0.5 M70.34 133 C100.34 100.19, 124.71 70.44, 185.91 -0.5 M69.49 134.15 C106.62 90.11, 145.41 46.48, 185.38 -1.22 M72.86 133.47 C102.26 105.06, 126.68 71.86, 190.26 -1.11 M75.24 134.31 C99.42 105.44, 125.36 75.74, 191.49 -0.4 M80.53 132.28 C102.99 106.91, 129.32 79.65, 195.65 -0.39 M78.78 133.74 C113.19 96.04, 144.88 57.38, 196.45 -0.02 M85.42 132.69 C118.5 96.22, 151.71 60.28, 201.61 1.02 M85.21 133.35 C126.43 86.75, 167.53 39.17, 200.69 0.77 M89.84 135.79 C121.76 94.83, 152.12 60.4, 206.1 1.39 M90.3 134.39 C117.91 101.17, 144.27 69.88, 206.17 0.58 M94.86 133.33 C121.13 105.18, 147.01 74.98, 212.04 -1.91 M94.23 135.09 C129.25 94.83, 164.28 56.13, 212.2 -0.3 M102.18 132.1 C130.72 99.46, 160.37 62.87, 216.52 -0.41 M100.63 134.89 C129.48 101.98, 157.2 68.39, 217.72 0.06 M104.02 134.35 C147.8 86.9, 189.91 38.52, 221.38 1.73 M105.67 134.62 C149.02 84.51, 191.29 34.91, 223.15 -0.84 M111.64 134.59 C136.02 105.15, 159.53 75.79, 226.36 -0.27 M111.76 133.15 C143.91 96.12, 175.03 59.64, 228.67 -0.01 M117.92 135.79 C154.51 89.53, 197.62 40.56, 231.69 0.4 M117.3 133.38 C154.28 91.47, 192.42 48.14, 234.06 -1 M122.52 133.45 C148.55 104.15, 174.4 72.47, 238.59 -1.07 M121.08 134.15 C168.87 80.49, 214.28 28.24, 238.33 0.77 M126.46 135.77 C166.92 85.03, 209.99 36.19, 243.18 -0.66 M127.98 134.17 C161.28 93.39, 195.84 52.68, 242.84 0.18 M133.29 135.7 C155.72 103.42, 182.12 75.87, 250.35 -1.16 M133.39 133.96 C177.45 85.11, 220.72 35.04, 248.38 0.65 M135.7 135.19 C175.81 93.25, 211.69 49.17, 254.26 0.64 M136.96 133.84 C169.6 98.39, 199.79 62.45, 254.84 0.75 M144.62 133.16 C187.21 83.45, 227.67 36.72, 260.98 2.18 M142.91 133.78 C179.96 91.34, 217.73 48.55, 258.97 0.23 M147.89 133.78 C179.72 96.46, 217.59 56.84, 265.55 -0.82 M147.89 133.39 C195.42 81.94, 240.56 29.6, 264.79 -0.14 M155.35 134.46 C185.3 97.07, 213.79 62.71, 270.68 1.77 M153.25 133.85 C178.88 102.39, 205.51 74.03, 269.29 -0.54 M157.48 134.09 C189.75 93.91, 226.14 55.48, 275.82 -1.36 M158.85 133.87 C188.83 101, 218.37 68.11, 274.83 -0.25 M166.53 133.05 C208.62 83.68, 251.21 33.8, 279.83 1.18 M165.42 133.56 C210.5 81.1, 255 30.07, 280.92 0.36 M171.11 133.46 C196.06 103.52, 225.97 70.01, 286.06 -0.45 M170.31 134.45 C195.95 105.62, 222.99 73.32, 286.52 -0.26 M173.37 135.18 C222.35 79.66, 266.99 30.33, 293 -1.15 M175.86 133.35 C202.21 101.99, 227.79 70.88, 291.88 1.08 M179.59 136.06 C209.99 101.63, 237.27 66.9, 295.42 -0.78 M181.15 134.37 C218.89 90.14, 257.56 46.33, 296.82 0.26 M185.3 131.94 C211.63 103.02, 242.15 68.18, 302.95 -0.01 M186.39 132.77 C218.76 94.34, 252.69 56.23, 302.58 -0.18 M189.93 132.87 C231.3 90.24, 267.75 44.23, 309.26 -0.22 M190.66 134.99 C232.92 85.34, 273.13 37.29, 308.09 -1.17 M197.91 135.19 C231.56 95.79, 264.79 54.35, 310.62 0.65 M196.26 134.48 C242.55 81.02, 286.96 28.75, 311.83 0.9 M201.32 133.67 C229.74 98.47, 262.27 64.65, 317.14 2.45 M200.52 133.74 C239.39 90.09, 275.64 48.04, 316.13 2.33 M208.34 134.39 C249.17 88.12, 289.52 39.55, 317.93 7.98 M207.45 134.95 C238.12 98.2, 270.56 61.66, 315.64 9.04 M213.15 135.08 C248.53 91.97, 286.08 51.31, 318.23 14.54 M212.83 134.16 C240.81 102.56, 267.6 72.27, 315.55 14.01 M217.87 133.55 C249.19 96.68, 283.7 60.6, 318.13 19.13 M217.32 133.52 C240.01 107.63, 263.28 82.49, 315.57 20.22 M220.98 132.5 C243.68 109.19, 267.01 84.57, 316.98 26.79 M222.1 133.88 C260.22 91.07, 297.47 48.69, 317.48 26.85 M228.01 135.73 C251.28 109.03, 272.28 82.25, 316.01 30.78 M228.69 134.86 C260.61 94.61, 295.05 56.55, 316.95 33.25 M232.58 132.17 C261.05 104.67, 286.17 74.47, 314.82 37.36 M233.24 134.63 C265.07 97.64, 296.79 60.46, 315.23 39.52 M239.11 136.08 C258.01 109.53, 279.18 86.27, 317.27 46.23 M238.4 133.99 C254.5 115, 270.56 96.5, 316.21 44.82 M243.88 135.12 C265.63 108.67, 290.03 82.05, 317.36 50.92 M243.57 134.21 C261.82 111.89, 282.67 88.87, 315.52 51.48 M249.7 134.53 C273.34 104.7, 299.25 77.49, 315.78 55.6 M248.74 135.02 C270.95 109.55, 291.29 85.23, 316.2 55.72 M255.02 133.2 C272.79 112.74, 293.41 90.94, 314.42 63.25 M254.81 134.53 C272.61 111.99, 292.72 89.53, 316.5 63.58 M260.53 135.85 C278.93 112.02, 298.78 87.28, 316.96 68.53 M259.38 135.17 C280.39 110.07, 303.32 84.6, 315.53 69.59 M266.31 133.09 C280.46 114.37, 297.83 99.4, 314.66 74.15 M265.08 133.61 C286.47 109.87, 305.68 88.13, 316.36 74.99 M270.48 133.61 C284.51 120.52, 297.76 101.92, 316.37 83.26 M269.4 134.73 C279.86 124.69, 289.16 114.08, 317.15 81.89 M274.27 132.25 C285.97 121.24, 295.29 109.27, 316.93 88.28 M274.94 133.53 C291.89 114.52, 308.47 97.9, 316.73 87.97 M280.68 134.19 C290.48 121.55, 299.16 109.98, 315.82 95.08 M281.28 135.1 C291.77 121.56, 302.52 110.51, 316.49 92.43 M287.59 134.98 C294.69 124.67, 301.97 116.94, 317.61 99.82 M287.3 134.5 C298.91 119.51, 309.61 106.89, 315.97 100.64 M290.4 132.78 C298.51 125.93, 305.37 118.5, 317.92 105.33 M290.94 134.76 C298.53 126.3, 306.57 117.17, 316.01 106.38 M295.15 132.39 C303.89 127.7, 311.3 117.9, 317.24 113.52 M297.53 132.78 C303.69 125.77, 310 119.3, 315.82 111.96 M301.13 133.41 C307.56 126.77, 312.18 119.81, 317.5 118.2 M301.65 133.29 C305.77 129.21, 312.03 124.27, 316.61 116.98 M306.63 134.14 C309.66 130.39, 313.01 127.39, 316.48 124.76 M307.52 133.1 C309.58 131.57, 311.84 129.49, 315.74 124.11 M312.7 133.77 C314.15 132.93, 314.64 131.66, 316.25 130.07 M312.6 133.9 C314.05 132.73, 315.36 130.97, 316.25 130.31"
              stroke="#fa5252" stroke-width="0.5" fill="none"/>
        <path d="M0.46 -1.04 C87.28 1.71, 175.74 2.42, 312.85 -0.04 M-0.5 0.06 C66.16 -0.94, 132.58 -0.68, 313.91 0.22 M312.68 -1.62 C316.71 35.02, 315.28 74.89, 315.19 135.92 M313.33 0.32 C313.12 29.13, 314.16 57.77, 314.05 134.14 M313.5 135.16 C238.33 134.9, 166.13 134.13, 1.1 133.37 M314.09 133.49 C234.02 135.06, 154.27 134.7, 0.22 133.7 M1.17 135.33 C-0.77 84.85, -0.72 36.62, 0.12 -0.24 M0.02 133.24 C0.93 96.94, 0.67 61.86, 0.04 -0.28"
              stroke="#000000" stroke-width="1" fill="none"/>
    </g>
    <g stroke-linecap="round" transform="translate(240 181) rotate(0 181.5 67)">
        <path d="M0 0 C0 0, 0 0, 0 0 M0 0 C0 0, 0 0, 0 0 M-1.05 6.65 C0.08 5.63, 1.46 3.2, 4.28 -0.22 M0.05 6.48 C1.39 4.23, 3.87 1.9, 5.12 0.28 M0.66 13.63 C4.46 6.6, 9.52 1.85, 11.97 -1.18 M0.02 11.27 C4.09 8.46, 6.3 4.08, 10.52 0.16 M-0.41 17.81 C5.23 9.83, 11.63 6.54, 14.26 -1.66 M0.66 19.04 C4.97 11.91, 9.39 8.09, 15.79 -0.26 M-1.22 25.86 C8.41 15.36, 15.62 9.36, 23.04 0.31 M0.93 24.05 C8.51 14.88, 16.98 5.09, 20.43 -0.93 M1.41 30.95 C7.99 19.21, 18.19 5.46, 26.16 -1.43 M0.75 30.31 C8.31 20.57, 15.64 11.18, 26.61 0.78 M-0.31 37.71 C9.5 25.65, 24.07 12.32, 32.05 1.24 M0.21 36.48 C8.72 27.12, 17.59 16.53, 32.73 0.69 M-0.89 40.82 C8.96 33.13, 15.79 24.2, 34.95 0.34 M-0.56 43.01 C9.51 32.43, 18.11 21.42, 36.07 0.97 M-1.37 47.06 C14.44 31.59, 29.53 16.93, 42.28 1.64 M0.6 49.42 C14.39 31.41, 30.56 12.4, 42 -0.81 M1.38 53.99 C16.71 37.01, 31.59 19.03, 47.49 -1.45 M0.45 54.14 C17.82 33.48, 35.83 13.63, 46.61 -0.61 M-0.45 59.81 C17.34 39.61, 34.94 20.15, 53.48 -1.99 M0.98 61.58 C15.97 42.84, 30.15 25.96, 53.96 -0.89 M1.08 65.97 C16.61 49.83, 30.91 30.7, 57.44 -1.68 M-0.03 67.88 C13.21 50.08, 27.56 34.82, 58.72 0.52 M1.86 71.32 C16.96 51.36, 37.11 33.59, 62.23 -0.95 M0.96 72.31 C17.75 51.87, 35.91 33.34, 63.4 -0.61 M1.84 78.2 C16.99 56.84, 36.69 35.84, 69.27 -1.07 M-0.78 78.52 C28.54 47.93, 54.38 16.29, 68.99 0.25 M-0.22 83.12 C14.97 66.93, 31.37 46.92, 73.91 1.65 M0.28 84.39 C20.29 60.62, 42.44 37.07, 74.21 -0.62 M-1.87 90.57 C31.25 55.58, 61.71 23.43, 78.28 1.85 M0.59 91.05 C17.86 70.29, 35.86 49.82, 80.13 -0.1 M1.71 99.7 C25.17 66.1, 50.66 38.26, 86.71 -1.13 M0.09 98.75 C17.04 77.13, 35.46 58.38, 85.39 -1.17 M1.9 102.39 C21.08 82.3, 38.91 58.41, 90.57 -1.26 M0.17 104.1 C33.88 62.99, 69.32 21.67, 90.9 0.16 M0.8 109.46 C23.07 85.3, 42.93 63.18, 95.66 -0.03 M-0.38 109.46 C25.31 79.65, 53.21 49.92, 95.01 -0.1 M1.92 117.18 C25.41 87.85, 50.51 58.31, 99.06 -0.53 M1.17 114.7 C36.34 73.47, 72.67 33.68, 100.2 -0.84 M-0.93 121.25 C34.44 82.31, 70.23 41.49, 104.56 -1.61 M0.21 122.27 C29.97 88.9, 58.18 55.86, 106.26 -0.83 M-0.91 127.37 C35.58 88.33, 70.62 49.47, 111.47 0.06 M-0.75 129.04 C29.34 94.83, 58.59 61.44, 110.99 0.4 M1.99 133.36 C36.48 90.97, 74.88 46.04, 117.39 0.52 M-0.05 133.57 C36.45 91.82, 74.39 49.09, 116.74 0.35 M6.37 133.31 C40.2 96.74, 73.64 57.16, 122.34 -1.26 M4.34 133.43 C34.61 100.55, 64.62 66.46, 122.34 0.83 M12.36 134.2 C55.11 80.59, 101.99 31.78, 124.92 -1.33 M11.55 133.09 C40.17 100.91, 70.8 65.68, 127.12 1.32 M14.28 135.81 C43.81 100.96, 72.74 70.92, 133.03 -0.08 M16.29 134.88 C57.54 87.89, 97.27 40.82, 133.41 0.76 M22.77 134.5 C48.43 101.31, 78.36 68.34, 136.75 -0.39 M20.78 134.1 C55.45 94.37, 90.88 53.08, 137.22 0.62 M25.6 133.18 C53.58 101.27, 85.34 66.55, 143.7 -1.79 M25.43 134.09 C70.42 83.55, 113.88 32.95, 143.45 -0.06 M31.14 135.11 C69.76 95.1, 103.14 52.12, 147.94 1.51 M32.03 133.23 C77.23 80.22, 122.9 29.23, 148.58 0.43 M37.14 133.86 C64.32 102, 90.62 73.37, 153.33 -1.6 M36.43 134.12 C66.19 102.11, 92.82 70.26, 153.81 -0.49 M42.19 135.08 C77.77 97.96, 110.66 59.79, 158.39 -1.22 M41.76 134.5 C87.82 81.64, 134.67 28.18, 157.84 -0.63 M46.54 134.47 C77.49 98.58, 108.82 61.7, 163.7 -0.55 M47.06 134.44 C77.15 99.04, 106.29 66.85, 163.94 0.03 M51.48 135.61 C80.71 106.94, 102.71 77.76, 168.78 1.97 M52.54 133.32 C94.2 87.01, 135.97 39.42, 168.74 0.43 M60.24 135.85 C90.62 95.96, 128.04 54.99, 175.42 -1.47 M58.19 134.94 C100.95 84.55, 144.89 32.86, 175.35 -0.55 M65.35 132.14 C94.43 102.25, 123.43 66.98, 180.63 1.85 M63.03 134.54 C87.4 106.51, 110.72 79.14, 180.11 1.02 M69.5 134.99 C91.22 107.74, 117.4 78.07, 183.91 -1 M69.77 133.9 C95.29 104.19, 122.25 73.03, 185.7 -0.86 M72.96 134.25 C99.98 102.99, 126.4 72.12, 192.25 1.35 M73.99 134.39 C105.67 97.49, 136.63 62.2, 189.88 0.96 M78.4 133.09 C119.58 86.12, 160.64 41.36, 195.4 -1.62 M78.85 134.02 C109.27 101.38, 138.62 66.05, 196.68 -0.14 M86.3 133.75 C125.31 91.69, 162 45.93, 202.79 -0.39 M84.26 134.51 C128.84 83.53, 172.67 34.07, 201.07 0.48 M91.81 135.53 C120.58 96.74, 151.76 60.96, 206.91 0.42 M89.58 134.38 C129.34 90.09, 169.24 43.3, 206.13 -0.2 M95.49 133.35 C119.75 106.08, 143.16 79.78, 212.18 -0.05 M96.13 134.72 C133.07 92.32, 168.41 51, 211.79 0.2 M99.43 135.88 C134.56 91.77, 172.72 52.75, 218.32 -0.99 M101.19 134.5 C124.64 106.16, 150.45 76.44, 217.96 0.53 M107.45 135.71 C134.26 100.06, 164.47 68.85, 221.2 1.88 M105.94 133.96 C130.31 106.11, 155.09 78.12, 223.25 -0.84 M111.78 135.9 C137.85 105.28, 162.52 75.86, 228.27 -1.74 M112.01 134.29 C140.43 101.44, 168.5 70.09, 228.15 -0.96 M117.95 135.94 C153.45 90.95, 195.55 42.86, 231.4 1.09 M116.17 134.84 C154.72 90.57, 192.4 47.15, 233.74 0.79 M120.17 133.53 C166.57 81.02, 212.83 31.54, 237.59 1.21 M121.48 134.06 C148.41 102.55, 177.64 69.97, 238.16 0.49 M126.21 134.57 C157.46 99.84, 192.75 61.71, 245.17 1.46 M128.03 134.65 C159.56 98.74, 188.87 63.02, 244.66 0.96 M132.74 134.91 C175.61 83.34, 220.55 32.95, 247.89 -1.17 M132.1 134.54 C163.55 99.7, 192.9 65.51, 249.5 1.16 M138.26 134.33 C179.47 85.11, 222.97 36.18, 253.71 -0.94 M136.85 134.05 C180.14 84.74, 224.59 33.27, 254.5 -0.09 M142.43 134.35 C189.8 82.84, 236.92 28.54, 257.61 -1.46 M143.5 134.85 C188.29 82, 232.03 31.2, 259.77 1.02 M146.97 136.14 C177.65 98.01, 207.42 64.66, 265.02 -1.85 M148.04 135.12 C187.14 88.23, 227 40.55, 264.84 0.3 M155.01 134.36 C177.72 104.73, 205.65 75.41, 268.66 1.18 M154.38 134.53 C192.81 89.13, 233.97 42.91, 269.38 0.68 M159.99 135.09 C185.23 101.58, 211.23 72.06, 275.93 -0.83 M159.09 133.37 C205.3 79.48, 251.76 26.49, 276.36 -0.8 M165.03 133.64 C194.3 98.38, 225.64 63.39, 281.78 1.8 M164.53 133.53 C201.11 90.39, 239.58 48.3, 280.78 0.16 M167.8 132.47 C208.5 84.63, 248.66 38.1, 288.08 -1.24 M169.6 133.67 C205.37 93.77, 239.83 52.45, 286.82 0.09 M175.9 135.06 C214.83 87.31, 257.51 41.35, 292.5 1.62 M174.86 134.19 C213.97 89.74, 251.07 45.95, 290.55 0.89 M179.7 135.76 C222.72 86.1, 262.96 37.66, 295.9 1.73 M179.27 134.34 C221.51 83.98, 263.8 35.77, 297.09 -1.16 M187.79 133.7 C220.63 98.04, 255.02 57.94, 303.18 0.06 M185.35 133.26 C210.96 103.92, 233.87 77.53, 301.34 -0.3 M191.79 134.62 C227.53 93.1, 259.92 54.26, 306.66 1.09 M189.88 135.08 C219.9 103.55, 246.21 71.9, 307.13 -0.26 M197.73 132.8 C233.48 87.99, 273.93 48, 310.98 -1.29 M197.08 133.91 C228.14 99.19, 258.1 64.34, 311.91 0.83 M202.98 132.91 C242.3 87.82, 283.85 41.77, 316.43 -1.96 M201.31 135 C236.77 91.98, 273.18 51.87, 317.98 -0.52 M206.88 132.59 C242.29 92.82, 277.96 50.57, 323.88 1.36 M205.57 134.46 C232.7 103.94, 259.21 71.4, 323.11 -0.08 M210.99 132.65 C256.73 84.2, 297.42 34.88, 330.09 -2.05 M211.53 134.63 C248.39 94.3, 282.85 53.85, 329.78 -0.85 M215.18 135.16 C250.59 94.97, 283.15 58.21, 332.66 1.99 M217.41 135.37 C250.59 97.62, 283.13 61.4, 333.86 0.03 M224.38 134.07 C261.57 87.26, 303.11 38.64, 341.34 -1.6 M222.6 133.88 C258.4 92.72, 293.52 52.39, 339.78 0.27 M229.43 133.11 C263.96 92.99, 299.34 51.55, 342.94 0.76 M228.29 133.77 C254.28 104.06, 281.91 74.01, 345.22 -0.39 M234.48 135.6 C281.7 79.7, 328.09 27.41, 348.03 1.89 M232.69 134.1 C268.28 92.58, 305.17 52.39, 349.66 -0.5 M237.87 134.42 C268.38 101.11, 300.32 62.8, 355.12 0.02 M237.69 134.46 C276.82 90.42, 316.49 46.29, 354.31 0.52 M243.48 133.82 C278.45 94.35, 312.86 53.73, 358.79 0.87 M244.05 134.02 C275.51 97.74, 308.51 59.54, 360.14 -0.35 M249.59 135.31 C276.35 104.4, 300.54 73.16, 363.12 1.82 M248.13 134.62 C282.25 96.87, 316.04 58.87, 365.04 1.55 M256.33 135.53 C295.18 87.36, 334.27 42.66, 363.21 9.01 M255.03 133.79 C289.15 94.34, 322.71 54.79, 365.19 6.98 M258.47 136.15 C291.94 97.88, 322.76 61.27, 365.12 13.94 M259.28 133.85 C286.54 105.93, 310.87 78.02, 364.84 14.44 M264.84 133.7 C288.34 107.65, 305.22 84.39, 362.87 19.88 M266.06 132.96 C287.42 107.28, 308.67 81.26, 365.07 19.87 M271.2 133.51 C307.47 95.21, 341.84 55.28, 363.14 26.73 M269.87 134.16 C304.34 93.78, 338.67 56.1, 364.33 24.68 M275.61 135.5 C310.39 96.29, 341.39 55.94, 365.44 33.18 M275.69 134.48 C295.41 112.89, 313.51 92.42, 364.41 31.06 M279.3 136.15 C309.25 102.78, 339.19 67.12, 364.85 39.29 M281.72 133.95 C303.99 108.38, 326.34 82.37, 364.99 37.78 M286.05 134.28 C310.78 107.23, 331.94 79.17, 364.84 44.38 M286.54 134.72 C314.01 101.52, 343.27 70.69, 364.33 43.26 M291.08 133 C319.88 104.44, 345.43 74.43, 364.07 49.66 M291.77 134.05 C306.61 114.26, 323.45 95.33, 363.78 49.38 M296.39 133.56 C320.12 109.27, 342.4 82.74, 364.46 56.35 M297.33 133.44 C320.91 106.68, 342.17 81.65, 363.74 56.8 M303.67 133.22 C321.32 109.57, 344.27 85.09, 363.41 63.81 M302.04 133.67 C322.13 109.65, 342.82 85.79, 363.68 62.28 M309.67 135.09 C329.25 113.66, 345.9 88.84, 364.48 68.16 M306.88 133.84 C326.75 109.85, 347.7 87.7, 364.62 68.45 M311.04 134.1 C322.8 121.59, 331.5 107.76, 366.31 76.15 M313.63 134.45 C329.41 113.5, 347.9 93.15, 363.84 74.94 M319.08 135.53 C329.87 118.98, 341.49 108.28, 365.27 79.82 M317.44 135.24 C334.47 115.9, 350.35 98.98, 363.41 80.12 M323.92 133.16 C337.32 119.83, 348.46 102.32, 363.68 86.54 M322.76 134.43 C330.96 124.5, 339.77 113.36, 364.14 86.47 M326.61 135.46 C333.62 126.46, 343.44 118.39, 365.95 93.26 M329.33 134.12 C341.01 119.51, 353.37 105.53, 363.58 93.86 M333.9 132.1 C341.76 126.06, 347.38 117.87, 365.26 97.02 M334.71 134.03 C345.78 121.29, 357.33 106.82, 364.53 99.39 M339.07 135.93 C347.87 125.26, 355.35 114.93, 364.5 104.89 M338.99 134.63 C345.76 128.29, 351.57 120.69, 363.74 104.41 M345.35 132.8 C349.39 128.47, 357.78 119.82, 362.93 112.56 M343.9 134.12 C350.8 127.51, 357.03 121.01, 364.44 110.38 M350.76 135.43 C355.58 129.46, 359.17 122.11, 364.37 118.5 M349.6 133.57 C355.19 128.73, 359.68 123.47, 364.27 116.14 M355.42 133.5 C357.12 129.32, 361.58 128.31, 365.08 122.46 M355.65 133.94 C358.59 130.89, 359.91 128.19, 365.07 123.3 M359.74 134.4 C361.19 132.35, 362.47 131.65, 365.19 129.4 M360.33 134.6 C361.73 132.17, 363.28 130.77, 364.77 129.3"
              stroke="#fa5252" stroke-width="0.5" fill="none"/>
        <path d="M0.56 0.8 C103.13 -0.71, 205.59 -0.86, 364.07 -0.22 M0.31 0.03 C131.52 -1.57, 262.7 -1.5, 363.25 0.54 M362.13 1.59 C362.32 41.61, 361.76 88.23, 364.85 132.12 M362.49 -0.45 C362.76 37.83, 363.34 76.38, 363.88 133.28 M362.12 133.52 C254.66 132.84, 145.66 134.97, 0.34 134.03 M362.99 134.07 C256.57 132.32, 150.63 132.36, -0.41 134.13 M1.24 132.03 C0.03 91.16, -0.08 48.32, 1.43 1.38 M-0.84 134.45 C-1.43 84.65, -0.75 34.61, 0.61 -0.63"
              stroke="#000000" stroke-width="1" fill="none"/>
    </g>
    <g stroke-linecap="round" transform="translate(452 198) rotate(0 64 51.5)">
        <path d="M-0.1 1.01 L127.95 1.43 L129.9 102.69 L-0.23 103.66" stroke="none" stroke-width="0"
              fill="#15aabf"/>
        <path d="M-1.61 -0.24 C28.17 0.85, 54.52 1.55, 129.83 0.89 M0.38 0.82 C32.06 -0.46, 64.45 -0.69, 127.85 0.83 M129.99 -0.16 C130.26 30.52, 126.87 61.38, 127.02 103.28 M127.12 -0.7 C127.73 33.47, 128.86 66.65, 127.1 103.24 M126.83 102.91 C95.68 103.37, 64.48 102.47, 1.78 103.48 M128.9 102.28 C92.92 101.87, 58.21 102.52, -0.83 103.98 M0.38 103.44 C1.2 78.43, -1.4 56.99, -0.85 0.18 M-0.32 103.15 C0.03 74.06, -0.56 43.91, 0.65 -0.63"
              stroke="#000000" stroke-width="1" fill="none"/>
    </g>
    <g stroke-linecap="round" transform="translate(10 369) rotate(0 250.5 65.5)">
        <path d="M0 0 C0 0, 0 0, 0 0 M0 0 C0 0, 0 0, 0 0 M0.2 6.49 C1.89 3.7, 3.55 2.79, 5.26 0.71 M-0.13 6.75 C2 4.23, 3.29 2.14, 5.25 0.44 M-0.2 11.67 C5.53 8.86, 9.74 2.49, 10.73 1.09 M0.81 12.17 C3.08 8.82, 5.19 6.59, 9.96 -0.11 M-1.79 17.96 C2.07 14.88, 5.92 11.82, 16.26 -0.88 M-0.9 19.23 C3.59 14.84, 7.57 9.77, 15.14 0.9 M1.42 22.92 C5.16 18.23, 9.16 14.74, 22.1 -0.03 M-0.16 24.48 C6.52 18.2, 10.36 12.57, 20.65 -0.88 M-0.58 30.67 C5.23 24.41, 9.75 15.86, 28.07 -0.4 M-0.08 29.85 C9.49 19.02, 19.37 6.72, 26.25 1.12 M-0.24 37.34 C8.09 26.13, 21.55 12.55, 30.99 -0.04 M-0.92 37.56 C10.13 22.99, 21.29 10.77, 31.04 0.57 M1.38 43.37 C13.71 29.21, 24.72 14.25, 35.3 1.46 M-0.86 42.41 C14.23 26.97, 27.92 10.75, 37.16 0.16 M0.51 49.88 C17.9 29.66, 33.15 11.13, 42.21 -0.97 M-0.91 47.99 C16.94 31.01, 33.05 11.24, 42.1 -0.52 M-0.87 55.52 C9.65 40.85, 23.13 30.31, 48.31 -1.69 M0.77 55.28 C18.53 32.27, 37.07 11.41, 48.48 1.04 M-0.37 60.64 C13.69 41.5, 31.02 25.01, 54.73 -0.29 M0.67 60.68 C15.48 44.07, 29.24 27.6, 52.39 0.16 M1.24 68.12 C21.11 40.92, 39.94 16.69, 57.7 -1.43 M-0.42 66.65 C22.06 41.85, 42.85 17.55, 57.2 0.91 M1.95 71.78 C23.85 43.13, 49.34 15.53, 65.72 1.3 M-0.29 73.89 C18.4 51.51, 37.71 31.62, 63.86 0.04 M0.43 80.75 C23.35 52.05, 47.2 26.58, 70.2 1.47 M-0.27 79.57 C21.34 55.28, 44.35 29.94, 68.73 0.97 M0.47 84.29 C19.5 66, 35.49 42.64, 74.54 -0.06 M0.49 85.97 C26.01 55.86, 52.53 26.23, 73.88 -0.35 M1.64 92.03 C16.41 71.95, 35.64 51.35, 80.77 1.03 M0.78 90.45 C29.72 57.21, 59.14 23.22, 78.89 0.55 M-0.27 98.71 C22.64 68.52, 49.72 42.32, 86.71 0.58 M-0.96 98.11 C31.64 61.37, 64.88 24.4, 85.21 0.59 M0.67 104.66 C31.23 69.42, 57.42 35.27, 88.54 -1.87 M0.4 104.01 C34.88 61.17, 69.43 21.71, 89.91 1.06 M-1.57 108.13 C33.92 72.4, 65.27 33.97, 93.96 0.98 M-0.21 109.34 C26.83 78.37, 53.74 48.13, 96.04 -0.43 M-0.51 114.16 C19.6 91.26, 40.46 67.16, 100.82 0.41 M-0.38 116.1 C33.32 78.38, 65.76 41.18, 100.42 0 M1.48 122.72 C38.93 79.28, 77.59 34.64, 106.21 -0.29 M-0.43 121.04 C23.22 95.8, 45.02 70.19, 105.95 0.39 M1.61 129.6 C32.09 93.07, 60.08 56.8, 113.13 -1.63 M0.26 128.38 C27.51 98.07, 54.02 68.53, 111.44 0.96 M-0.06 133.21 C26.35 104.17, 53.56 71.84, 114.9 0.91 M1.62 132.42 C35.84 92.98, 68.97 53.9, 117.26 0.71 M5.91 130.29 C49.22 88.05, 89.22 40.12, 121.15 1.28 M6.69 131.07 C41.26 93, 75.85 53.71, 122.42 -0.36 M11.64 133.56 C55.62 84.2, 98.07 34.71, 127.64 -0.75 M12.11 133.25 C48.03 91.47, 81.98 51.75, 127.69 0.99 M16.33 131.48 C54.44 91.19, 89.11 48.89, 132.77 1.25 M17.61 132.56 C61.83 80.21, 106.35 29.37, 133.22 -0.17 M21.52 132.21 C66.3 81.83, 109.24 34.61, 136.23 0.52 M22.59 133 C67.87 80.79, 112.98 29.11, 138.38 1.08 M28.31 131.69 C60.91 95.44, 92.96 62.41, 144.06 1.2 M28.4 132.84 C65.85 89.39, 102.96 47.58, 144.07 -0.61 M31.9 133.81 C69.63 87.2, 109.9 44.66, 147.35 -1.48 M34.19 132.66 C70.18 87.07, 110.02 42.55, 148.54 1.14 M38.12 131.25 C81.85 79.38, 127.98 26.98, 155.28 -1.14 M38.5 131.96 C82.44 84.5, 124.55 35.05, 153.66 0.31 M45.29 133.85 C78.68 90.62, 115.85 52.04, 157.84 -0.1 M44.43 131.35 C80.26 90.8, 115.57 50, 158.78 0.46 M50.17 133.03 C80.71 97.66, 108.6 61.84, 162.87 -1.25 M48.7 132.79 C91.4 82.58, 134.63 34.19, 165.03 0.65 M56.38 130.62 C85.82 92.89, 121.42 56.26, 170.74 0.09 M55.28 132.24 C88.49 91.49, 124.37 50.52, 169.13 -0.61 M61.09 130.99 C97.98 88.77, 137.84 43.82, 175.46 0.25 M59.24 133.6 C83 102.33, 109.38 72.9, 175.67 0.56 M64.06 133.21 C90.63 103.02, 115.28 74.82, 179.29 -0.63 M65.06 132.63 C103.75 89.53, 141.68 45.87, 181 -0.61 M70.35 131.13 C101.71 93.75, 132.4 59.39, 185.87 1.51 M70.43 132.95 C112.61 83.65, 155.68 33.85, 185.46 0.31 M75.39 133.54 C116.61 85.34, 155.17 41.63, 190.88 -1.21 M76.55 131.89 C121.6 81.33, 165.53 29.56, 191.23 1 M79.62 132.28 C105.48 103.88, 127.41 76.7, 195.11 -0.5 M79.97 132.52 C119.36 87.03, 160.32 39.6, 196.67 0.24 M85.62 130.34 C124.14 91.63, 157.99 51.1, 203.13 0.24 M86.89 131.5 C122.55 93.49, 156.03 53.49, 202.07 -0.12 M92.75 134.06 C123.68 91.3, 157.5 53.38, 208.37 -1.98 M90.97 133.09 C137.4 78.74, 184.06 25.26, 206 -1.22 M98.22 133.15 C125.86 96.93, 156.98 63.48, 211.81 -1.57 M97.65 133.02 C129.66 94.11, 163.82 55.94, 211.15 0.76 M103.77 132.92 C139.92 90.29, 175 46.96, 219.04 -0.32 M101.96 132.51 C136.82 94.49, 169.91 55.56, 218.56 0.49 M108.8 130.33 C140.26 94.14, 174.39 54.76, 222.91 0.85 M106.81 132.11 C129.98 104.68, 153.7 77.24, 223.52 -0.53 M112.92 134.13 C152.3 86.06, 192.56 39.89, 228.68 -2.12 M112.86 131.74 C146.38 93.4, 179.39 55.98, 227.84 -0.03 M117.18 133.03 C146.15 101.08, 173.03 70.09, 232.59 -0.17 M118.75 132.52 C151.74 93.09, 183.65 55, 233.65 0.94 M122.61 131.76 C153.78 100.08, 181.07 66.27, 238.39 1.62 M123 132.83 C165.56 82.38, 207.92 33.65, 239.1 0.72 M127.38 131.23 C159.46 94.9, 189.94 62.96, 243.2 0.5 M128.26 132.11 C174.61 80.62, 219.22 28.85, 243.4 -0.81 M133.43 132.68 C174.02 87.49, 213.47 40.84, 247.44 0.41 M133.13 132.92 C158.97 103.97, 184.34 74.02, 247.96 0.03 M139.58 133.73 C176.47 89.7, 210.72 52.05, 255.28 0.81 M140.51 132.81 C182.78 80.9, 228.57 30.49, 254.03 -0.68 M144.17 132.6 C168.16 106.82, 190.27 80.85, 261.29 0.86 M145.38 132.26 C172.64 103.07, 198.75 70.83, 258.5 -0.43 M149.52 132.88 C174.78 103.7, 201.62 73.88, 263.54 -0.48 M150.47 133.41 C190.27 86.79, 230.96 39.97, 264.23 -0.45 M155.82 132.02 C181.52 100.84, 204.9 70.46, 270.26 -0.35 M155.32 132.18 C190.35 89.44, 225.92 48.28, 269.85 0.35 M159.07 133.59 C185.43 105.98, 206.98 77.32, 276.92 0.2 M159.43 132.53 C201.69 86.89, 241.66 39.61, 276.08 -0.82 M167.52 132.26 C196.51 100.55, 225.66 66, 280.87 0.25 M165.89 133.09 C198.6 95.38, 229.88 58.06, 281.53 -0.55 M172.33 133.84 C218.6 79.84, 262.1 26.62, 286.5 -0.77 M171.17 133.14 C206.61 91.42, 242.58 50.8, 287.06 0.6 M176.65 131.46 C220.68 81.21, 259.63 34.21, 291.81 0.95 M177.46 132.52 C205.33 97.14, 234.65 63.98, 291.5 0.08 M182.26 133.67 C212.23 97.83, 243.64 61.11, 297.58 -2.19 M182.49 133.57 C218.03 91.09, 254.06 50.88, 296.07 -0.7 M186.72 132.57 C222.96 90.19, 255.99 51.48, 301.96 -1.15 M187.8 133.08 C217.95 98.4, 248.31 62.23, 302.1 -0.48 M193.97 131.94 C221.56 100.36, 252.24 65.03, 305.62 -2.06 M192.61 132.23 C222.5 95.75, 254.94 58.69, 307.41 -0.15 M199.47 131.34 C222.99 105.3, 247.23 76.39, 314.38 1.87 M198.09 132.49 C226.64 97.32, 256.27 62.45, 312.08 -0.86 M200.8 134.29 C237.57 92.13, 273.17 49.93, 316.3 -1.54 M203.18 131.61 C238.24 91.89, 274.91 48.86, 318.79 -0.06 M206.81 132.35 C247.72 88.18, 283.81 43.99, 324.34 0.73 M208.91 131.53 C241.96 94.8, 275.95 55.56, 322.61 0.43 M212.24 133.23 C254.39 88.38, 290.05 43.79, 329.46 -1.01 M214.21 132.31 C256.36 82.24, 299.53 32.61, 329.32 0.33 M218.84 132.97 C250.71 95.01, 280.58 59.77, 335.28 0.98 M218.24 132.1 C254.7 88.77, 291.53 46.51, 333.25 0.93 M225.99 132.03 C264.5 83.09, 307.03 32.63, 339.15 -0.02 M224.16 133.03 C268.57 79.02, 313.07 28.38, 339.53 -1.1 M227.85 131.41 C269.72 89.38, 308.14 42.01, 342.83 -1.04 M229.49 131.19 C253 106.33, 277.17 78.37, 343.97 0.32 M235.94 132.8 C260.3 106.42, 280.17 79.28, 348.92 -0.56 M233.88 132.55 C268.98 91.9, 306.05 52.06, 348.68 1.33 M240.31 130.67 C271.72 94.56, 304.08 60.54, 354.81 1.85 M239.45 132.88 C280.11 85.79, 319.59 41.16, 355.16 0.34 M244.15 132.45 C286.15 84.92, 325.25 38.24, 358.52 1.94 M244.61 131.74 C279.37 94.93, 312.46 56.41, 359.42 0.19 M252.9 130.58 C275.65 103.7, 302.55 74.89, 367.22 -0.38 M250.34 132.36 C276.78 102.28, 303.8 72.32, 365.6 0.85 M256.88 130.71 C290 93.8, 325.27 55.44, 371.87 -0.89 M256.02 131.59 C291.06 90.68, 328.19 49.76, 369.82 -0.63 M260.45 131.76 C286.27 103.61, 307.19 77.3, 376.27 1.05 M261.76 131.87 C289.5 100.22, 315.93 69.49, 376.48 -0.22 M264.57 134.12 C293.89 101.29, 320.6 69.74, 379.77 -1.35 M266.17 133.15 C306.88 86.64, 346.96 40.83, 382.05 1.1 M271.35 132.43 C301.82 98.07, 334.02 61.4, 386.34 1.76 M272.08 133.55 C304.38 95.91, 338.58 57.79, 387.4 -0.83 M277.86 132.03 C313.7 92.44, 344.66 50.65, 391.2 1.07 M277.54 131.59 C320.31 82.86, 363.2 34.67, 391.63 0.71 M282.13 133.32 C317.16 91.44, 350.85 49.02, 397.98 0.16 M283.03 132.35 C328.15 78.63, 374.07 26.41, 398.37 -0.85 M287.56 132.61 C331 83.47, 376.73 31.12, 401.32 -0.32 M287.01 132.15 C311.76 105.84, 335.41 78.96, 403.55 0.64 M293.57 134.27 C322.34 98.28, 351.73 64.36, 407.97 1.47 M293.8 132.55 C327.66 93.18, 360.71 53.15, 407.79 -0.06 M296.69 130.84 C335.86 87.31, 375.81 42.65, 411.47 0.63 M297.87 132.2 C325.14 100.31, 352.53 68.11, 414.15 0.41 M305.25 131.16 C334.43 95.48, 367.43 60.15, 417.24 1.73 M303.63 132.82 C330.29 102.88, 355.03 73.83, 418.48 -0.14 M308.43 132.5 C342.25 96.33, 373.9 57.18, 425.2 -1.14 M309.79 133.15 C342.13 93.16, 376.47 53.7, 423.21 0.61 M314.96 132.68 C361.45 80.58, 403.24 28.94, 430.92 -0.2 M313.15 132.89 C352.82 89.68, 389.49 47.94, 429.67 -0.69 M318.17 130.2 C362.01 85.31, 404.04 34.91, 436.23 -1.87 M318.89 132.56 C365.25 81.14, 409.04 28.54, 433.9 0.97 M326.68 132.35 C354.08 96.7, 379.61 66.56, 438.34 1.35 M324.42 131.58 C353.24 101.01, 380.1 68.63, 440.98 -1.2 M329.48 131.35 C358.98 103.22, 384.56 72.92, 444.48 -0.99 M329.67 132.05 C372.7 82.33, 416.79 32.93, 444.81 0.27 M334.57 132.48 C376.02 84.45, 417.1 36.71, 449.01 -1.16 M334.9 132.83 C376.64 87.74, 416.89 41.24, 450.45 -1.07 M342.11 130.18 C368.14 101.56, 399.91 66.99, 456.05 -1.12 M341.04 131.35 C372.26 95.28, 404.95 58.98, 455.93 0.42 M346.99 132.21 C371.01 103.4, 399.5 75.47, 460.61 -0.42 M345.45 131.65 C382.9 90.15, 419.94 49.3, 460.53 0.38 M352.01 131.74 C393.74 84.28, 433.11 35.99, 467.21 -0.05 M352.31 132.26 C393.24 82.45, 435.27 36.06, 466.64 0.41 M358.47 131.49 C387.71 100.5, 414.45 68.82, 470.37 -1.59 M356.34 132.16 C393.05 89.72, 432.06 45.08, 471.4 0.71 M363.31 131.86 C388.28 98.51, 419.65 66.26, 476.46 1.21 M363.21 132.7 C395.37 95.31, 429.15 55.57, 477.76 0.31 M365.73 131.07 C396.09 102.27, 420.8 70.06, 481.67 -1.25 M367.25 131.56 C398.4 95.42, 430.47 57.2, 481.63 1.26 M372.33 133.23 C406.11 91.59, 439.89 52.55, 488.45 -1.51 M371.86 132.67 C411.21 87.5, 449.75 45.58, 487.49 -0.71 M379.7 132.52 C405.47 97.65, 434 65.51, 492.12 1.07 M377.26 132.15 C421.74 84.04, 465.8 32.9, 492.22 -0.22 M382.92 134.06 C416.74 93.76, 447.82 57.33, 498.03 0.42 M382.16 133.02 C423.58 86.06, 464.88 37.91, 497.44 -0.36 M389.46 134.24 C431.05 81.2, 473.97 35.9, 503.51 0.67 M388.86 131.33 C425.4 89.17, 462.88 48.03, 502.6 0.08 M393.08 133.15 C425.07 97.97, 455.5 61.68, 503.69 8 M394.34 132.44 C423.25 100.37, 453.84 65.37, 502.07 8.26 M398.31 131.41 C437.02 90.17, 475.07 45.85, 500.61 14.22 M399.93 131.59 C433.67 93.03, 468.82 52.47, 501.38 14.65 M403.05 134.34 C436.88 92.09, 473.25 52.83, 503.26 20.47 M403.11 131.96 C439.61 88.57, 478.24 46.57, 502.44 18.58 M411.73 132.04 C443.78 89.07, 479.45 51.01, 501.42 25.06 M409.8 132.5 C442.74 94.13, 477.01 55.94, 502.6 25.9 M413.89 131.56 C436.19 107.2, 455.42 83.11, 502.11 32.37 M414.21 131.96 C448.69 93.63, 481.49 55.33, 502.3 31.63 M421.37 132.96 C442.34 107.96, 461.72 84.78, 504.26 36.93 M421.15 132.75 C438.74 111.34, 457.01 89.68, 502.89 37.94 M426.86 133.53 C446.34 108.93, 467.73 83.83, 503.17 44.33 M425.82 132.92 C453.56 99.4, 485.27 64.82, 502.26 44.8 M429.09 131.8 C447.66 109.35, 465.74 89.78, 504.36 51.6 M430.12 132.09 C450.16 109.44, 469.08 87.92, 501.95 50.21 M435.41 131.79 C456.23 107.84, 475.99 87.2, 501.54 55.55 M436.49 133.4 C458.67 105.85, 480.68 80.81, 502.25 56.33 M442.93 131.01 C457.27 112.15, 475.15 96.8, 501.07 61.68 M442.2 131.4 C464.31 106.04, 486.75 80.03, 501.86 62.24 M445.16 132.69 C463.68 110.58, 482.51 91.97, 500.55 68.29 M447.19 132.06 C468.47 107.01, 489.75 84.09, 501.68 67.81 M453.11 133.84 C463.22 119.5, 476.15 103.83, 501.32 75.35 M452.34 132.63 C466.52 115, 479.77 99.21, 502.48 74.42 M457.93 133.4 C468.56 116.62, 483.26 102.38, 502.35 80.87 M457.32 131.65 C468.69 120.12, 479.59 106.41, 502.01 81.15 M464.04 132.36 C473.86 114.96, 489.76 100.96, 502.17 85.32 M462.87 132.83 C474.81 118.58, 486.24 104.8, 502.04 86.96 M467.73 133.9 C473.74 124.62, 482.77 115.19, 503.31 92.43 M468.64 133.02 C477.82 120.08, 488.85 109.57, 502.09 93.37 M474.32 131.47 C483.45 119.81, 494.37 107.29, 502.92 97.38 M473.51 132.14 C484.27 118.68, 495.56 106.67, 503.19 98.43 M476.76 132.97 C483.69 125.8, 488.38 123.25, 501.29 103.66 M479.37 133.12 C485.08 124.55, 492.39 115.09, 501.54 105.35 M484.75 132.85 C491.33 123.95, 495.8 118.9, 503.69 111.4 M483.43 131.81 C488.27 127.01, 493.87 120.73, 501.65 110.74 M487.4 132.22 C494.55 125.69, 498.6 121.99, 502.34 117.81 M490.08 132.97 C492.13 128.85, 495.92 125.77, 501.36 116.78 M494.49 131.4 C498.18 128.3, 500.5 126.01, 501.55 122.38 M495.01 132.08 C497.54 129.22, 498.76 126.66, 503.2 123.51 M499.46 132.28 C500.66 131.46, 500.86 131.16, 502.06 129.3 M499.77 132.21 C500.33 131.57, 501.38 130.91, 502.31 129.2"
              stroke="#fa5252" stroke-width="0.5" fill="none"/>
        <path d="M0.42 0.16 C194.02 2.03, 387.76 1.36, 501.07 0.44 M0.12 0.17 C187.86 -0.24, 376.69 -0.04, 500.72 -0.27 M499.03 -0.77 C499.75 31.45, 499.36 60.55, 501.57 130.76 M501.44 -0.57 C501.5 28.43, 501.94 58.36, 501.99 130.76 M500.81 130.93 C387.53 131.33, 275.45 130.89, -0.36 131.64 M501.1 131 C324.91 129.75, 149.48 130.42, -0.1 131.19 M1.21 131.46 C1.84 86.5, 1.84 36.15, -0.07 1.6 M0 130.44 C0.13 95.98, 0.35 59.73, -0.4 0.84"
              stroke="#000000" stroke-width="1" fill="none"/>
    </g>
    <g stroke-linecap="round" transform="translate(355 387) rotate(0 70.5 51.5)">
        <path d="M-0.76 0.87 L139.86 -0.57 L140.03 103.29 L1.07 104.98" stroke="none" stroke-width="0"
              fill="#15aabf"/>
        <path d="M1.45 -1.8 C33.05 0.84, 65.1 -1.33, 139.1 -1.98 M-0.22 -0.77 C36.83 0.04, 75.65 -1.23, 140.54 -0.04 M140.33 0.18 C142.02 30.91, 139.91 61.78, 142.89 102.4 M140.97 0.7 C141.06 34.82, 142.17 69.24, 140.56 103.58 M141.38 103.37 C94.48 103.02, 46.56 104.78, 1.73 103.24 M141.34 103.2 C112.21 102.64, 82.84 103.83, 0.76 102.35 M-1.87 101.19 C0.85 71.94, -1.7 41.11, -1.24 0.18 M-0.69 103.14 C0.14 63.02, 1.3 24.7, -0.79 0.6"
              stroke="#000000" stroke-width="1" fill="none"/>
    </g>
    <g stroke-linecap="round" transform="translate(417 24) rotate(0 69.5 49)">
        <path d="M-0.28 1.75 L139.8 -1.76 L138.33 97.15 L0.3 96.96" stroke="none" stroke-width="0"
              fill="#15aabf"/>
        <path d="M-0.86 0.5 C28.58 -1.5, 60.75 -2.15, 138.06 1.05 M0.08 0.92 C39.55 -0.36, 80.07 -2.15, 139.22 0.92 M139.32 1.24 C138.76 35.78, 137.78 69.78, 137.24 99.52 M138.27 0.7 C138.39 19.32, 138.51 39.16, 138.95 98.66 M138.77 99.49 C92.84 99.93, 49.56 96.69, -1.59 97.05 M138.42 98.51 C103.97 96.2, 69.24 97.53, -0.6 98.7 M-1.96 96.76 C-0.16 65.9, 0.23 33.14, -1.06 0.14 M0.63 97.52 C-0.3 74.81, -0.52 51.28, 0.71 -0.23"
              stroke="#000000" stroke-width="1" fill="none"/>
    </g>
    <g stroke-linecap="round" transform="translate(438 49) rotate(0 52.5 26.5)">
        <path d="M-0.06 1.86 L106.12 -0.8 L103.41 51.93 L-0.79 53.17" stroke="none" stroke-width="0"
              fill="#fab005"/>
        <path d="M-1.33 -1.98 C39.36 -1.2, 80.05 1.5, 106.15 0.37 M-0.54 0.43 C25.72 -0.82, 51.73 -0.97, 104.05 -0.2 M103.64 1.13 C103.35 14.11, 103.65 28.15, 103.26 54.19 M104.18 -0.04 C105.61 16.24, 105.1 34.45, 105.2 53.59 M104.88 53.44 C73.93 53.35, 44.01 50.88, -0.5 51.92 M104.68 53.51 C76.65 53.04, 48.52 53.39, 0.48 52.35 M-1.82 53.18 C1.73 40.36, 1.77 29.82, -0.24 1.89 M0.96 53.04 C1.1 33.98, 0.45 13.19, -0.64 -0.55"
              stroke="#000000" stroke-width="1" fill="none"/>
    </g>
    <g stroke-linecap="round" transform="translate(170 391) rotate(0 74 49)">
        <path d="M-0.99 -1.88 L149.37 1.16 L148.66 97.56 L0.06 97.46" stroke="none" stroke-width="0"
              fill="#15aabf"/>
        <path d="M-1.6 1.44 C50.65 -1.35, 100.28 -0.72, 146.14 -0.38 M-0.12 0.89 C40.9 -0.82, 80.67 -0.33, 148.5 -0.88 M146.96 -1.34 C148.2 33.63, 147.76 67.63, 147.43 99.41 M147.99 -0.83 C149.38 29.57, 147.73 57.5, 147.58 98.03 M146.21 96.33 C115.5 99.26, 81.27 97.71, -1.15 97.83 M148.16 97.09 C110.23 97.84, 72.82 99.07, 0.62 98.44 M1.61 96.57 C-0.05 71.57, 0.86 47.64, -1.38 1.44 M-0.35 97.07 C-0.81 68.21, 0.33 39.13, 0.52 -1"
              stroke="#000000" stroke-width="1" fill="none"/>
    </g>
    <g transform="translate(443 63) rotate(0 47.5 12.5)">
        <text x="47.5" y="18" font-family="Virgil, Segoe UI Emoji" font-size="20px" fill="#000000" text-anchor="middle"
              style="white-space: pre;">Layer
        </text>
    </g>
    <g stroke-linecap="round" transform="translate(195 408) rotate(0 47 30)">
        <path d="M0.9 -0.86 L94.46 1.04 L95.19 61.85 L0.38 60.77" stroke="none" stroke-width="0" fill="#fab005"/>
        <path d="M-1.02 1.45 C24.89 0.41, 49.93 0.14, 93.4 0.78 M0.92 -0.3 C29.98 -0.51, 60.64 -1.68, 94.56 0.07 M93.6 -0.78 C91.58 19.75, 95.08 36.27, 94.92 59.95 M94.61 -0.51 C94.55 17.48, 94.59 34.01, 94.21 59.38 M92.4 58.23 C70.52 61.27, 47.54 61.17, 0.84 61.69 M94.79 60.14 C56.38 58.55, 20.34 60.27, -0.99 59.17 M1.54 58.33 C-0.43 46.48, 1.33 29.11, 0.44 1.95 M-0.74 60.76 C0.05 45.19, 0.62 31.88, 0.24 -0.01"
              stroke="#000000" stroke-width="1" fill="none"/>
    </g>
    <g stroke-linecap="round" transform="translate(372 399) rotate(0 54 42.5)">
        <path d="M0.09 0.38 L108.52 -1.7 L109.55 85.88 L-0.03 83.06" stroke="none" stroke-width="0"
              fill="#fab005"/>
        <path d="M-1.24 -0.93 C40.77 0.22, 79.09 -2.01, 108.33 1.06 M0.84 0.91 C38.31 -1.06, 78.3 -0.32, 107.15 -0.89 M106.33 -0.88 C109 24.01, 110.24 47.34, 107.65 86.85 M108.98 -0.62 C106.95 31.78, 107.2 63.82, 107.46 84.47 M107.98 85.9 C74.46 85.72, 43.69 86.46, 1.85 85.38 M108.81 84.48 C72.34 85.26, 35.58 86.24, -0.29 84.88 M-0.7 85.05 C0.27 55.47, -1.23 29.64, -1.86 -0.11 M0.31 84.56 C1.48 64.33, 0.4 44.26, -0.89 0.37"
              stroke="#000000" stroke-width="1" fill="none"/>
    </g>
    <g transform="translate(200 413) rotate(0 42 25)">
        <text x="42" y="18" font-family="Virgil, Segoe UI Emoji" font-size="20px" fill="#000000" text-anchor="middle"
              style="white-space: pre;">Blue
        </text>
        <text x="42" y="43" font-family="Virgil, Segoe UI Emoji" font-size="20px" fill="#000000" text-anchor="middle"
              style="white-space: pre;">Stroke
        </text>
    </g>
    <g transform="translate(377 404) rotate(0 49 37.5)">
        <text x="49" y="18" font-family="Virgil, Segoe UI Emoji" font-size="20px" fill="#000000" text-anchor="middle"
              style="white-space: pre;">Stroke
        </text>
        <text x="49" y="43" font-family="Virgil, Segoe UI Emoji" font-size="20px" fill="#000000" text-anchor="middle"
              style="white-space: pre;">Width
        </text>
        <text x="49" y="68" font-family="Virgil, Segoe UI Emoji" font-size="20px" fill="#000000" text-anchor="middle"
              style="white-space: pre;">1000
        </text>
    </g>
    <g stroke-linecap="round" transform="translate(462 212) rotate(0 52 36.5)">
        <path d="M0.74 -0.87 L105 1.22 L102.26 73.07 L-1 72.11" stroke="none" stroke-width="0" fill="#fab005"/>
        <path d="M-0.95 1.34 C24.55 -1.84, 51.35 -1.81, 105.97 0.88 M-0.49 -0.02 C38.22 -1.17, 76.11 0.19, 103.55 -0.96 M102.38 -1.41 C103.53 14.22, 102.29 31.58, 104.43 73.38 M103.31 0.71 C103.94 20.29, 104.37 42.01, 103.42 73.16 M102.19 71.32 C68.52 73.82, 33.93 73.13, 1.88 72.96 M103.73 72.76 C78.46 73.93, 52.75 73.5, -0.92 73.52 M0.64 74.28 C-1.79 54.9, 0.31 32.27, 0.08 0.64 M-0.13 72.84 C0.71 45.14, 0.87 16.73, -0.69 0.77"
              stroke="#000000" stroke-width="1" fill="none"/>
    </g>
    <g stroke-linecap="round">
        <g transform="translate(490.94329791790824 100) rotate(0 -51.18046002718887 38.90915820390968)">
            <path d="M-1.09 0 C-18.19 13.01, -85.17 65.85, -101.97 78.87 M0.54 -1.05 C-16.77 11.52, -85.71 63.57, -102.9 76.94"
                  stroke="#000000" stroke-width="1" fill="none"/>
        </g>
        <g transform="translate(490.94329791790824 100) rotate(0 -51.18046002718887 38.90915820390968)">
            <path d="M-86.74 51.71 C-91.67 60.63, -98.7 68.08, -102.61 76.83 M-87.55 52.22 C-91.65 60.29, -96.79 67.46, -102.95 77.44"
                  stroke="#000000" stroke-width="1" fill="none"/>
        </g>
        <g transform="translate(490.94329791790824 100) rotate(0 -51.18046002718887 38.90915820390968)">
            <path d="M-74.28 68.02 C-83.72 71.06, -95.17 72.74, -102.61 76.83 M-75.09 68.52 C-83.29 71.51, -92.36 73.52, -102.95 77.44"
                  stroke="#000000" stroke-width="1" fill="none"/>
        </g>
    </g>
    <g transform="translate(467 236) rotate(0 47 12.5)">
        <text x="47" y="18" font-family="Virgil, Segoe UI Emoji" font-size="20px" fill="#000000" text-anchor="middle"
              style="white-space: pre;">Path B
        </text>
    </g>
    <g stroke-linecap="round" transform="translate(714 381) rotate(0 66.41025641025641 55.5)">
        <path d="M-1.81 0 L131.72 1.79 L133.79 111.79 L1.29 112.5" stroke="none" stroke-width="0" fill="#15aabf"/>
        <path d="M1.07 -0.1 C41.99 -1.74, 82.68 -0.42, 132.57 -0.98 M0.48 0.51 C26.44 1.55, 53.64 1.17, 133.05 0.61 M134.58 -0.15 C133.26 41.54, 132.59 83.62, 131.46 109.7 M133.63 -0.26 C133.09 26.88, 132.07 55.75, 132.24 110.81 M131.13 111.75 C101.15 111.78, 67.99 111.25, -1.13 110.83 M132.72 110.99 C86.21 112.4, 37.61 112.71, -0.46 111.57 M-1.44 110.03 C-2.82 75.45, 0.99 36.37, -1.02 1.92 M-0.25 110.96 C-1.5 87.46, -1.66 65.84, -0.31 -0.94"
              stroke="#000000" stroke-width="1" fill="none"/>
    </g>
    <g stroke-linecap="round" transform="translate(735.3076923076923 394.8717948717949) rotate(0 42 40.5)">
        <path d="M1.4 0.13 L85.72 0.85 L83.67 82.02 L1.95 80.14" stroke="none" stroke-width="0" fill="#fab005"/>
        <path d="M0.58 1.71 C18.99 0.87, 37.49 -0.48, 85.16 0.9 M0.91 0.3 C32 0.61, 63.88 0.58, 84.3 0.85 M82.13 1.04 C85.35 26.87, 82.4 58.55, 82.15 82.95 M83.58 -0.52 C83.22 27.41, 83.48 52.13, 83.09 81 M84.79 82.29 C64.91 81.23, 42.88 82.65, 0.63 81.55 M83.07 80.53 C60.65 81.11, 37.03 80.15, 0.75 81.63 M-0.1 80.92 C-0.94 47.91, -0.39 16.04, -1.73 -0.35 M-0.81 81.51 C0.05 58.87, -0.08 36.4, -0.61 0.11"
              stroke="#000000" stroke-width="1" fill="none"/>
    </g>
    <g transform="translate(740.3076923076923 411.3717948717949) rotate(0 37 24)">
        <text x="37" y="17" font-family="Virgil, Segoe UI Emoji" font-size="18.829902491874314px" fill="#000000"
              text-anchor="middle" style="white-space: pre;">Red
        </text>
        <text x="37" y="41" font-family="Virgil, Segoe UI Emoji" font-size="18.829902491874314px" fill="#000000"
              text-anchor="middle" style="white-space: pre;">Stroke
        </text>
    </g>
    <g stroke-linecap="round">
        <g transform="translate(316.76366355685354 280.9626634958383) rotate(0 -30.51788626205962 43.32031074163541)">
            <path d="M1 0.52 C-9.39 14.76, -51.09 71.49, -61.56 85.61 M0.07 -0.26 C-10.47 14.13, -51.65 72.51, -62.04 86.9"
                  stroke="#000000" stroke-width="1" fill="none"/>
        </g>
        <g transform="translate(316.76366355685354 280.9626634958383) rotate(0 -30.51788626205962 43.32031074163541)">
            <path d="M-53.17 59.5 C-57.69 69.67, -61.25 79.69, -63.12 88.6 M-53.16 58.21 C-57.42 68.72, -59.4 79.73, -61.33 86.59"
                  stroke="#000000" stroke-width="1" fill="none"/>
        </g>
        <g transform="translate(316.76366355685354 280.9626634958383) rotate(0 -30.51788626205962 43.32031074163541)">
            <path d="M-36.46 71.41 C-47.09 77.38, -56.73 83.05, -63.12 88.6 M-36.45 70.12 C-46.91 76.3, -55 82.96, -61.33 86.59"
                  stroke="#000000" stroke-width="1" fill="none"/>
        </g>
    </g>
    <g stroke-linecap="round">
        <g transform="translate(322 432.6180839935844) rotate(0 15.198195797950063 0.6954311339785306)">
            <path d="M-0.8 -0.65 C4.22 -0.48, 25.98 0.14, 31.2 0.51 M0.98 1.62 C5.86 2.01, 26.04 2.21, 30.88 1.87"
                  stroke="#000000" stroke-width="1" fill="none"/>
        </g>
        <g transform="translate(322 432.6180839935844) rotate(0 15.198195797950063 0.6954311339785306)">
            <path d="M16.08 8.81 C21.93 5.93, 28.65 4.04, 29.72 1.27 M16.97 6.66 C20.46 5.38, 25.54 4.17, 31.43 1.33"
                  stroke="#000000" stroke-width="1" fill="none"/>
        </g>
        <g transform="translate(322 432.6180839935844) rotate(0 15.198195797950063 0.6954311339785306)">
            <path d="M15.85 -1.45 C21.74 -0.35, 28.56 1.73, 29.72 1.27 M16.74 -3.6 C20.28 -1.92, 25.41 -0.16, 31.43 1.33"
                  stroke="#000000" stroke-width="1" fill="none"/>
        </g>
    </g>
    <g stroke-linecap="round">
        <g transform="translate(565.8366819612831 302.60846353004894) rotate(0 64.77274940839465 33.442859904054416)">
            <path d="M1.01 1.16 C22.59 11.95, 108.09 54.15, 129.46 65.19 M0.08 0.73 C21.56 11.59, 107.44 55.33, 128.88 66.16"
                  stroke="#000000" stroke-width="1" fill="none"/>
        </g>
        <g transform="translate(565.8366819612831 302.60846353004894) rotate(0 64.77274940839465 33.442859904054416)">
            <path d="M101.04 63.72 C106.26 64.17, 118.95 64.78, 129.64 64.75 M99.05 63.03 C110.31 63.18, 122.26 64.99, 128.29 65.21"
                  stroke="#000000" stroke-width="1" fill="none"/>
        </g>
        <g transform="translate(565.8366819612831 302.60846353004894) rotate(0 64.77274940839465 33.442859904054416)">
            <path d="M110.33 45.42 C112.82 51.46, 122.72 57.57, 129.64 64.75 M108.34 44.73 C115.8 52.24, 124.05 61.36, 128.29 65.21"
                  stroke="#000000" stroke-width="1" fill="none"/>
        </g>
    </g>
    <g stroke-linecap="round" transform="translate(268 30) rotate(0 61 45.5)">
        <path d="M0.87 0.62 L120.51 0.89 L123.13 91.02 L-0.95 91.63" stroke="none" stroke-width="0"
              fill="#15aabf"/>
        <path d="M-1.52 -0.64 C28.4 -0.71, 58.77 -1.17, 123.67 -0.17 M0.42 0.48 C42.37 -1.33, 85.77 -0.99, 121.87 -0.53 M121.6 -0.41 C122.97 32.18, 123.86 62.09, 121.3 92.58 M122.8 0.47 C122.97 23.1, 123.22 48.63, 121.56 90.62 M120.45 91.3 C97.94 92.53, 70.23 92.28, -1.93 91.16 M122.12 91.42 C76.02 91.33, 31.32 91.72, -0.17 90.39 M-0.48 89.54 C-0.82 61.4, 1.49 31.77, 0.33 -1.41 M-0.26 91.5 C-0.34 65.93, -0.52 41.45, 0.59 -0.05"
              stroke="#000000" stroke-width="1" fill="none"/>
    </g>
    <g stroke-linecap="round">
        <g transform="translate(392 74.19922978699964) rotate(0 12.365426075602898 -0.3708617560814389)">
            <path d="M-0.93 1.17 C2.95 1.15, 19.05 0.25, 23.31 0.03 M0.79 0.74 C5.05 0.33, 21.76 -2.01, 25.66 -1.91"
                  stroke="#000000" stroke-width="1" fill="none"/>
        </g>
        <g transform="translate(392 74.19922978699964) rotate(0 12.365426075602898 -0.3708617560814389)">
            <path d="M15.88 2.3 C18.38 2.19, 21.59 0.88, 26.41 -1.26 M14.58 2.96 C18.72 1.36, 22.3 0.06, 25.46 -2.13"
                  stroke="#000000" stroke-width="1" fill="none"/>
        </g>
        <g transform="translate(392 74.19922978699964) rotate(0 12.365426075602898 -0.3708617560814389)">
            <path d="M15.29 -5.89 C17.98 -3.49, 21.37 -2.31, 26.41 -1.26 M13.99 -5.23 C18.29 -4.13, 22.06 -2.74, 25.46 -2.13"
                  stroke="#000000" stroke-width="1" fill="none"/>
        </g>
    </g>
    <g stroke-linecap="round" transform="translate(285 43) rotate(0 43 29)">
        <path d="M0.99 0.03 L87.95 0.84 L85.58 58.53 L0.17 59.93" stroke="none" stroke-width="0" fill="#fab005"/>
        <path d="M-1.32 -0.77 C33.75 2.51, 66.09 1.64, 85.47 0.89 M-0.46 -0.42 C21.68 -0.64, 43.27 -1.45, 86.37 -0.39 M84.64 -1.1 C87.08 17.93, 84.35 31.67, 85.64 56.82 M85.66 0.09 C86.23 16.03, 85.56 31.43, 86.9 57.05 M84.57 58.59 C66.97 57.83, 44.2 56.61, 0.43 56.5 M85.7 58.05 C55.13 57.26, 23.23 57.06, 0.81 58.45 M1.14 56.81 C-0.87 39.58, -1.57 23.82, -1.4 0.18 M0.86 58.93 C1.25 35.41, 0.26 11.88, -0.25 0.45"
              stroke="#000000" stroke-width="1" fill="none"/>
    </g>
    <g transform="translate(290 59.5) rotate(0 38 12.5)">
        <text x="38" y="18" font-family="Virgil, Segoe UI Emoji" font-size="20px" fill="#000000" text-anchor="middle"
              style="white-space: pre;">Dash
        </text>
    </g>
    <g stroke-linecap="round" transform="translate(555.5897435897436 382.5) rotate(0 61.91025641025641 55.5)">
        <path d="M-1.52 0 L125.28 -1.06 L125.57 110.64 L1.5 111.68" stroke="none" stroke-width="0"
              fill="#15aabf"/>
        <path d="M-0.47 -1.62 C34.13 -1.05, 63.28 2.17, 122.45 -1.95 M0.36 0.48 C42.52 -0.43, 84.12 -0.95, 124.44 -0.79 M124.82 -0.79 C123.06 27.83, 125.06 60.97, 125.01 112.45 M124.7 0.19 C124.38 33.04, 124.5 63.95, 123.49 110.36 M122.48 110.3 C97.45 111.98, 71.14 111.09, -0.36 110.25 M123.64 110.47 C95.98 110.88, 68.07 111.44, 0.94 111.93 M0.02 111.45 C2.12 76.65, -0.19 41.93, 1.07 0.84 M0.19 111.61 C0.27 75.14, 1.53 40.15, 0.69 -0.09"
              stroke="#000000" stroke-width="1" fill="none"/>
    </g>
    <g stroke-linecap="round" transform="translate(572 399) rotate(0 44 34.5)">
        <path d="M0.68 0.76 L88.43 1.52 L89.29 70.19 L0.21 70.18" stroke="none" stroke-width="0" fill="#fab005"/>
        <path d="M1.21 0.79 C22.8 -0.84, 44.64 -1.17, 88.04 1.12 M0.81 -0.14 C32.91 1.25, 67.37 0.88, 87.13 -0.67 M88.22 1.02 C87.89 19.98, 86.81 44.8, 86.03 68.53 M88.65 -0.91 C88.05 21.1, 88.36 42.24, 87.65 68.34 M89.92 69.97 C58.68 70.23, 32.51 70.26, -0.16 68.49 M88.59 68.22 C61.38 69.14, 35.89 69.47, -0.96 69.06 M-0.56 68.95 C0.38 46.21, -1.05 26.01, 1.45 0.62 M-0.99 69.59 C-0.85 44.93, -0.3 20.88, -0.71 -0.84"
              stroke="#000000" stroke-width="1" fill="none"/>
    </g>
    <g transform="translate(577 408.5) rotate(0 39 25)">
        <text x="39" y="18" font-family="Virgil, Segoe UI Emoji" font-size="20px" fill="#000000" text-anchor="middle"
              style="white-space: pre;">Blue
        </text>
        <text x="39" y="43" font-family="Virgil, Segoe UI Emoji" font-size="20px" fill="#000000" text-anchor="middle"
              style="white-space: pre;">Fill
        </text>
    </g>
    <g stroke-linecap="round">
        <g transform="translate(680.4102564102565 429.6259820391954) rotate(0 15.330236381731709 -0.20152258439773618)">
            <path d="M-0.47 -1.04 C4.85 -0.93, 25.74 0.49, 31.13 0.59 M1.48 1.02 C6.67 0.76, 24.97 -1.33, 29.94 -1.42"
                  stroke="#000000" stroke-width="1" fill="none"/>
        </g>
        <g transform="translate(680.4102564102565 429.6259820391954) rotate(0 15.330236381731709 -0.20152258439773618)">
            <path d="M14.14 4.41 C19.18 3.97, 21.2 2.17, 30.72 -1.29 M15.51 5.69 C18.82 3.22, 23.15 2.01, 30.13 -1.1"
                  stroke="#000000" stroke-width="1" fill="none"/>
        </g>
        <g transform="translate(680.4102564102565 429.6259820391954) rotate(0 15.330236381731709 -0.20152258439773618)">
            <path d="M13.38 -6.37 C18.59 -4.28, 20.79 -3.55, 30.72 -1.29 M14.75 -5.09 C18.31 -4.84, 22.84 -3.33, 30.13 -1.1"
                  stroke="#000000" stroke-width="1" fill="none"/>
        </g>
    </g>
    <g stroke-linecap="round" transform="translate(28 391) rotate(0 58.499999999999986 50)">
        <path d="M0.79 0 L116.7 -1.68 L116.59 98.49 L0.7 100.4" stroke="none" stroke-width="0" fill="#15aabf"/>
        <path d="M1.32 -1.04 C44.59 -0.57, 94.41 -2.21, 115.2 0.28 M0.54 -0.68 C34.41 -0.51, 67.04 -0.15, 117.84 0.37 M115.67 -0.69 C118.59 32.67, 116.4 69, 115.36 99.52 M117.81 -0.29 C117.42 39.46, 117.64 77.36, 116.68 99.19 M115.41 101.74 C71.28 99.57, 24.62 98.46, -0.76 101.88 M116.12 99.44 C71.5 98.87, 25.18 100.44, -0.33 100.69 M1.4 101.56 C1.21 72.64, 1.14 50.07, 1.8 -1.6 M0.07 99.1 C-0.71 72.63, -1.39 43.52, 0.87 -0.37"
              stroke="#000000" stroke-width="1" fill="none"/>
    </g>
    <g stroke-linecap="round">
        <g transform="translate(149.21052631578948 434.45145380934855) rotate(0 11.240516527478675 0.2800213893781347)">
            <path d="M0.84 0.93 C4.57 0.83, 19.03 -0.48, 22.66 -0.37 M-0.18 0.38 C3.45 0.38, 18.42 0.79, 22.17 0.69"
                  stroke="#000000" stroke-width="1" fill="none"/>
        </g>
        <g transform="translate(149.21052631578948 434.45145380934855) rotate(0 11.240516527478675 0.2800213893781347)">
            <path d="M12.76 5.16 C14.39 3.86, 19.49 2.9, 21.3 0.47 M11.42 4.42 C16.15 2.65, 19.44 2.04, 21.97 0.91"
                  stroke="#000000" stroke-width="1" fill="none"/>
        </g>
        <g transform="translate(149.21052631578948 434.45145380934855) rotate(0 11.240516527478675 0.2800213893781347)">
            <path d="M12.79 -2.29 C14.42 -1.18, 19.51 0.27, 21.3 0.47 M11.45 -3.03 C16.18 -1.98, 19.46 0.25, 21.97 0.91"
                  stroke="#000000" stroke-width="1" fill="none"/>
        </g>
    </g>
    <g stroke-linecap="round" transform="translate(40 401) rotate(0 45 38)">
        <path d="M1.76 -1.44 L90.01 -1.76 L89.95 74.6 L-0.76 77.09" stroke="none" stroke-width="0"
              fill="#fab005"/>
        <path d="M1.05 0.03 C20.81 0.27, 42.76 0.76, 88.29 1.15 M0.39 0.98 C32.77 0.15, 66.66 -1.37, 89.41 0.18 M89.91 -0.58 C88.08 26.45, 90.64 48.61, 89.4 74.94 M89.98 0.92 C89.86 22.46, 89.53 44.23, 89.91 75.95 M88.05 76.2 C71.94 77.11, 53.32 75.07, 1.33 74.98 M90.09 76.84 C55.84 76.59, 21.46 77.1, 0.98 76.65 M0.05 76.99 C-1.52 51.79, -1.36 22.71, -1.27 1.63 M0.02 75.16 C0.2 45.72, 0.45 15.91, 0.31 -0.13"
              stroke="#000000" stroke-width="1" fill="none"/>
    </g>
    <g transform="translate(45 426.5) rotate(0 40 12.5)">
        <text x="40" y="18" font-family="Virgil, Segoe UI Emoji" font-size="20px" fill="#000000" text-anchor="middle"
              style="white-space: pre;">Red Fill
        </text>
    </g>
    <g stroke-linecap="round" transform="translate(266.5 198) rotate(0 78.5 49)">
        <path d="M1.49 -1.15 L155.38 -0.25 L158.61 96.19 L-0.44 98.95" stroke="none" stroke-width="0"
              fill="#15aabf"/>
        <path d="M1.82 -0.47 C50.81 0.5, 101.47 -0.83, 155.9 1.16 M0.68 0.05 C52.28 0.24, 104.9 -1.17, 156.89 -0.56 M157.71 -0.6 C156.76 24.45, 156.55 46.85, 158.24 96.84 M156.34 0.77 C156.36 29.51, 156.08 58.94, 156.41 98.8 M156.92 98.9 C108.58 97.94, 62.33 95.91, -0.21 98.95 M156.63 98.91 C105.82 99.47, 53.27 99.92, -0.37 98.83 M0.82 99.63 C-1.25 75.17, -0.91 50.33, -1.86 0.72 M-0.12 97.43 C0.16 71.19, 0.56 43.96, 0.25 -0.28"
              stroke="#000000" stroke-width="1" fill="none"/>
    </g>
    <g stroke-linecap="round" transform="translate(291 216) rotate(0 54 31.5)">
        <path d="M-0.36 -1.95 L108.2 0.88 L109.28 64.21 L-0.77 64.33" stroke="none" stroke-width="0"
              fill="#fab005"/>
        <path d="M-0.64 1.03 C30.23 -1.79, 60.88 -1.1, 108.95 -1.29 M-0.91 0.09 C23.72 -0.83, 46.54 -0.51, 107.88 0.94 M109.92 0.07 C109.01 25.24, 107.71 46.92, 106.72 61.9 M107.6 -0.79 C108.05 18.32, 108.67 36.69, 107.34 62.67 M107.71 63.55 C72.82 64.05, 34.81 64.16, 1.46 62 M107.19 63.55 C70.35 63.09, 33.11 64.23, 0.29 62.8 M-1.77 64.48 C0.82 45.34, -0.57 29.28, -0.12 -1.38 M0.39 63.13 C0.07 48.77, -0.07 35.34, -0.9 0.07"
              stroke="#000000" stroke-width="1" fill="none"/>
    </g>
    <g transform="translate(296 235) rotate(0 49 12.5)">
        <text x="49" y="18" font-family="Virgil, Segoe UI Emoji" font-size="20px" fill="#000000" text-anchor="middle"
              style="white-space: pre;">Path A
        </text>
    </g>
    <g stroke-linecap="round">
        <g transform="translate(412.62850215517244 245.54718457568185) rotate(0 17.11414616696277 0.5791489822811684)">
            <path d="M-1.04 0.56 C4.67 0.52, 29.23 -0.05, 35.27 0.23 M0.62 -0.19 C6.04 -0.13, 28.48 1.23, 34.07 1.35"
                  stroke="#000000" stroke-width="1" fill="none"/>
        </g>
        <g transform="translate(412.62850215517244 245.54718457568185) rotate(0 17.11414616696277 0.5791489822811684)">
            <path d="M17.86 6.02 C22.33 3.99, 31.85 3.68, 35.1 -0.01 M16.14 6.21 C23 4.15, 27.86 3.72, 34.32 0.84"
                  stroke="#000000" stroke-width="1" fill="none"/>
        </g>
        <g transform="translate(412.62850215517244 245.54718457568185) rotate(0 17.11414616696277 0.5791489822811684)">
            <path d="M18.38 -6.2 C22.7 -3.56, 32.02 0.82, 35.1 -0.01 M16.67 -6.01 C23.39 -3.92, 28.06 -0.22, 34.32 0.84"
                  stroke="#000000" stroke-width="1" fill="none"/>
        </g>
    </g>
</svg>
