<svg version="1.1" xmlns="http://www.w3.org/2000/svg" viewBox="0 0 179 174.57142857142856" width="358"
     height="349.1428571428571">
    <!-- svg-source:excalidraw -->

    <defs>
        <style>
            @font-face {
            font-family: "Virgil";
            src: url("https://excalidraw.com/Virgil.woff2");
            }
            @font-face {
            font-family: "Cascadia";
            src: url("https://excalidraw.com/Cascadia.woff2");
            }
        </style>
    </defs>
    <g stroke-linecap="round" transform="translate(10 50) rotate(0 58 56.5)">
        <path d="M-1.6 1.34 L114.4 -1.17 L115.61 113.97 L0.28 113.82" stroke="none" stroke-width="0"
              fill="#fa5252"/>
        <path d="M-0.92 1.49 C42.62 2.11, 81.77 -0.97, 116.55 1.71 M117.73 0.94 C116.02 43.16, 115.89 85.32, 116.81 112.8 M115.64 114.95 C93.28 112.28, 67.14 112.71, 1.49 113.25 M1.23 113.59 C-1.61 80.33, 0.64 46.83, -1.12 1.84"
              stroke="#364fc7" stroke-width="4.5" fill="none" stroke-dasharray="8 12"/>
    </g>
    <g stroke-linecap="round" transform="translate(64 10) rotate(0 52.5 52)">
        <path d="M-0.55 -0.6 L103.15 0.76 L103.65 102.14 L-0.57 102.1" stroke="none" stroke-width="0"
              fill="#4c6ef5"/>
        <path d="M-1.5 -1.86 C37.85 0.08, 80.83 0.09, 103.93 1.87 M104.19 -0.68 C104.72 36.03, 103.7 69.31, 105.32 103.16 M105.75 105.87 C63.22 104.81, 25.61 103.69, -1.84 103.25 M-1.87 104.93 C0.53 66.3, 0.13 27.72, -1.93 1.37"
              stroke="#c92a2a" stroke-width="2.5" fill="none" stroke-dasharray="8 10"/>
    </g>
    <g transform="translate(21 103.85714285714283) rotate(0 17 30.35714285714286)">
        <text x="0" y="42.714285714285694" font-family="Virgil, Segoe UI Emoji" font-size="48.57142857142853px"
              fill="#000000" style="white-space: pre;">A
        </text>
    </g>
    <g transform="translate(79 52.64285714285717) rotate(0 18.5 30.5)">
        <text x="0" y="43" font-family="Virgil, Segoe UI Emoji" font-size="48.57142857142853px" fill="#000000"
              style="white-space: pre;">B
        </text>
    </g>
</svg>
