<svg version="1.1" xmlns="http://www.w3.org/2000/svg" viewBox="0 0 764 515.5" width="1528" height="1031">
    <!-- svg-source:excalidraw -->

    <defs>
        <style>
            @font-face {
            font-family: "Virgil";
            src: url("https://excalidraw.com/Virgil.woff2");
            }
            @font-face {
            font-family: "Cascadia";
            src: url("https://excalidraw.com/Cascadia.woff2");
            }
        </style>
    </defs>
    <g stroke-linecap="round" transform="translate(10 10) rotate(0 372 67)">
        <path d="M0 0 C0 0, 0 0, 0 0 M0 0 C0 0, 0 0, 0 0 M-0.14 6.3 C0.82 5.01, 3.28 3.68, 4.83 0.19 M-0.46 6.26 C1.7 4.3, 3.43 2.14, 5.31 0.55 M1.15 11.34 C2.91 6.76, 6.11 5.18, 9.39 0.2 M0.43 11.27 C3.95 8.29, 7.81 3.28, 10.73 0.3 M1.46 18.09 C2.4 14.6, 5.49 10.59, 15.14 -1.13 M0.26 18.6 C2.5 14.19, 6.13 10.59, 15.35 0.82 M-1.26 25.27 C5.06 19.71, 10.5 11.92, 22.15 1.06 M0.05 24.64 C6.97 16.72, 13.03 9.55, 22.21 0.68 M1.73 28.77 C9.67 21.2, 18.48 7.59, 26.56 0.79 M-0.74 29.6 C8.65 19.19, 19.34 7.8, 27.2 0.48 M-0.47 37.08 C13.1 23.84, 24.45 9.21, 33.22 -1.5 M-0.37 36.11 C9.8 25.37, 19.82 13.51, 32.63 -0.23 M2.09 41.18 C12.61 31.75, 24.02 16.64, 36.29 -0.94 M-0.8 42.32 C8.98 32.72, 19.46 21.18, 35.95 0.18 M0.26 48.71 C14.06 33.17, 29.16 14.71, 42.59 1.55 M0.31 49.23 C9.2 38.77, 19.05 26.61, 42.93 0.48 M0.61 54.53 C13.79 39.37, 25.94 24.43, 48.53 1.22 M0.12 54.47 C12.05 41.22, 22.51 28.66, 48.33 -0.33 M-1.76 62.67 C18.22 39.23, 38.29 14.88, 51.41 -0.68 M-0.71 61.39 C18.62 39.45, 36.26 19.37, 53.13 0.02 M-0.48 68.93 C16.05 47.73, 33.25 27.42, 58.34 1 M0.52 66.88 C18.1 45.96, 37.21 24.87, 57.16 0.15 M-1.74 74.96 C14.98 57.41, 26.27 41.51, 65.62 1.14 M0.51 72.64 C25.46 44.27, 48.18 17.51, 64.35 0.04 M-0.16 78.46 C16.65 61.4, 31.45 42.71, 67.57 -1.7 M-0.06 78.56 C20.95 56.58, 42.88 31.64, 69.35 0.18 M-0.07 83.74 C28.2 54, 54.92 21.86, 75.97 0.51 M0 84.45 C24.99 56.74, 50.32 26.73, 74.78 0.56 M1.4 91.63 C30.01 57.09, 55.97 26.77, 80.88 -0.77 M-0.93 91.17 C21.34 66.29, 43.11 41.11, 79.89 -0.24 M1.01 98.1 C18.99 75.49, 37.34 52.23, 86.04 -0.86 M-0.76 98.42 C16.93 78.16, 35.78 57.95, 85.74 0.02 M1.55 104.38 C29.44 67.77, 60.73 35.09, 89.75 0.08 M0.31 104.03 C33.21 67.46, 64.13 30.23, 89.89 0.29 M0.03 111.09 C28.77 75.73, 56.42 42.82, 96.22 -1.11 M-0.25 109.32 C25.01 81.4, 49.22 51.51, 95.61 -0.72 M-1.6 116.84 C23.28 90.78, 47.88 62.21, 100.47 -0.68 M1.2 114.86 C28.17 84.24, 53.3 54.95, 100.54 0.57 M0.38 120.17 C39.48 78.39, 77.91 35.06, 107.69 -2.15 M-0.8 121.59 C41.2 76.79, 81.2 30.91, 105.89 -0.41 M-1.75 130.09 C37.06 85.14, 77.51 39.61, 110.14 1.61 M-0.31 128.55 C25.03 100, 48.78 73.07, 111.12 0.79 M0.92 132.26 C40.25 85.72, 81.03 38.08, 117.82 -0.99 M0 134.29 C37.64 91.77, 75.54 47.68, 116.5 1.36 M3.41 133.08 C49.41 83.76, 94.56 34.28, 122.68 1.82 M6.05 134.09 C33.44 102.49, 59.57 72.73, 121.02 0.58 M9.8 132.39 C46.51 92.48, 81.38 54.2, 126.73 -0.68 M11.15 133.86 C36.07 104.21, 61.46 75.11, 126.42 1.15 M13.81 135.27 C43.58 102.39, 66.41 71.2, 132.81 0.96 M16.42 135.16 C60.5 82.92, 105.08 31.66, 131.69 -1.04 M21 131.93 C59.21 92.35, 95 46.58, 137.41 2.17 M20.75 134.25 C61.73 86.06, 104.37 38.01, 137.77 0.2 M25.58 135.58 C50.4 108.62, 73.36 82.19, 142.08 -1.73 M25.45 135.16 C73.58 81.44, 120.18 27.63, 142.71 0.36 M33.82 132.33 C66.06 96.58, 97.41 56.88, 146.29 -1.63 M31.49 134.77 C68.98 92.45, 107.52 47.71, 148.41 -0.63 M36.92 135.07 C63.42 100.5, 92.96 70.1, 154.83 -0.83 M36.12 133.84 C62.8 107.94, 86.44 78.13, 153.74 0.6 M42.36 133.28 C81.63 88.46, 120.89 43.44, 158.65 -1.07 M42.15 134.12 C73.26 96.92, 107.02 58.72, 159.3 -0.05 M46.82 135 C80.88 98.72, 114.56 61.18, 166.24 -0.75 M48.52 133.37 C74.42 104.22, 100.07 74.37, 164.53 -1.08 M51.53 132.62 C92.34 85.52, 133.83 39.72, 168.54 -0.96 M53.61 134.42 C90.09 92.51, 125.19 51.98, 168.49 -0.36 M59.13 132.82 C88.37 101.98, 117.92 68.4, 174.27 0.3 M57.83 134.3 C90 95.98, 122.23 59.59, 174.94 -0.03 M65.06 134.39 C97.59 97.11, 128.32 58.32, 178.85 2.08 M64.85 133.2 C92.48 101.53, 118.69 69.36, 179.12 0.54 M70.46 134.15 C104.91 91.4, 142.72 49.07, 183.73 -1.7 M68.3 133.62 C94.5 101.25, 121.19 70.91, 184.89 -0.2 M73.49 132.81 C97.74 103.71, 124.08 74.4, 189.29 -0.36 M74.93 133.37 C103.99 99.71, 133.32 65.62, 191.43 -0.86 M78.26 132.83 C106.14 102.17, 133.6 69, 198.21 -0.59 M79.31 134.69 C104.91 105.81, 130.42 75.9, 196.42 -0.13 M86.17 132.3 C128.8 85.57, 171.21 34.3, 200.35 -0.55 M85.01 133.27 C113.69 99.03, 141.22 67.45, 200.75 0.37 M88.8 134.84 C133.16 82.2, 177.86 30.89, 208.12 -0.03 M89.3 133.32 C136.98 81.09, 181.85 29.28, 207.67 -0.95 M94.62 136.2 C119.66 103.91, 146.61 75.36, 213.36 1.47 M95.69 135.39 C128.14 95.47, 161.59 57.53, 211.51 -0.48 M101.15 134.39 C139.65 87.17, 181.04 41.42, 218.7 -1.46 M99.84 133.68 C137.7 89.11, 178.33 42.52, 216.85 -0.41 M107.11 135.81 C152.66 83.57, 195.14 32.77, 222.46 1.82 M105.62 135.36 C147.44 86.91, 188.72 39.97, 223.23 0.34 M111.18 133.87 C147.4 95.84, 181.94 54.45, 229.99 -0.17 M111.56 134.38 C145.6 92.91, 180.06 51.08, 228.29 -0.81 M116.8 134.86 C161.82 86, 204.82 33.85, 234.58 0.84 M115.6 134.51 C163.55 83.15, 207.34 31.19, 232.51 0.95 M123.6 135.83 C150.05 101.64, 178.8 66.35, 240.18 -0.49 M122.21 134.42 C164.94 85.65, 209.14 37.18, 237.73 -0.34 M128.27 134.49 C157.42 100.78, 185.14 67.97, 245.5 -0.98 M127.15 134.77 C157.65 99, 187.28 63.81, 243.07 -0.12 M131.91 135.04 C158.46 105.1, 182.7 76.73, 248.24 1.18 M132.61 133.21 C161.43 100.98, 190.93 67.91, 248.99 0.01 M136.94 134.07 C172.74 91.04, 210.75 46.41, 255.77 1.05 M137.91 133.51 C183.01 81.58, 228.61 31.13, 253.71 0.08 M142.44 134.44 C167.63 108.34, 191.34 80.15, 258.01 0.87 M142.69 134.57 C178.6 93.01, 213.44 52.92, 260.01 0.87 M149.04 135.13 C174.06 100.76, 202.61 68.14, 266.79 -0.17 M147.59 133.52 C185.51 90.71, 222.67 47.6, 264.32 -1.11 M154.31 133.16 C184.1 99.61, 213.33 65.83, 268.76 0.06 M153.47 134.73 C193.19 89.16, 232.12 44.62, 269.48 -0.46 M157.61 133.4 C204.07 83.71, 246.98 32.57, 276.74 0.41 M158.02 134.95 C200.51 84.67, 241.72 37.61, 275.88 0.07 M163.48 134.52 C189.22 104.52, 211.88 79.85, 282.61 -1.59 M165.05 134.3 C207.84 83.43, 253.27 30.91, 280.19 0.74 M170.51 134.8 C215.77 81.48, 265.74 25.75, 284.65 0.07 M169.1 133.4 C208.66 90.04, 248.7 44.59, 286.49 -0.22 M174.71 134.03 C207.48 93.24, 242.92 56.12, 292.46 1.79 M174.66 134.34 C213.98 88.58, 254.48 44.71, 291.01 0.57 M178.4 135.41 C213.19 95.88, 245.94 58.38, 298.32 0.23 M180.84 133.84 C208.03 103.76, 235.4 72.43, 297.3 0.59 M185.56 135.38 C229.63 82.71, 273.26 33.52, 302.05 -1.79 M186.59 134.27 C221.63 93.64, 256.85 52.06, 302.92 0.56 M190.75 133.54 C227.49 95.24, 259.89 56.1, 306.4 -1.46 M191.33 134.69 C233.42 85.31, 275.08 36.79, 308.61 -0.53 M198.42 134.46 C236.41 90.18, 274.8 43.99, 313.92 1.91 M196.22 133.95 C225.6 98.7, 254.79 64.36, 312.99 -0.36 M199.85 133.65 C232.74 100.17, 259.52 68.76, 318.33 0.8 M200.77 133.73 C247.61 80.97, 293.01 29.75, 317.76 -0.21 M207.83 136.09 C234.68 104.12, 260 72.54, 321.41 1.31 M207.4 134.38 C230.88 107.45, 254.72 80.03, 322.36 0.13 M212.82 134.41 C242.1 101.17, 269.97 64.54, 328.37 1.04 M211.43 134.19 C248.77 91.24, 284.63 50.78, 329.21 -0.65 M215.11 135.01 C256.77 86.4, 296.77 40.04, 332.7 -1 M217.02 134.73 C259.99 82.6, 305.26 31.7, 334.31 -0.22 M223.55 132.67 C259.78 93.65, 294.86 50.67, 339.59 1.44 M223.71 134.66 C253.15 99.63, 282.86 64.53, 338.51 0.34 M228.42 132.43 C272.34 83.72, 315.98 32.82, 342.76 -0.23 M227.1 134.8 C259.35 97.69, 291.74 63.29, 344.17 -0.28 M232.79 135.46 C275.39 84.87, 314.38 36.72, 351.21 1.14 M234.06 133.17 C270.83 91.81, 308.32 49, 349.66 0.11 M237.41 132.97 C264.86 101.7, 296.55 70.25, 353.37 -1.41 M237.4 134.07 C263.27 107.88, 286.33 80.57, 355.38 0.52 M244.07 132.02 C267.75 106.75, 294.13 78.16, 361.25 1.19 M243.05 133.14 C280.5 93.17, 315.59 51.04, 359.69 0.15 M248.51 133.46 C277.22 101.24, 306.59 69.97, 365.15 0.63 M248.79 134.43 C288.07 88.13, 327.67 43.59, 365.48 0.12 M255.74 133.76 C279.72 104.37, 308.28 74.32, 370.56 1.12 M255.35 133.42 C279.06 107.77, 302.29 80.92, 370.8 0.63 M260.98 134.91 C291.59 96.6, 325.95 57.49, 377.51 1.25 M259.22 134.15 C294.82 94.37, 330.76 53.45, 376.1 -0.1 M264.97 134.27 C292.37 101.47, 322.4 66.52, 381.46 -0.13 M265.72 134.23 C298.71 95.28, 332.1 57.82, 380.89 -0.64 M270.9 134.5 C309.55 89.71, 344.92 46.71, 388.68 -2.03 M269.75 133.94 C307.88 90.86, 345.77 48.55, 386.96 0.62 M275.74 133.35 C306.39 100.32, 332.42 65.98, 393.09 0.56 M274.98 133.23 C300.76 105.68, 324.2 78.33, 393 0.58 M279.15 133.62 C314.72 96.48, 350.94 54.24, 395.69 -1.48 M280.52 134.88 C316.42 93.58, 350.63 54.29, 397.87 0.46 M286.83 132.97 C319.43 95.6, 349.92 59.71, 401.38 -1.48 M286.09 133.46 C328.15 85.96, 368.44 38.1, 403.23 0.9 M291.43 133.84 C332.05 84.94, 371.24 38.7, 406.39 0.82 M290.76 134.48 C332.25 88.96, 371.09 43.18, 408.75 -1 M295.86 133.29 C338.93 87.22, 379.72 42.08, 415.11 1.25 M298.09 133.38 C325.65 102.17, 353.69 67.64, 412.79 -0.63 M302.23 132.91 C329.89 102.5, 356.83 68.56, 419.46 0.97 M302.82 134.65 C329.89 102.8, 358.59 70.39, 419.6 -0.77 M307.22 132.66 C343.37 92.56, 381.18 51.02, 423.83 0.45 M308.09 132.86 C347.57 86, 388.58 40.44, 423.98 -0.57 M310.9 132.79 C351.28 85.62, 394.58 41.48, 428.37 1.25 M312.11 133.72 C358.65 81.27, 405.19 28.4, 430.51 -0.46 M319.5 136.39 C363.04 80.6, 411.66 28.45, 433.94 0 M318.67 133.91 C350.26 97.38, 381.18 61.85, 434.2 0.92 M321.55 135.59 C349.25 102.23, 378.99 70.8, 441.41 -1.85 M323.15 134.39 C353.07 99.52, 383.14 64.54, 439.68 -0.26 M328.05 133.67 C360.66 96.26, 397.11 56.71, 444.63 -0.04 M328.46 133.71 C367.82 87.21, 407.84 40.79, 445.93 0.1 M335.15 135.65 C368.26 92.77, 400.55 55.63, 449.69 -1.68 M333.56 133.81 C370.56 90.67, 408.1 47.33, 451.39 -0.97 M337.06 134.19 C365.34 104.36, 391.98 74.97, 455.9 0.61 M338.2 135.1 C371.18 95.97, 402.47 60.45, 456.75 -0.37 M345.43 135.46 C384.77 91.24, 422.75 46.01, 463.11 -1.39 M344.04 133.51 C380.44 90.29, 417.93 48.73, 462.03 0.03 M350.2 133.04 C385.63 92.49, 425.36 47.51, 464.59 -1.63 M349.4 133.56 C382.42 97.94, 416.05 60.48, 467.34 0.57 M354.98 133.73 C396.35 86.4, 436.42 40.84, 469.76 -1.18 M354.39 133.42 C379.35 105.55, 404.8 77.16, 471.4 -0.48 M361.95 135.5 C386.43 103.84, 411.38 78.22, 476.32 1.89 M359.66 133.99 C396.93 93.18, 433.59 50.16, 477.47 0.41 M367.18 133.33 C409.99 84.19, 449.58 36.18, 482.47 -1.34 M365.51 133.9 C393 104.26, 419.44 73.86, 481.38 -0.6 M369.59 133.07 C401.05 100.1, 429.46 64.09, 489.55 -0.03 M370.67 134.68 C408.23 92.33, 444.29 50.3, 488 -0.98 M378.23 133.33 C420.67 79.63, 468.67 30.72, 490.95 -1.7 M377.39 133.71 C401.44 105.7, 425.59 77.28, 491.98 1.27 M381.23 135.39 C416.49 95.24, 449.35 54.37, 499.52 1.64 M382.21 133.35 C417.15 93.06, 454.07 50.88, 498.89 0.68 M389.13 132.99 C421.07 94.93, 453.88 57.51, 504.37 -0.65 M387.1 134 C417.5 100.53, 446.91 65.85, 503.95 -0.64 M391.78 134.32 C424.75 94.98, 460.64 53.33, 510.31 0.07 M392.17 135.12 C427.27 94.97, 461.67 54.75, 509.18 0.08 M397.71 135.76 C428.34 95.8, 459.42 60.44, 514.7 1.59 M396.82 134.33 C432.13 92.49, 467.64 51.39, 514.14 -0.67 M402.98 135.89 C440.2 88.08, 482.03 43.6, 518.81 0.66 M402.5 134.49 C446.83 83.35, 493.92 30.59, 519.03 0.33 M406.6 133.27 C433.87 106.74, 458.39 76.36, 524.73 -1.01 M407.83 134.69 C446.29 90.3, 483.82 46.25, 525.48 0.21 M415.36 132.34 C460.26 81.21, 506.7 27.9, 530.71 0.98 M413.29 133.4 C445.48 95.8, 480.42 58.08, 529.67 -1.06 M419.24 133.33 C464.2 82.47, 504.57 35.67, 536.06 -0.28 M418.47 133.45 C456.98 87.03, 497.18 42.72, 535.03 0.47 M424.27 134.08 C465.37 83.63, 510.24 33.72, 540.51 -1.23 M424.69 133.18 C468.27 83.7, 511.64 34.21, 541.43 -0.2 M427.9 131.95 C456.32 107.22, 480.38 77.87, 545.11 -1.87 M430.22 133.4 C476.54 80.42, 522.54 27.32, 545.89 -0.02 M435.88 133.7 C463.68 98.66, 494.74 65.88, 551.55 -0.01 M434.95 134.56 C459.54 105.47, 486.01 75.43, 551.74 -0.77 M440.99 134.08 C467.53 104.9, 491.93 73.17, 555.11 -1.25 M438.96 134.49 C463.69 108.27, 486.5 79.49, 557.3 0 M447.17 133.99 C487.72 85.13, 532.82 33.2, 563.96 -1.23 M444.43 133.7 C481.81 93.1, 518.94 50.43, 561.11 -0.03 M449.7 134.6 C485.07 92.42, 520.23 54.09, 568.09 0.32 M449.65 134.79 C483.7 94.95, 518.46 56.34, 566.57 -0.79 M457.92 135.94 C494.97 89.06, 535.37 42.43, 574.67 1.42 M455.55 134.15 C491.47 95.97, 524.41 57.69, 573.16 -0.86 M460.09 134.83 C499.21 90.56, 536.8 45.43, 576.91 -0.25 M460.37 135.08 C487.94 103.14, 513.75 72.23, 577.11 -0.31 M466.75 134.7 C499.85 97, 531.53 62.64, 580.8 -0.79 M466.86 134.85 C502.87 93.31, 538.25 52.2, 581.94 1.03 M471.64 135.52 C500.12 102.51, 527.99 71.28, 589.24 0.13 M470.96 133.76 C502.34 97.77, 533.79 62.99, 588.42 0.93 M479.06 135.62 C504.36 101.76, 530 70.68, 594.22 1.32 M476.99 134.18 C510.98 94.13, 546.26 53.82, 592.56 0.07 M480.7 133.62 C522.68 88.35, 562.63 43.65, 599.54 -1.25 M482.33 133.65 C510.78 105.82, 536.96 73.81, 598.1 -0.18 M487.08 134.24 C529.48 86, 568.56 41.36, 605.67 -0.61 M488.65 133.91 C522.86 91.82, 559.08 49.66, 603.26 -0.64 M492.38 134.26 C535.1 86.12, 575.97 41.83, 609.12 -0.9 M492.52 133.98 C519.88 102.03, 545.51 70.29, 609.85 0.67 M497.85 132.29 C531.74 94.1, 565.74 54.53, 615.34 0.49 M498.66 133.2 C540.49 87.11, 580.6 40.89, 614.02 -0.34 M504.64 134.76 C529.64 104.95, 553.71 74.08, 622.07 -1.17 M502.62 134.36 C529.68 104.33, 555.48 73.63, 619.44 -0.81 M509.22 133.68 C535.07 99.8, 564.66 69.32, 624.24 -0.12 M509.94 134.66 C547.23 88.62, 586.2 43.47, 625.94 0.14 M512.23 132.62 C548.63 94.22, 585.47 51.92, 629.31 1.79 M514.85 134.84 C559.53 85.43, 603.35 34.49, 630.75 0.48 M517.87 132.51 C549.15 102.68, 577.64 72.81, 634.19 0.99 M519.48 134.25 C561.79 86.4, 603.9 41.03, 635.18 0.35 M522.74 133.55 C563.68 89.91, 603.13 46.81, 640.57 -1.98 M524.51 133.87 C560.14 92.92, 596.58 50.57, 641.76 -0.93 M531.26 133.07 C565.42 93.86, 598.24 53.74, 647.83 -0.53 M530.38 133.38 C556.36 104.81, 582.11 75.15, 647.01 0.27 M536.53 135.43 C567.83 94.45, 602.48 58.53, 652.38 -0.24 M535.99 134.28 C571.02 94.78, 605.31 52.88, 652.54 -1.12 M539.69 133.84 C575.71 91.62, 611.9 54.11, 656.59 -0.88 M541.84 132.85 C574.89 94.2, 608.77 54.18, 657.8 0.28 M546.81 132.31 C587.5 85.38, 627.13 39.85, 664.11 1.4 M546.77 133.33 C572.28 101.39, 599.27 70.11, 663.24 -0.74 M551.6 136.22 C580.37 97.94, 611.44 62.82, 668.75 -0.04 M550.48 133.63 C585.27 97.83, 616.39 60.26, 667 -0.84 M555.58 134.46 C592.39 94.3, 628.39 56.08, 673.9 -0.45 M557.45 134.69 C588.2 96.53, 619.46 61.03, 674.11 -1.08 M560.22 133.57 C594.16 93.92, 630.31 55.83, 677.37 -1.81 M560.99 133.81 C585.92 107.5, 609.93 80.24, 679.16 0.12 M565.67 132.33 C604.97 90.06, 644.08 48.75, 682.75 1.01 M567.7 134.41 C612.31 83.51, 656.52 30.36, 683.5 0.03 M571.63 135.68 C596.81 104.34, 623.58 73.14, 688.33 -1.82 M572.19 135.17 C602.68 99.54, 633.87 62.91, 689.93 0.73 M576.71 132.55 C607.05 103.55, 631.78 71.97, 694.44 -1.26 M578.28 132.98 C601.56 105.68, 625.57 78.12, 693.86 0.13 M583.35 133.77 C626.97 82.77, 670.49 33.38, 700.34 0.5 M583.65 134.13 C625.84 84.91, 667.62 35.71, 700.04 -0.98 M589.15 133.93 C615.65 100.46, 641.95 69.76, 702.92 0.66 M589.06 133.27 C636.07 81.34, 681.14 28.79, 705.06 0.93 M591.76 133.25 C638.86 79.65, 687.27 26.76, 708.89 1.91 M593.02 134.54 C635.74 82.79, 680.74 33.3, 709.33 -0.61 M600.24 135.48 C641.58 83.84, 682.93 34.73, 714.91 -1.39 M598.99 134.57 C630.75 97.81, 663.66 62.5, 715.05 1.29 M604 133.73 C629.76 103.93, 659.29 74.48, 722.32 -0.65 M604.06 133.62 C639.45 95.05, 672.93 55.16, 720.73 0.65 M608.07 132.39 C637.44 102.98, 665.1 68.33, 725.99 0.89 M610.13 134.57 C652.25 83.49, 696.1 34.02, 725.88 -0.27 M614.06 132.99 C655.42 85.87, 695.9 40.62, 729.75 -2.03 M614.61 134.03 C647.43 98.3, 678.66 63.59, 732.24 0.04 M619.5 132.06 C657.6 91.8, 692.76 54.36, 735.2 1.22 M619.62 133.37 C654.59 94.82, 686.51 57.24, 736.38 -0.56 M626.72 135.02 C663.82 89.79, 700.63 44.95, 741.13 -0.94 M624.62 133.81 C668.78 81.7, 711.18 32.42, 742.98 -0.83 M630.24 134.04 C651.95 105.37, 675.66 77.68, 747.07 1.03 M631.69 133.47 C658.49 102.83, 686.74 70.35, 746.14 2.49 M637.6 133.96 C661.14 106.07, 687.2 76.67, 744.66 7.7 M636.12 134.43 C664.38 102.29, 691.21 71.94, 746.61 7.64 M640.79 134.1 C664.55 105.68, 688.97 80.38, 746.41 15.47 M641.68 133.78 C673.17 98.3, 705.2 60.39, 746.3 13.94 M645.1 134.18 C672.12 103.6, 700.12 73.06, 745.89 19.3 M647.24 134.73 C669.63 108.34, 693.71 80.6, 746.38 19.62 M652.48 132.17 C690.02 92.29, 726.11 49.82, 745.86 26.27 M652.02 133.62 C671.77 111.14, 691.8 88.99, 745.13 26.62 M658.45 134.2 C686.16 102.43, 713.25 70.93, 746.43 33.72 M658.2 135.01 C679.34 106.25, 702.28 79.88, 745.94 31.92 M663.44 132.4 C682.76 110.67, 699.23 92.58, 747.07 36.64 M662.21 132.72 C683.73 108.68, 706.49 82.01, 745.17 38.07 M669.69 134.77 C699.69 98.2, 728.58 63.88, 746.83 45.78 M667.32 134.93 C695.95 103.17, 724.21 69.94, 746.12 44.54 M671.97 135.84 C700.42 103, 728.32 70.75, 744.46 49.76 M672.23 133.95 C693.69 109.95, 716.68 84.98, 745.01 51.01 M677.69 134.78 C693.76 118.13, 706.85 101.92, 745.11 57.73 M679.01 133.57 C700.83 109, 721.48 84.87, 745.51 57.16 M683.12 133.52 C706.11 107.47, 732.8 80.05, 745.27 61.22 M683.08 134.35 C703.32 111.34, 722.54 89.65, 745.39 61.79 M688.09 135.35 C700.3 121.52, 713.94 105.08, 747.42 68.77 M689.76 133.42 C704 116.95, 719.91 98.6, 745.12 68.59 M692.82 134.86 C712.52 114.28, 729.01 96.93, 744.23 76.06 M694.92 133.6 C704.55 123.01, 714.58 110.79, 745.77 75.45 M701.37 135.75 C715.98 115.99, 730.03 98.22, 746.71 80.03 M700.19 134.39 C713.08 119.03, 724.36 103.57, 745.03 81.8 M706.46 132.75 C718.6 121.31, 729.28 104.36, 746.9 85.51 M705.63 135.07 C716.95 121.85, 727.39 107.97, 745.71 86.39 M708.84 133.47 C726.37 118.79, 737.32 102.78, 746.78 95.08 M710.97 133.76 C723.09 119.31, 734.56 105.63, 746.45 92.41 M714.22 136.27 C723.58 124.3, 733.29 113.78, 744.96 99.73 M716.21 134.49 C723.7 124.05, 731.56 114.22, 746.23 99.22 M720.58 132.16 C728.5 123.26, 740.87 111.58, 744.87 104.93 M720.89 134.25 C726.45 128.25, 732.01 121.67, 746.34 105.72 M727.11 134.66 C731.97 127.25, 739.92 117.77, 746.89 112.81 M726.73 134.04 C730.32 130.45, 734.9 124.01, 746.38 111.66 M733.52 133.68 C735.74 128.8, 739.5 121.45, 747.07 116.77 M730.84 133.97 C735.68 130.48, 737.68 126.61, 746.75 117.42 M736.87 133.63 C740.4 130.34, 744.04 126.56, 745.96 123.41 M736.46 134.26 C739.75 131.23, 741.77 128.01, 745.5 123.27 M742.56 133.87 C743.11 132.8, 743.98 132.24, 745.08 130.21 M742.16 133.97 C743.45 132.44, 744.48 131.29, 745.72 130.12"
              stroke="#fa5252" stroke-width="0.5" fill="none"/>
        <path d="M0.35 -0.21 C277.15 1.67, 554.32 1.89, 744 -0.36 M0.08 0.05 C238.16 -2.11, 475.2 -2.59, 744.21 0.06 M745.23 1.02 C744.53 32.03, 744.95 68.23, 742.82 134.21 M743.29 0.83 C744.93 31.08, 743.38 61.97, 743.73 134.99 M744.25 133.36 C473.58 134.75, 202.02 135.13, -0.68 134.7 M743.64 133.82 C577.91 133.86, 412.56 133.83, -0.36 134.37 M1.39 133.75 C0.39 95.78, 0.1 57.83, 1.97 0.47 M0.72 134.7 C0.87 80.32, 1.05 26.13, -0.39 -0.85"
              stroke="#000000" stroke-width="1" fill="none"/>
    </g>
    <g stroke-linecap="round" transform="translate(29 371.5) rotate(0 157 67)">
        <path d="M0 0 C0 0, 0 0, 0 0 M0 0 C0 0, 0 0, 0 0 M-0.24 6.41 C1.41 4.39, 2.67 2.24, 5.59 1.09 M-0.63 6.32 C1.07 4.37, 3.32 2.9, 4.92 0.58 M-0.89 13.03 C1.66 10.67, 3.89 8.21, 10.89 -0.42 M0.65 11.62 C2.76 7.91, 6.76 4.44, 10.81 -0.7 M1.56 18.03 C4.74 15.47, 9.2 9.12, 16.67 1.75 M0.19 18.51 C6.2 11.63, 11.48 6.38, 16.48 0.63 M-0.55 25.1 C5.58 14.08, 15.23 6.62, 19.56 0.25 M0.83 24.09 C5.21 19.52, 10.34 14.02, 20.35 0.32 M-1.4 32.47 C9.51 19.29, 20.63 7.45, 24.88 -1.07 M-0.94 29.61 C6.15 22.96, 12.07 15.75, 27.24 1.08 M0.02 36.54 C10.18 22.42, 22.85 12.53, 32.46 -1.49 M-0.51 37.55 C11.37 25.61, 20.29 12.9, 32.4 -0.47 M1.64 44.5 C10.48 29.79, 17.69 22.46, 35.2 0.65 M0.08 41.71 C13.95 26.81, 26.72 10.69, 37.34 0.12 M0.18 50.74 C12.94 31.8, 31.42 15.37, 44.32 0.06 M-0.79 49.4 C9.4 38.74, 18.17 27.99, 42.19 -1.06 M-0.39 53.68 C9.23 44.02, 18.07 30.33, 47.89 0.64 M-0.65 54.11 C11.97 40.68, 24.97 27.64, 47.45 -0.26 M1.79 59.94 C12 50.15, 19.93 35.89, 51.99 -0.44 M0.87 61.49 C13.15 46.15, 27.51 30.64, 52.35 -0.18 M-1.06 69.16 C15.08 49.51, 27.59 34.18, 59.37 -0.57 M-0.31 67.97 C17.07 45.94, 33.65 27.32, 58.64 0 M-0.47 74.42 C16.64 52.61, 36.43 31.94, 62.52 0.43 M0.39 73 C15.25 54.38, 31.89 37.43, 62.89 0.53 M-1.77 78.62 C26.15 48.22, 57.13 14.94, 70.3 0.39 M-0.69 79.25 C16.34 60.81, 32.3 43.39, 68.36 1.05 M0.3 83.29 C26.96 54.55, 49.44 28.86, 73.12 -1.06 M0.15 85.23 C29.52 54.36, 56.65 21.55, 75.25 0.52 M0.3 92.82 C27.74 58.52, 56.26 26.49, 77.49 1.66 M-0.15 91.3 C20.87 67.36, 42.63 40.87, 78.52 -0.84 M-1.5 99.23 C16.34 74.88, 35.6 56.51, 83.21 0.16 M0.22 98.31 C22.21 72.37, 45.19 46.14, 84.24 0.35 M-1.18 102.59 C22.88 80.46, 40.17 56.52, 89.94 0.24 M1.03 103.79 C34.38 65.37, 67.33 26.58, 89.38 0.66 M-1.29 111.44 C32.98 68, 70.13 29.63, 94.39 -2.02 M-0.91 110.19 C31.56 72.32, 62 37.79, 96.12 -0.33 M1.63 115.56 C39.85 69.11, 76.51 28.19, 100.86 -0.09 M-0.05 115.49 C35.65 73.25, 73.52 30.39, 101.65 0 M-0.3 122.22 C33.17 84.56, 69.13 41.41, 106.44 -0.91 M-0.33 121.2 C44.17 73.28, 84.57 24.32, 106.52 -0.8 M-1.87 128.94 C24.64 100.81, 45.51 72.79, 111.61 -0.73 M0.48 129.02 C25.32 99.8, 51.08 70.73, 110.42 -0.29 M1.12 135.93 C44.4 79.62, 89.22 30.04, 116.69 -0.25 M-0.08 133.01 C35.53 91.54, 71.76 51.25, 115.84 -0.46 M7.08 132.42 C49.08 85.09, 90.35 35.08, 123.78 -0.25 M5.11 133.78 C29.91 108.49, 55.07 80.31, 121.19 0.43 M9.28 135.65 C56.46 79.71, 101.86 28.04, 126.62 -1.21 M10.73 133.28 C47.92 92.19, 84.83 50.88, 127.86 0.1 M14.26 132.85 C55.2 91.02, 91.2 47.19, 131.11 1.56 M16.52 134.59 C48.6 94.72, 83.33 55.6, 131.88 0.87 M21.7 135.43 C57.61 91.22, 96.58 48.95, 137.91 2.07 M22.38 133.94 C52.24 98.03, 82.31 64.07, 137.77 -0.34 M27.02 135.13 C50.63 106.96, 76.9 78.46, 143.56 -0.26 M26.19 134.62 C69.73 84.66, 113.95 34.62, 142.8 -0.15 M30.55 132.08 C64.52 94.69, 98.53 55.3, 147.11 -0.44 M32.07 132.93 C55.79 104.77, 80.5 74.09, 148.85 -0.68 M36.13 134.98 C81.97 84.66, 124.2 32.58, 155.25 0.16 M36.26 134.11 C64.18 102.64, 92.81 72.05, 154.68 0.28 M44.23 133.19 C83.73 85.89, 125.76 34.79, 156.93 2.01 M43.39 134.29 C73.11 98.68, 103.07 62.55, 159.78 -0.7 M46.58 132.89 C74.52 102.59, 102.54 70.89, 164.5 -0.53 M48.3 134.4 C93.6 82.03, 138.38 31.29, 164.65 -0.83 M51.31 133.17 C91.04 89.9, 129.51 45.1, 168.3 0.99 M52.35 134.14 C86.16 97.32, 119.94 58.79, 168.64 0.89 M57.54 134.18 C87.23 102.93, 110.51 72.61, 173.82 1.15 M59.26 133.91 C88.12 100.69, 115.28 67.76, 174.23 -0.4 M64.54 133.25 C101.21 92.31, 137.52 48.9, 180.31 0.88 M63.36 134.71 C105.38 84.11, 146.85 35.06, 180.91 0.5 M70.34 133 C100.34 100.19, 124.71 70.44, 185.91 -0.5 M69.49 134.15 C106.62 90.11, 145.41 46.48, 185.38 -1.22 M72.86 133.47 C102.26 105.06, 126.68 71.86, 190.26 -1.11 M75.24 134.31 C99.42 105.44, 125.36 75.74, 191.49 -0.4 M80.53 132.28 C102.99 106.91, 129.32 79.65, 195.65 -0.39 M78.78 133.74 C113.19 96.04, 144.88 57.38, 196.45 -0.02 M85.42 132.69 C118.5 96.22, 151.71 60.28, 201.61 1.02 M85.21 133.35 C126.43 86.75, 167.53 39.17, 200.69 0.77 M89.84 135.79 C121.76 94.83, 152.12 60.4, 206.1 1.39 M90.3 134.39 C117.91 101.17, 144.27 69.88, 206.17 0.58 M94.86 133.33 C121.13 105.18, 147.01 74.98, 212.04 -1.91 M94.23 135.09 C129.25 94.83, 164.28 56.13, 212.2 -0.3 M102.18 132.1 C130.72 99.46, 160.37 62.87, 216.52 -0.41 M100.63 134.89 C129.48 101.98, 157.2 68.39, 217.72 0.06 M104.02 134.35 C147.8 86.9, 189.91 38.52, 221.38 1.73 M105.67 134.62 C149.02 84.51, 191.29 34.91, 223.15 -0.84 M111.64 134.59 C136.02 105.15, 159.53 75.79, 226.36 -0.27 M111.76 133.15 C143.91 96.12, 175.03 59.64, 228.67 -0.01 M117.92 135.79 C154.51 89.53, 197.62 40.56, 231.69 0.4 M117.3 133.38 C154.28 91.47, 192.42 48.14, 234.06 -1 M122.52 133.45 C148.55 104.15, 174.4 72.47, 238.59 -1.07 M121.08 134.15 C168.87 80.49, 214.28 28.24, 238.33 0.77 M126.46 135.77 C166.92 85.03, 209.99 36.19, 243.18 -0.66 M127.98 134.17 C161.28 93.39, 195.84 52.68, 242.84 0.18 M133.29 135.7 C155.72 103.42, 182.12 75.87, 250.35 -1.16 M133.39 133.96 C177.45 85.11, 220.72 35.04, 248.38 0.65 M135.7 135.19 C175.81 93.25, 211.69 49.17, 254.26 0.64 M136.96 133.84 C169.6 98.39, 199.79 62.45, 254.84 0.75 M144.62 133.16 C187.21 83.45, 227.67 36.72, 260.98 2.18 M142.91 133.78 C179.96 91.34, 217.73 48.55, 258.97 0.23 M147.89 133.78 C179.72 96.46, 217.59 56.84, 265.55 -0.82 M147.89 133.39 C195.42 81.94, 240.56 29.6, 264.79 -0.14 M155.35 134.46 C185.3 97.07, 213.79 62.71, 270.68 1.77 M153.25 133.85 C178.88 102.39, 205.51 74.03, 269.29 -0.54 M157.48 134.09 C189.75 93.91, 226.14 55.48, 275.82 -1.36 M158.85 133.87 C188.83 101, 218.37 68.11, 274.83 -0.25 M166.53 133.05 C208.62 83.68, 251.21 33.8, 279.83 1.18 M165.42 133.56 C210.5 81.1, 255 30.07, 280.92 0.36 M171.11 133.46 C196.06 103.52, 225.97 70.01, 286.06 -0.45 M170.31 134.45 C195.95 105.62, 222.99 73.32, 286.52 -0.26 M173.37 135.18 C222.35 79.66, 266.99 30.33, 293 -1.15 M175.86 133.35 C202.21 101.99, 227.79 70.88, 291.88 1.08 M179.59 136.06 C209.99 101.63, 237.27 66.9, 295.42 -0.78 M181.15 134.37 C218.89 90.14, 257.56 46.33, 296.82 0.26 M185.3 131.94 C211.63 103.02, 242.15 68.18, 302.95 -0.01 M186.39 132.77 C218.76 94.34, 252.69 56.23, 302.58 -0.18 M189.93 132.87 C231.3 90.24, 267.75 44.23, 309.26 -0.22 M190.66 134.99 C232.92 85.34, 273.13 37.29, 308.09 -1.17 M197.91 135.19 C231.56 95.79, 264.79 54.35, 310.62 0.65 M196.26 134.48 C242.55 81.02, 286.96 28.75, 311.83 0.9 M201.32 133.67 C229.74 98.47, 262.27 64.65, 317.14 2.45 M200.52 133.74 C239.39 90.09, 275.64 48.04, 316.13 2.33 M208.34 134.39 C249.17 88.12, 289.52 39.55, 317.93 7.98 M207.45 134.95 C238.12 98.2, 270.56 61.66, 315.64 9.04 M213.15 135.08 C248.53 91.97, 286.08 51.31, 318.23 14.54 M212.83 134.16 C240.81 102.56, 267.6 72.27, 315.55 14.01 M217.87 133.55 C249.19 96.68, 283.7 60.6, 318.13 19.13 M217.32 133.52 C240.01 107.63, 263.28 82.49, 315.57 20.22 M220.98 132.5 C243.68 109.19, 267.01 84.57, 316.98 26.79 M222.1 133.88 C260.22 91.07, 297.47 48.69, 317.48 26.85 M228.01 135.73 C251.28 109.03, 272.28 82.25, 316.01 30.78 M228.69 134.86 C260.61 94.61, 295.05 56.55, 316.95 33.25 M232.58 132.17 C261.05 104.67, 286.17 74.47, 314.82 37.36 M233.24 134.63 C265.07 97.64, 296.79 60.46, 315.23 39.52 M239.11 136.08 C258.01 109.53, 279.18 86.27, 317.27 46.23 M238.4 133.99 C254.5 115, 270.56 96.5, 316.21 44.82 M243.88 135.12 C265.63 108.67, 290.03 82.05, 317.36 50.92 M243.57 134.21 C261.82 111.89, 282.67 88.87, 315.52 51.48 M249.7 134.53 C273.34 104.7, 299.25 77.49, 315.78 55.6 M248.74 135.02 C270.95 109.55, 291.29 85.23, 316.2 55.72 M255.02 133.2 C272.79 112.74, 293.41 90.94, 314.42 63.25 M254.81 134.53 C272.61 111.99, 292.72 89.53, 316.5 63.58 M260.53 135.85 C278.93 112.02, 298.78 87.28, 316.96 68.53 M259.38 135.17 C280.39 110.07, 303.32 84.6, 315.53 69.59 M266.31 133.09 C280.46 114.37, 297.83 99.4, 314.66 74.15 M265.08 133.61 C286.47 109.87, 305.68 88.13, 316.36 74.99 M270.48 133.61 C284.51 120.52, 297.76 101.92, 316.37 83.26 M269.4 134.73 C279.86 124.69, 289.16 114.08, 317.15 81.89 M274.27 132.25 C285.97 121.24, 295.29 109.27, 316.93 88.28 M274.94 133.53 C291.89 114.52, 308.47 97.9, 316.73 87.97 M280.68 134.19 C290.48 121.55, 299.16 109.98, 315.82 95.08 M281.28 135.1 C291.77 121.56, 302.52 110.51, 316.49 92.43 M287.59 134.98 C294.69 124.67, 301.97 116.94, 317.61 99.82 M287.3 134.5 C298.91 119.51, 309.61 106.89, 315.97 100.64 M290.4 132.78 C298.51 125.93, 305.37 118.5, 317.92 105.33 M290.94 134.76 C298.53 126.3, 306.57 117.17, 316.01 106.38 M295.15 132.39 C303.89 127.7, 311.3 117.9, 317.24 113.52 M297.53 132.78 C303.69 125.77, 310 119.3, 315.82 111.96 M301.13 133.41 C307.56 126.77, 312.18 119.81, 317.5 118.2 M301.65 133.29 C305.77 129.21, 312.03 124.27, 316.61 116.98 M306.63 134.14 C309.66 130.39, 313.01 127.39, 316.48 124.76 M307.52 133.1 C309.58 131.57, 311.84 129.49, 315.74 124.11 M312.7 133.77 C314.15 132.93, 314.64 131.66, 316.25 130.07 M312.6 133.9 C314.05 132.73, 315.36 130.97, 316.25 130.31"
              stroke="#fa5252" stroke-width="0.5" fill="none"/>
        <path d="M0.46 -1.04 C87.28 1.71, 175.74 2.42, 312.85 -0.04 M-0.5 0.06 C66.16 -0.94, 132.58 -0.68, 313.91 0.22 M312.68 -1.62 C316.71 35.02, 315.28 74.89, 315.19 135.92 M313.33 0.32 C313.12 29.13, 314.16 57.77, 314.05 134.14 M313.5 135.16 C238.33 134.9, 166.13 134.13, 1.1 133.37 M314.09 133.49 C234.02 135.06, 154.27 134.7, 0.22 133.7 M1.17 135.33 C-0.77 84.85, -0.72 36.62, 0.12 -0.24 M0.02 133.24 C0.93 96.94, 0.67 61.86, 0.04 -0.28"
              stroke="#000000" stroke-width="1" fill="none"/>
    </g>
    <g stroke-linecap="round" transform="translate(95 188) rotate(0 91 67)">
        <path d="M0 0 C0 0, 0 0, 0 0 M0 0 C0 0, 0 0, 0 0 M-1.05 6.65 C0.08 5.63, 1.46 3.2, 4.28 -0.22 M0.05 6.48 C1.39 4.23, 3.87 1.9, 5.12 0.28 M0.66 13.63 C4.46 6.6, 9.52 1.85, 11.97 -1.18 M0.02 11.27 C4.09 8.46, 6.3 4.08, 10.52 0.16 M-0.41 17.81 C5.23 9.83, 11.63 6.54, 14.26 -1.66 M0.66 19.04 C4.97 11.91, 9.39 8.09, 15.79 -0.26 M-1.22 25.86 C8.41 15.36, 15.62 9.36, 23.04 0.31 M0.93 24.05 C8.51 14.88, 16.98 5.09, 20.43 -0.93 M1.41 30.95 C7.99 19.21, 18.19 5.46, 26.16 -1.43 M0.75 30.31 C8.31 20.57, 15.64 11.18, 26.61 0.78 M-0.31 37.71 C9.5 25.65, 24.07 12.32, 32.05 1.24 M0.21 36.48 C8.72 27.12, 17.59 16.53, 32.73 0.69 M-0.89 40.82 C8.96 33.13, 15.79 24.2, 34.95 0.34 M-0.56 43.01 C9.51 32.43, 18.11 21.42, 36.07 0.97 M-1.37 47.06 C14.44 31.59, 29.53 16.93, 42.28 1.64 M0.6 49.42 C14.39 31.41, 30.56 12.4, 42 -0.81 M1.38 53.99 C16.71 37.01, 31.59 19.03, 47.49 -1.45 M0.45 54.14 C17.82 33.48, 35.83 13.63, 46.61 -0.61 M-0.45 59.81 C17.34 39.61, 34.94 20.15, 53.48 -1.99 M0.98 61.58 C15.97 42.84, 30.15 25.96, 53.96 -0.89 M1.08 65.97 C16.61 49.83, 30.91 30.7, 57.44 -1.68 M-0.03 67.88 C13.21 50.08, 27.56 34.82, 58.72 0.52 M1.86 71.32 C16.96 51.36, 37.11 33.59, 62.23 -0.95 M0.96 72.31 C17.75 51.87, 35.91 33.34, 63.4 -0.61 M1.84 78.2 C16.99 56.84, 36.69 35.84, 69.27 -1.07 M-0.78 78.52 C28.54 47.93, 54.38 16.29, 68.99 0.25 M-0.22 83.12 C14.97 66.93, 31.37 46.92, 73.91 1.65 M0.28 84.39 C20.29 60.62, 42.44 37.07, 74.21 -0.62 M-1.87 90.57 C31.25 55.58, 61.71 23.43, 78.28 1.85 M0.59 91.05 C17.86 70.29, 35.86 49.82, 80.13 -0.1 M1.71 99.7 C25.17 66.1, 50.66 38.26, 86.71 -1.13 M0.09 98.75 C17.04 77.13, 35.46 58.38, 85.39 -1.17 M1.9 102.39 C21.08 82.3, 38.91 58.41, 90.57 -1.26 M0.17 104.1 C33.88 62.99, 69.32 21.67, 90.9 0.16 M0.8 109.46 C23.07 85.3, 42.93 63.18, 95.66 -0.03 M-0.38 109.46 C25.31 79.65, 53.21 49.92, 95.01 -0.1 M1.92 117.18 C25.41 87.85, 50.51 58.31, 99.06 -0.53 M1.17 114.7 C36.34 73.47, 72.67 33.68, 100.2 -0.84 M-0.93 121.25 C34.44 82.31, 70.23 41.49, 104.56 -1.61 M0.21 122.27 C29.97 88.9, 58.18 55.86, 106.26 -0.83 M-0.91 127.37 C35.58 88.33, 70.62 49.47, 111.47 0.06 M-0.75 129.04 C29.34 94.83, 58.59 61.44, 110.99 0.4 M1.99 133.36 C36.48 90.97, 74.88 46.04, 117.39 0.52 M-0.05 133.57 C36.45 91.82, 74.39 49.09, 116.74 0.35 M6.37 133.31 C40.2 96.74, 73.64 57.16, 122.34 -1.26 M4.34 133.43 C34.61 100.55, 64.62 66.46, 122.34 0.83 M12.36 134.2 C55.11 80.59, 101.99 31.78, 124.92 -1.33 M11.55 133.09 C40.17 100.91, 70.8 65.68, 127.12 1.32 M14.28 135.81 C43.81 100.96, 72.74 70.92, 133.03 -0.08 M16.29 134.88 C57.54 87.89, 97.27 40.82, 133.41 0.76 M22.77 134.5 C48.43 101.31, 78.36 68.34, 136.75 -0.39 M20.78 134.1 C55.45 94.37, 90.88 53.08, 137.22 0.62 M25.6 133.18 C53.58 101.27, 85.34 66.55, 143.7 -1.79 M25.43 134.09 C70.42 83.55, 113.88 32.95, 143.45 -0.06 M31.14 135.11 C69.76 95.1, 103.14 52.12, 147.94 1.51 M32.03 133.23 C77.23 80.22, 122.9 29.23, 148.58 0.43 M37.14 133.86 C64.32 102, 90.62 73.37, 153.33 -1.6 M36.43 134.12 C66.19 102.11, 92.82 70.26, 153.81 -0.49 M42.19 135.08 C77.77 97.96, 110.66 59.79, 158.39 -1.22 M41.76 134.5 C87.82 81.64, 134.67 28.18, 157.84 -0.63 M46.54 134.47 C77.49 98.58, 108.82 61.7, 163.7 -0.55 M47.06 134.44 C77.15 99.04, 106.29 66.85, 163.94 0.03 M51.48 135.61 C80.71 106.94, 102.71 77.76, 168.78 1.97 M52.54 133.32 C94.2 87.01, 135.97 39.42, 168.74 0.43 M60.24 135.85 C90.62 95.96, 128.04 54.99, 175.42 -1.47 M58.19 134.94 C100.95 84.55, 144.89 32.86, 175.35 -0.55 M65.35 132.14 C94.43 102.25, 123.43 66.98, 180.63 1.85 M63.03 134.54 C87.4 106.51, 110.72 79.14, 180.11 1.02 M69.5 134.99 C90.81 108.19, 116.59 78.99, 181.95 1.26 M69.77 133.9 C94.84 104.71, 121.35 74.07, 183.73 1.4 M72.96 134.25 C98.53 104.78, 123.42 75.66, 185.69 8.9 M73.99 134.39 C103.95 99.51, 133.18 66.22, 183.32 8.51 M78.4 133.09 C115.15 91.13, 151.84 51.39, 182.93 12.72 M78.85 134.02 C106.13 104.92, 132.3 73.23, 184.22 14.2 M86.3 133.75 C119.61 98.02, 150.72 58.67, 185.73 19.24 M84.26 134.51 C122.37 90.88, 159.82 48.75, 184.01 20.1 M91.81 135.53 C114.25 103.92, 139.33 75.15, 183.95 26.83 M89.58 134.38 C121.54 98.93, 153.65 61.1, 183.17 26.21 M95.49 133.35 C114.12 112.6, 131.79 92.91, 183.97 32.41 M96.13 134.72 C124.1 102.27, 150.58 71.14, 183.58 32.65 M99.43 135.88 C124.46 103.43, 152.5 76.03, 184.86 37.5 M101.19 134.5 C117.79 114.34, 136.49 92.79, 184.5 39.02 M107.45 135.71 C124.77 110.95, 145.59 90.55, 182.49 46.41 M105.94 133.96 C121.91 115.54, 138.59 96.87, 184.54 43.68 M111.78 135.9 C127.76 116.18, 142.77 97.86, 184.31 48.82 M112.01 134.29 C129.63 113.45, 147.03 94.39, 184.2 49.6 M117.95 135.94 C137.09 110.01, 162.77 80.81, 182.19 57.69 M116.17 134.84 C138.92 109.12, 160.65 84.05, 184.53 57.4 M120.17 133.53 C145.98 105.09, 171.18 79.83, 183.14 63.85 M121.48 134.06 C135.83 117.36, 151.95 99.86, 183.71 63.13 M126.21 134.57 C141.02 118.41, 159.9 99.17, 185.46 70.14 M128.03 134.65 C143.35 117.41, 156.89 99.83, 184.96 69.64 M132.74 134.91 C151.22 112.05, 171.34 90.22, 182.94 73.55 M132.1 134.54 C146.52 118.69, 159.22 103.64, 184.55 75.87 M138.26 134.33 C153.6 114.74, 170.79 96.08, 183.51 79.82 M136.85 134.05 C154.24 114.69, 172.37 93.5, 184.3 80.66 M142.43 134.35 C159.89 116.93, 177.28 96.83, 182.16 85.33 M143.5 134.85 C159.07 115.69, 174.1 97.92, 184.33 87.81 M146.97 136.14 C156.72 122.09, 166.08 112.21, 183.67 91.74 M148.04 135.12 C159.95 120.8, 171.94 105.19, 183.49 93.89 M155.01 134.36 C159.71 126.8, 168.8 119.15, 182.72 100.05 M154.38 134.53 C163.6 122.46, 175.07 110.39, 183.44 99.55 M159.99 135.09 C164.75 125.95, 169.63 120.72, 184.09 104.83 M159.09 133.37 C169.22 121.86, 179.44 110.56, 184.51 104.86 M165.03 133.64 C168.44 128.68, 174.28 123.02, 185.34 112.75 M164.53 133.53 C170.59 126.09, 177.9 119.84, 184.34 111.1 M167.8 132.47 C173.34 126.53, 177.84 121.01, 185.73 116.49 M169.6 133.67 C174.8 129.84, 178.76 123.62, 184.48 117.83 M175.66 134.61 C177.55 129.87, 182.15 126.61, 184.5 124.89 M174.99 134.04 C178.32 130.49, 180.57 127.17, 183.23 124.42 M180.06 134.62 C181.9 132.6, 183.04 130.65, 183.82 130.18 M179.93 134.19 C181.51 132.24, 182.96 130.71, 184.18 129.31"
              stroke="#fa5252" stroke-width="0.5" fill="none"/>
        <path d="M0.88 1.28 C52.53 -0.95, 103.99 -1.2, 183.7 -0.35 M0.49 0.04 C66.46 -0.98, 132.38 -0.87, 182.4 0.86 M181.13 1.59 C181.32 41.61, 180.76 88.23, 183.85 132.12 M181.49 -0.45 C181.76 37.83, 182.34 76.38, 182.88 133.28 M180.6 133.24 C128.43 132.2, 73.81 135.59, 0.55 134.05 M181.98 134.11 C128.33 132.52, 75.44 132.58, -0.65 134.21 M1.24 132.03 C0.03 91.16, -0.08 48.32, 1.43 1.38 M-0.84 134.45 C-1.43 84.65, -0.75 34.61, 0.61 -0.63"
              stroke="#000000" stroke-width="1" fill="none"/>
    </g>
    <g stroke-linecap="round" transform="translate(128 207) rotate(0 64 51.5)">
        <path d="M-0.1 1.01 L127.95 1.43 L129.9 102.69 L-0.23 103.66" stroke="none" stroke-width="0"
              fill="#15aabf"/>
        <path d="M-1.61 -0.24 C28.17 0.85, 54.52 1.55, 129.83 0.89 M0.38 0.82 C32.06 -0.46, 64.45 -0.69, 127.85 0.83 M129.99 -0.16 C130.26 30.52, 126.87 61.38, 127.02 103.28 M127.12 -0.7 C127.73 33.47, 128.86 66.65, 127.1 103.24 M126.83 102.91 C95.68 103.37, 64.48 102.47, 1.78 103.48 M128.9 102.28 C92.92 101.87, 58.21 102.52, -0.83 103.98 M0.38 103.44 C1.2 78.43, -1.4 56.99, -0.85 0.18 M-0.32 103.15 C0.03 74.06, -0.56 43.91, 0.65 -0.63"
              stroke="#000000" stroke-width="1" fill="none"/>
    </g>
    <g stroke-linecap="round" transform="translate(379 183) rotate(0 180.5 72.5)">
        <path d="M0 0 C0 0, 0 0, 0 0 M0 0 C0 0, 0 0, 0 0 M0.2 6.49 C1.89 3.7, 3.55 2.79, 5.26 0.71 M-0.13 6.75 C2 4.23, 3.29 2.14, 5.25 0.44 M-0.2 11.67 C5.53 8.86, 9.74 2.49, 10.73 1.09 M0.81 12.17 C3.08 8.82, 5.19 6.59, 9.96 -0.11 M-1.79 17.96 C2.07 14.88, 5.92 11.82, 16.26 -0.88 M-0.9 19.23 C3.59 14.84, 7.57 9.77, 15.14 0.9 M1.42 22.92 C5.16 18.23, 9.16 14.74, 22.1 -0.03 M-0.16 24.48 C6.52 18.2, 10.36 12.57, 20.65 -0.88 M-0.58 30.67 C5.23 24.41, 9.75 15.86, 28.07 -0.4 M-0.08 29.85 C9.49 19.02, 19.37 6.72, 26.25 1.12 M-0.24 37.34 C8.09 26.13, 21.55 12.55, 30.99 -0.04 M-0.92 37.56 C10.13 22.99, 21.29 10.77, 31.04 0.57 M1.38 43.37 C13.71 29.21, 24.72 14.25, 35.3 1.46 M-0.86 42.41 C14.23 26.97, 27.92 10.75, 37.16 0.16 M0.51 49.88 C17.9 29.66, 33.15 11.13, 42.21 -0.97 M-0.91 47.99 C16.94 31.01, 33.05 11.24, 42.1 -0.52 M-0.87 55.52 C9.65 40.85, 23.13 30.31, 48.31 -1.69 M0.77 55.28 C18.53 32.27, 37.07 11.41, 48.48 1.04 M-0.37 60.64 C13.69 41.5, 31.02 25.01, 54.73 -0.29 M0.67 60.68 C15.48 44.07, 29.24 27.6, 52.39 0.16 M1.24 68.12 C21.11 40.92, 39.94 16.69, 57.7 -1.43 M-0.42 66.65 C22.06 41.85, 42.85 17.55, 57.2 0.91 M1.95 71.78 C23.85 43.13, 49.34 15.53, 65.72 1.3 M-0.29 73.89 C18.4 51.51, 37.71 31.62, 63.86 0.04 M0.43 80.75 C23.35 52.05, 47.2 26.58, 70.2 1.47 M-0.27 79.57 C21.34 55.28, 44.35 29.94, 68.73 0.97 M0.47 84.29 C19.5 66, 35.49 42.64, 74.54 -0.06 M0.49 85.97 C26.01 55.86, 52.53 26.23, 73.88 -0.35 M1.64 92.03 C16.41 71.95, 35.64 51.35, 80.77 1.03 M0.78 90.45 C29.72 57.21, 59.14 23.22, 78.89 0.55 M-0.27 98.71 C22.64 68.52, 49.72 42.32, 86.71 0.58 M-0.96 98.11 C31.64 61.37, 64.88 24.4, 85.21 0.59 M0.67 104.66 C31.23 69.42, 57.42 35.27, 88.54 -1.87 M0.4 104.01 C34.88 61.17, 69.43 21.71, 89.91 1.06 M-1.57 108.13 C33.92 72.4, 65.27 33.97, 93.96 0.98 M-0.21 109.34 C26.83 78.37, 53.74 48.13, 96.04 -0.43 M-0.51 114.16 C19.6 91.26, 40.46 67.16, 100.82 0.41 M-0.38 116.1 C33.32 78.38, 65.76 41.18, 100.42 0 M1.48 122.72 C38.93 79.28, 77.59 34.64, 106.21 -0.29 M-0.43 121.04 C23.22 95.8, 45.02 70.19, 105.95 0.39 M1.61 129.6 C32.09 93.07, 60.08 56.8, 113.13 -1.63 M0.26 128.38 C27.51 98.07, 54.02 68.53, 111.44 0.96 M-1.37 134.72 C25.34 105.34, 52.84 72.67, 114.9 0.91 M0.31 133.93 C34.92 94.04, 68.44 54.51, 117.26 0.71 M-1.31 138.6 C44.56 93.47, 87.1 42.62, 121.15 1.28 M-0.52 139.37 C36.17 98.89, 72.91 57.14, 122.42 -0.36 M0.49 146.39 C48.55 92.21, 95.18 37.9, 127.64 -0.75 M0.96 146.08 C40.32 100.38, 77.7 56.71, 127.69 0.99 M4.52 145.07 C46.34 100.62, 84.7 54.08, 132.77 1.25 M5.8 146.15 C54.55 88.52, 103.73 32.32, 133.22 -0.17 M10.37 145.04 C59.3 89.88, 106.41 37.85, 136.23 0.52 M11.44 145.83 C61.15 88.6, 110.67 31.85, 138.38 1.08 M16.5 145.28 C52.38 105.41, 87.67 68.65, 144.06 1.2 M16.59 146.42 C57.91 98.69, 98.79 52.55, 144.07 -0.61 M20.09 147.4 C61.65 96.3, 105.88 49.21, 147.35 -1.48 M22.38 146.25 C62.21 96.07, 106 47.01, 148.54 1.14 M26.97 144.08 C74.99 87.21, 125.52 29.74, 155.28 -1.14 M27.35 144.79 C75.55 92.61, 121.81 38.38, 153.66 0.31 M33.48 147.44 C70.43 100.02, 111.26 57.23, 157.84 -0.1 M32.63 144.93 C72.19 100.11, 111.14 55.12, 158.78 0.46 M39.02 145.86 C72.46 106.98, 103.36 67.7, 162.87 -1.25 M37.55 145.62 C84.41 90.65, 131.72 37.56, 165.03 0.65 M44.57 144.2 C77.35 102.5, 116.39 61.9, 170.74 0.09 M43.47 145.83 C80.22 100.83, 119.71 55.7, 169.13 -0.61 M49.93 143.82 C90.67 97.35, 134.3 48.07, 175.46 0.25 M48.09 146.43 C74.19 112.29, 103.03 80.03, 175.67 0.56 M52.25 146.79 C81.47 113.68, 108.65 82.58, 179.29 -0.63 M53.25 146.22 C95.85 98.75, 137.66 50.62, 181 -0.61 M59.19 143.96 C93.59 103, 127.38 65.06, 185.87 1.51 M59.28 145.78 C105.64 91.72, 152.79 37.22, 185.46 0.31 M63.58 147.12 C108.83 94.18, 151.52 45.72, 190.88 -1.21 M64.74 145.48 C114.44 89.67, 162.93 32.66, 191.23 1 M68.47 145.11 C96.64 114.08, 120.91 84.21, 195.11 -0.5 M68.81 145.35 C111.98 95.38, 156.78 43.54, 196.67 0.24 M73.82 143.93 C116.05 100.95, 153.61 56.15, 203.13 0.24 M75.08 145.09 C114.39 103.02, 151.38 58.97, 202.07 -0.12 M81.6 146.89 C115.75 100.31, 152.82 58.65, 208.37 -1.98 M79.82 145.92 C130.65 86.34, 181.78 27.73, 206 -1.22 M86.41 146.74 C117.14 107.03, 151.35 70.03, 211.81 -1.57 M85.84 146.61 C121.29 103.74, 158.9 61.61, 211.15 0.76 M92.62 145.75 C132.27 98.88, 170.99 51.37, 219.04 -0.32 M90.8 145.34 C128.95 103.65, 165.32 60.95, 218.56 0.49 M96.99 143.91 C131.94 103.89, 169.47 60.6, 222.91 0.85 M95 145.7 C120.47 115.39, 146.62 85.16, 223.52 -0.53 M101.77 146.96 C145 94.46, 189.18 43.77, 228.68 -2.12 M101.7 144.57 C138.47 102.53, 174.74 61.35, 227.84 -0.03 M105.37 146.61 C137.1 111.58, 166.71 77.46, 232.59 -0.17 M106.94 146.11 C143.36 102.69, 178.64 60.71, 233.65 0.94 M111.45 144.59 C145.53 109.59, 175.63 72.55, 238.39 1.62 M111.85 145.66 C158.51 90.41, 205.03 36.9, 239.1 0.72 M115.57 144.82 C150.87 104.87, 184.48 69.32, 243.2 0.5 M116.45 145.69 C167.43 88.95, 216.66 31.86, 243.4 -0.81 M122.28 145.51 C166.81 95.85, 210.14 44.73, 247.44 0.41 M121.98 145.75 C150.2 114.04, 178.05 81.24, 247.96 0.03 M127.77 147.32 C168.28 99.11, 206.2 57.24, 255.28 0.81 M128.7 146.39 C175.49 89.29, 225.84 33.63, 254.03 -0.68 M132.36 146.18 C158.78 117.7, 183.3 88.95, 261.29 0.86 M133.57 145.85 C163.7 113.57, 192.59 78.14, 258.5 -0.43 M138.36 145.71 C166.23 113.54, 195.57 80.84, 263.54 -0.48 M139.31 146.24 C183.09 95.12, 227.64 43.86, 264.23 -0.45 M144.01 145.6 C172.22 111.29, 198.23 77.87, 270.26 -0.35 M143.51 145.76 C182.17 98.68, 221.48 53.22, 269.85 0.35 M147.91 146.42 C176.56 116.23, 200.42 84.92, 276.92 0.2 M148.28 145.36 C194.5 95.24, 238.44 43.4, 276.08 -0.82 M155.72 145.84 C187.73 110.77, 219.83 72.83, 280.87 0.25 M154.08 146.67 C190.06 105.21, 224.67 64.07, 281.53 -0.55 M161.18 146.67 C211.87 87.5, 259.78 29.22, 286.5 -0.77 M160.01 145.97 C198.9 100.35, 238.33 55.75, 287.06 0.6 M164.84 145.05 C213.23 89.71, 256.51 37.72, 291.81 0.95 M165.65 146.11 C196.58 107.18, 228.9 70.58, 291.5 0.08 M171.1 146.5 C204.03 107.25, 238.47 67.06, 297.58 -2.19 M171.33 146.4 C210.38 99.94, 249.89 55.74, 296.07 -0.7 M174.91 146.15 C214.8 99.66, 251.4 56.84, 301.96 -1.15 M175.99 146.67 C209.27 108.44, 242.76 68.66, 302.1 -0.48 M182.82 144.77 C213.34 109.96, 246.85 71.38, 305.62 -2.06 M181.46 145.06 C214.28 104.99, 249.77 64.42, 307.41 -0.15 M187.66 144.92 C213.66 115.99, 240.51 84.08, 314.38 1.87 M186.28 146.07 C217.83 107.36, 250.55 68.94, 312.08 -0.86 M189.64 147.12 C229.79 100.95, 268.81 54.83, 316.3 -1.54 M192.02 144.44 C230.54 100.73, 270.75 53.62, 318.79 -0.06 M195 145.93 C239.86 97.19, 279.84 48.52, 324.34 0.73 M197.1 145.11 C233.65 104.49, 271.08 61.3, 322.61 0.43 M201.09 146.06 C247.02 97.02, 286.35 48.19, 329.46 -1.01 M203.06 145.14 C249.4 90.29, 296.78 35.83, 329.32 0.33 M207.03 146.55 C242.1 104.9, 275.23 65.91, 335.28 0.98 M206.43 145.68 C246.61 97.95, 287.19 51.39, 333.25 0.93 M214.84 144.86 C257.4 91.15, 304.04 35.98, 339.15 -0.02 M213.01 145.86 C261.67 86.75, 310.52 31.1, 339.53 -1.1 M216.04 144.99 C261.92 98.36, 304.44 46.28, 342.83 -1.04 M217.68 144.77 C243.68 117.16, 270.32 86.37, 343.97 0.32 M224.79 145.63 C251.5 116.73, 273.63 87, 348.92 -0.56 M222.72 145.38 C261.22 100.81, 301.73 57, 348.68 1.33 M228.5 144.25 C263.15 104.4, 298.73 66.68, 354.81 1.85 M227.64 146.47 C272.31 94.67, 315.9 45.31, 355.16 0.34 M233 145.28 C278.93 93.08, 322.01 41.81, 358.52 1.94 M233.46 144.57 C271.48 104.07, 307.85 61.78, 359.42 0.19 M241.09 144.16 C266.11 114.77, 295.18 83.46, 365.26 1.88 M238.53 145.94 C267.27 113.36, 296.49 80.87, 363.63 3.11 M245.73 143.54 C280.03 105.28, 316.47 65.57, 364.65 7.41 M244.87 144.42 C281.14 102.08, 319.5 59.75, 362.61 7.67 M248.64 145.35 C274.33 117.35, 295.12 91.19, 363.81 15.39 M249.95 145.46 C277.53 113.98, 303.81 83.43, 364.01 14.12 M252.76 147.7 C280.74 116.44, 306.1 86.45, 362.06 19.03 M254.36 146.74 C293.01 102.61, 331.06 59.14, 364.33 21.47 M260.19 145.26 C287.47 114.78, 316.34 81.94, 362.72 28.93 M260.92 146.38 C289.62 112.82, 320.25 78.8, 363.78 26.34 M266.05 145.61 C296.92 111.8, 322.99 75.63, 362.99 33.52 M265.74 145.17 C302.38 103.4, 339.1 62.31, 363.42 33.17 M270.98 146.15 C299.15 112.56, 325.8 78.23, 363.87 39.4 M271.88 145.18 C307.99 102.2, 344.72 60.55, 364.25 38.4 M275.76 146.19 C308.97 108.8, 344.26 68.46, 362.61 44.21 M275.21 145.74 C294.55 125.61, 312.65 105.1, 364.84 45.17 M282.41 147.1 C302.52 120.81, 323.48 96.59, 363.36 52.79 M282.65 145.38 C306.66 117.38, 329.63 88.92, 363.17 51.27 M284.88 144.42 C311.52 115.56, 338.98 85.26, 361.61 57.99 M286.06 145.78 C304.23 124.5, 322.47 102.82, 364.29 57.76 M294.09 143.99 C311.64 122.04, 332.52 100.65, 362.13 65.13 M292.48 145.65 C309.09 126.77, 323.92 109.12, 363.37 63.26 M296.62 146.08 C316.77 125.51, 334.55 102.32, 364.84 68.3 M297.98 146.74 C316.28 123.21, 336.31 100.22, 362.85 70.04 M303.8 145.51 C328.64 118.07, 349.15 90.91, 365.32 75.27 M302 145.72 C323.65 122.65, 342.92 100.91, 364.06 74.78 M306.36 143.78 C328.67 123.89, 348.92 98.56, 365.38 79.64 M307.09 146.15 C330.39 121.41, 350.84 95.66, 363.05 82.47 M315.53 145.18 C327.08 128.99, 336.15 117.78, 361.59 89.65 M313.27 144.41 C326.16 131.99, 337.42 117.56, 364.22 87.1 M317.67 144.93 C330.87 135.33, 340.69 123.16, 363.13 92.6 M317.86 145.64 C334.75 125.77, 352.7 106.44, 363.46 93.86 M323.42 145.31 C337.7 128.5, 352.13 111.42, 361.75 99.22 M323.75 145.66 C338.37 130.39, 352.36 114.1, 363.2 99.31 M330.3 143.77 C336.16 137.63, 348.08 125.89, 364.2 104.54 M329.23 144.93 C338.68 134.1, 348.87 123.69, 364.08 106.08 M335.84 145.04 C339.96 137.94, 349.11 132.26, 362.85 112.03 M334.3 144.48 C343.85 134.29, 353.63 124.79, 362.78 112.84 M340.2 145.32 C349.82 135.54, 356.04 125.39, 364.21 118.43 M340.5 145.84 C347.93 134.86, 356.75 126.69, 363.64 118.9 M347.31 144.32 C352.06 139.94, 355.09 135.55, 362.78 122.18 M345.19 144.99 C351.15 139.04, 358.32 131.04, 363.8 124.48 M351.5 145.45 C351.68 140.03, 358.24 136.33, 362.96 131.77 M351.4 146.28 C353.34 142.23, 357.8 136.22, 364.26 130.87 M355.17 144.43 C358.74 143.91, 359.29 141, 363.73 135.22 M356.09 144.72 C357.97 142.69, 359.89 139.68, 363.7 136.73"
              stroke="#fa5252" stroke-width="0.5" fill="none"/>
        <path d="M0.67 0.25 C140.04 2.38, 279.64 1.33, 361.11 0.69 M0.19 0.28 C135.04 -0.43, 271.63 -0.11, 360.56 -0.42 M359.03 -0.77 C359.76 34.78, 359.37 67.21, 361.57 144.76 M361.44 -0.57 C361.59 31.52, 362.02 64.54, 361.99 144.76 M360.69 144.89 C278.8 145.64, 198.81 144.94, -0.56 146.01 M361.17 145.01 C233.87 143.42, 107.77 144.47, -0.16 145.3 M1.21 145.46 C1.83 95.53, 1.83 40.22, -0.07 1.6 M0 144.44 C0.19 106.2, 0.4 66.16, -0.4 0.84"
              stroke="#000000" stroke-width="1" fill="none"/>
    </g>
    <g stroke-linecap="round" transform="translate(581 204) rotate(0 70.5 51.5)">
        <path d="M-0.76 0.87 L139.86 -0.57 L140.03 103.29 L1.07 104.98" stroke="none" stroke-width="0"
              fill="#15aabf"/>
        <path d="M1.45 -1.8 C33.05 0.84, 65.1 -1.33, 139.1 -1.98 M-0.22 -0.77 C36.83 0.04, 75.65 -1.23, 140.54 -0.04 M140.33 0.18 C142.02 30.91, 139.91 61.78, 142.89 102.4 M140.97 0.7 C141.06 34.82, 142.17 69.24, 140.56 103.58 M141.38 103.37 C94.48 103.02, 46.56 104.78, 1.73 103.24 M141.34 103.2 C112.21 102.64, 82.84 103.83, 0.76 102.35 M-1.87 101.19 C0.85 71.94, -1.7 41.11, -1.24 0.18 M-0.69 103.14 C0.14 63.02, 1.3 24.7, -0.79 0.6"
              stroke="#000000" stroke-width="1" fill="none"/>
    </g>
    <g stroke-linecap="round" transform="translate(178 26) rotate(0 272.5 49)">
        <path d="M-0.28 1.75 L545.8 -1.76 L544.33 97.15 L0.3 96.96" stroke="none" stroke-width="0"
              fill="#15aabf"/>
        <path d="M-0.34 0.2 C117.15 -1.77, 235.74 -2.03, 544.63 0.42 M0.03 0.37 C156.71 -1.66, 313.81 -2.38, 545.09 0.37 M545.32 1.24 C544.76 35.78, 543.78 69.78, 543.24 99.52 M544.27 0.7 C544.39 19.32, 544.51 39.16, 544.95 98.66 M544.91 98.6 C368.26 98.86, 192.67 97.57, -0.64 97.62 M544.77 98.21 C406.83 95.8, 268.78 96.33, -0.24 98.28 M-1.96 96.76 C-0.16 65.9, 0.23 33.14, -1.06 0.14 M0.63 97.52 C-0.3 74.81, -0.52 51.28, 0.71 -0.23"
              stroke="#000000" stroke-width="1" fill="none"/>
    </g>
    <g stroke-linecap="round" transform="translate(214 48) rotate(0 52.5 26.5)">
        <path d="M-0.06 1.86 L106.12 -0.8 L103.41 51.93 L-0.79 53.17" stroke="none" stroke-width="0"
              fill="#fab005"/>
        <path d="M-1.33 -1.98 C39.36 -1.2, 80.05 1.5, 106.15 0.37 M-0.54 0.43 C25.72 -0.82, 51.73 -0.97, 104.05 -0.2 M103.64 1.13 C103.35 14.11, 103.65 28.15, 103.26 54.19 M104.18 -0.04 C105.61 16.24, 105.1 34.45, 105.2 53.59 M104.88 53.44 C73.93 53.35, 44.01 50.88, -0.5 51.92 M104.68 53.51 C76.65 53.04, 48.52 53.39, 0.48 52.35 M-1.82 53.18 C1.73 40.36, 1.77 29.82, -0.24 1.89 M0.96 53.04 C1.1 33.98, 0.45 13.19, -0.64 -0.55"
              stroke="#000000" stroke-width="1" fill="none"/>
    </g>
    <g stroke-linecap="round" transform="translate(366 44) rotate(0 66.5 29)">
        <path d="M-0.36 -1.95 L133.2 0.88 L134.28 59.21 L-0.77 59.33" stroke="none" stroke-width="0"
              fill="#fab005"/>
        <path d="M-0.64 1.03 C37.07 -1.94, 74.55 -1.25, 133.95 -1.29 M-0.91 0.09 C29 -0.86, 57.1 -0.53, 132.88 0.94 M134.92 0.07 C134.05 23.37, 132.75 43.18, 131.72 56.9 M132.6 -0.79 C133.01 16.83, 133.62 33.72, 132.34 57.67 M132.71 58.55 C89.55 59.05, 43.26 59.16, 1.46 57 M132.19 58.55 C86.75 58.33, 40.92 59.48, 0.29 57.8 M-1.77 59.48 C0.82 41.63, -0.57 26.88, -0.12 -1.38 M0.39 58.13 C0.07 44.87, -0.07 32.53, -0.9 0.07"
              stroke="#000000" stroke-width="1" fill="none"/>
    </g>
    <g stroke-linecap="round" transform="translate(527 50) rotate(0 76.5 29)">
        <path d="M1.76 -1.44 L153.01 -1.76 L152.95 56.6 L-0.76 59.09" stroke="none" stroke-width="0"
              fill="#fab005"/>
        <path d="M1.05 0.03 C35.58 0.08, 72.3 0.56, 151.29 1.15 M0.39 0.98 C56.27 -0.13, 113.68 -1.64, 152.41 0.18 M152.91 -0.58 C151.12 20.54, 153.68 36.78, 152.4 56.94 M152.98 0.92 C152.99 17.17, 152.66 33.66, 152.91 57.95 M151.05 58.2 C121.68 59, 89.8 56.95, 1.33 56.98 M153.09 58.84 C94.59 58.98, 35.95 59.48, 0.98 58.65 M0.05 58.99 C-1.37 39.9, -1.2 16.93, -1.27 1.63 M0.02 57.16 C0.03 34.78, 0.28 12.04, 0.31 -0.13"
              stroke="#000000" stroke-width="1" fill="none"/>
    </g>
    <g stroke-linecap="round" transform="translate(396 208) rotate(0 74 49)">
        <path d="M-0.99 -1.88 L149.37 1.16 L148.66 97.56 L0.06 97.46" stroke="none" stroke-width="0"
              fill="#15aabf"/>
        <path d="M-1.6 1.44 C50.65 -1.35, 100.28 -0.72, 146.14 -0.38 M-0.12 0.89 C40.9 -0.82, 80.67 -0.33, 148.5 -0.88 M146.96 -1.34 C148.2 33.63, 147.76 67.63, 147.43 99.41 M147.99 -0.83 C149.38 29.57, 147.73 57.5, 147.58 98.03 M146.21 96.33 C115.5 99.26, 81.27 97.71, -1.15 97.83 M148.16 97.09 C110.23 97.84, 72.82 99.07, 0.62 98.44 M1.61 96.57 C-0.05 71.57, 0.86 47.64, -1.38 1.44 M-0.35 97.07 C-0.81 68.21, 0.33 39.13, 0.52 -1"
              stroke="#000000" stroke-width="1" fill="none"/>
    </g>
    <g transform="translate(219 62) rotate(0 47.5 12.5)">
        <text x="47.5" y="18" font-family="Virgil, Segoe UI Emoji" font-size="20px" fill="#000000" text-anchor="middle"
              style="white-space: pre;">Layer
        </text>
    </g>
    <g transform="translate(371 60.5) rotate(0 61.5 12.5)">
        <text x="61.5" y="18" font-family="Virgil, Segoe UI Emoji" font-size="20px" fill="#000000" text-anchor="middle"
              style="white-space: pre;">Path A
        </text>
    </g>
    <g transform="translate(532 66.5) rotate(0 71.5 12.5)">
        <text x="71.5" y="18" font-family="Virgil, Segoe UI Emoji" font-size="20px" fill="#000000" text-anchor="middle"
              style="white-space: pre;">Red Fill
        </text>
    </g>
    <g stroke-linecap="round">
        <g transform="translate(314 76) rotate(0 26.970720655471098 -3.243239755183467)">
            <path d="M-0.93 0.78 C8.35 -0.5, 45.71 -6.05, 54.87 -7.26 M0.78 0.14 C10.05 -0.98, 45.62 -4.41, 54.38 -5.86"
                  stroke="#000000" stroke-width="1" fill="none"/>
        </g>
        <g transform="translate(314 76) rotate(0 26.970720655471098 -3.243239755183467)">
            <path d="M31.46 8.03 C35.31 4, 42.18 1.1, 56.34 -4 M30.43 7.41 C36.76 2.17, 43.21 -0.31, 54.72 -4.95"
                  stroke="#000000" stroke-width="1" fill="none"/>
        </g>
        <g transform="translate(314 76) rotate(0 26.970720655471098 -3.243239755183467)">
            <path d="M29.13 -10.45 C33.57 -10.17, 40.99 -8.8, 56.34 -4 M28.1 -11.07 C34.95 -11.02, 42.06 -8.22, 54.72 -4.95"
                  stroke="#000000" stroke-width="1" fill="none"/>
        </g>
    </g>
    <g stroke-linecap="round">
        <g transform="translate(497 70) rotate(0 13.532926032035562 4.792492391006093)">
            <path d="M0.02 0.74 C4.61 2.18, 23.65 8.25, 28.49 9.5 M-1.42 0.09 C2.88 1.08, 22.31 6.13, 27.27 7.63"
                  stroke="#000000" stroke-width="1" fill="none"/>
        </g>
        <g transform="translate(497 70) rotate(0 13.532926032035562 4.792492391006093)">
            <path d="M13.08 8.17 C18.49 8.43, 22.59 9.24, 27.39 6.38 M11.97 9.31 C15.17 8.63, 18.94 8.26, 27.38 7.43"
                  stroke="#000000" stroke-width="1" fill="none"/>
        </g>
        <g transform="translate(497 70) rotate(0 13.532926032035562 4.792492391006093)">
            <path d="M15.86 -1.84 C20.29 2.22, 23.34 6.83, 27.39 6.38 M14.76 -0.7 C17.43 0.68, 20.65 2.34, 27.38 7.43"
                  stroke="#000000" stroke-width="1" fill="none"/>
        </g>
    </g>
    <g stroke-linecap="round" transform="translate(421 225) rotate(0 47 30)">
        <path d="M0.9 -0.86 L94.46 1.04 L95.19 61.85 L0.38 60.77" stroke="none" stroke-width="0" fill="#fab005"/>
        <path d="M-1.02 1.45 C24.89 0.41, 49.93 0.14, 93.4 0.78 M0.92 -0.3 C29.98 -0.51, 60.64 -1.68, 94.56 0.07 M93.6 -0.78 C91.58 19.75, 95.08 36.27, 94.92 59.95 M94.61 -0.51 C94.55 17.48, 94.59 34.01, 94.21 59.38 M92.4 58.23 C70.52 61.27, 47.54 61.17, 0.84 61.69 M94.79 60.14 C56.38 58.55, 20.34 60.27, -0.99 59.17 M1.54 58.33 C-0.43 46.48, 1.33 29.11, 0.44 1.95 M-0.74 60.76 C0.05 45.19, 0.62 31.88, 0.24 -0.01"
              stroke="#000000" stroke-width="1" fill="none"/>
    </g>
    <g stroke-linecap="round" transform="translate(598 216) rotate(0 54 42.5)">
        <path d="M0.09 0.38 L108.52 -1.7 L109.55 85.88 L-0.03 83.06" stroke="none" stroke-width="0"
              fill="#fab005"/>
        <path d="M-1.24 -0.93 C40.77 0.22, 79.09 -2.01, 108.33 1.06 M0.84 0.91 C38.31 -1.06, 78.3 -0.32, 107.15 -0.89 M106.33 -0.88 C109 24.01, 110.24 47.34, 107.65 86.85 M108.98 -0.62 C106.95 31.78, 107.2 63.82, 107.46 84.47 M107.98 85.9 C74.46 85.72, 43.69 86.46, 1.85 85.38 M108.81 84.48 C72.34 85.26, 35.58 86.24, -0.29 84.88 M-0.7 85.05 C0.27 55.47, -1.23 29.64, -1.86 -0.11 M0.31 84.56 C1.48 64.33, 0.4 44.26, -0.89 0.37"
              stroke="#000000" stroke-width="1" fill="none"/>
    </g>
    <g transform="translate(426 230) rotate(0 42 25)">
        <text x="42" y="18" font-family="Virgil, Segoe UI Emoji" font-size="20px" fill="#000000" text-anchor="middle"
              style="white-space: pre;">Blue
        </text>
        <text x="42" y="43" font-family="Virgil, Segoe UI Emoji" font-size="20px" fill="#000000" text-anchor="middle"
              style="white-space: pre;">Stroke
        </text>
    </g>
    <g transform="translate(603 221) rotate(0 49 37.5)">
        <text x="49" y="18" font-family="Virgil, Segoe UI Emoji" font-size="20px" fill="#000000" text-anchor="middle"
              style="white-space: pre;">Stroke
        </text>
        <text x="49" y="43" font-family="Virgil, Segoe UI Emoji" font-size="20px" fill="#000000" text-anchor="middle"
              style="white-space: pre;">Width
        </text>
        <text x="49" y="68" font-family="Virgil, Segoe UI Emoji" font-size="20px" fill="#000000" text-anchor="middle"
              style="white-space: pre;">1000
        </text>
    </g>
    <g stroke-linecap="round" transform="translate(138 221) rotate(0 45 32)">
        <path d="M0.74 -0.87 L91 1.22 L88.26 64.07 L-1 63.11" stroke="none" stroke-width="0" fill="#fab005"/>
        <path d="M-0.95 1.34 C21.07 -1.85, 44.39 -1.82, 91.97 0.88 M-0.49 -0.02 C33.11 -1.11, 65.89 0.25, 89.55 -0.96 M88.38 -1.41 C89.5 12.35, 88.26 27.83, 90.43 64.38 M89.31 0.71 C90 17.75, 90.43 36.93, 89.42 64.16 M88.19 62.32 C59.31 64.76, 29.51 64.07, 1.88 63.96 M89.73 63.76 C67.91 64.89, 45.64 64.46, -0.92 64.52 M0.64 65.28 C-1.74 48.3, 0.36 28.08, 0.08 0.64 M-0.13 63.84 C0.7 39.58, 0.87 14.6, -0.69 0.77"
              stroke="#000000" stroke-width="1" fill="none"/>
    </g>
    <g stroke-linecap="round">
        <g transform="translate(250.8765240974417 103) rotate(0 -30.128175884956022 42.40915820390967)">
            <path d="M-1.09 0 C-11.17 14.18, -50.08 71.69, -59.87 85.87 M0.54 -1.05 C-9.75 12.69, -50.63 69.4, -60.8 83.94"
                  stroke="#000000" stroke-width="1" fill="none"/>
        </g>
        <g transform="translate(250.8765240974417 103) rotate(0 -30.128175884956022 42.40915820390967)">
            <path d="M-52.81 55.07 C-54.82 65.35, -58.97 74.09, -60.51 83.83 M-53.62 55.57 C-55.11 64.76, -57.66 73.08, -60.85 84.44"
                  stroke="#000000" stroke-width="1" fill="none"/>
        </g>
        <g transform="translate(250.8765240974417 103) rotate(0 -30.128175884956022 42.40915820390967)">
            <path d="M-36.09 66.97 C-44.1 72.89, -54.15 77.42, -60.51 83.83 M-36.9 67.48 C-43.79 72.98, -51.62 77.54, -60.85 84.44"
                  stroke="#000000" stroke-width="1" fill="none"/>
        </g>
    </g>
    <g transform="translate(143 240.5) rotate(0 40 12.5)">
        <text x="40" y="18" font-family="Virgil, Segoe UI Emoji" font-size="20px" fill="#000000" text-anchor="middle"
              style="white-space: pre;">Path B
        </text>
    </g>
    <g stroke-linecap="round" transform="translate(194 384) rotate(0 66.41025641025641 55.5)">
        <path d="M-1.81 0 L131.72 1.79 L133.79 111.79 L1.29 112.5" stroke="none" stroke-width="0" fill="#15aabf"/>
        <path d="M1.07 -0.1 C41.99 -1.74, 82.68 -0.42, 132.57 -0.98 M0.48 0.51 C26.44 1.55, 53.64 1.17, 133.05 0.61 M134.58 -0.15 C133.26 41.54, 132.59 83.62, 131.46 109.7 M133.63 -0.26 C133.09 26.88, 132.07 55.75, 132.24 110.81 M131.13 111.75 C101.15 111.78, 67.99 111.25, -1.13 110.83 M132.72 110.99 C86.21 112.4, 37.61 112.71, -0.46 111.57 M-1.44 110.03 C-2.82 75.45, 0.99 36.37, -1.02 1.92 M-0.25 110.96 C-1.5 87.46, -1.66 65.84, -0.31 -0.94"
              stroke="#000000" stroke-width="1" fill="none"/>
    </g>
    <g stroke-linecap="round"
       transform="translate(215.30769230769226 397.87179487179486) rotate(0 42 40.50000000000003)">
        <path d="M1.4 0.13 L85.72 0.85 L83.67 82.02 L1.95 80.14" stroke="none" stroke-width="0" fill="#fab005"/>
        <path d="M0.58 1.71 C18.99 0.87, 37.49 -0.48, 85.16 0.9 M0.91 0.3 C32 0.61, 63.88 0.58, 84.3 0.85 M82.13 1.04 C85.35 26.87, 82.4 58.55, 82.15 82.95 M83.58 -0.52 C83.22 27.41, 83.48 52.13, 83.09 81 M84.79 82.29 C64.91 81.23, 42.88 82.65, 0.63 81.55 M83.07 80.53 C60.65 81.11, 37.03 80.15, 0.75 81.63 M-0.1 80.92 C-0.94 47.91, -0.39 16.04, -1.73 -0.35 M-0.81 81.51 C0.05 58.87, -0.08 36.4, -0.61 0.11"
              stroke="#000000" stroke-width="1" fill="none"/>
    </g>
    <g transform="translate(220.30769230769226 414.3717948717949) rotate(0 37 24)">
        <text x="37" y="17" font-family="Virgil, Segoe UI Emoji" font-size="18.829902491874314px" fill="#000000"
              text-anchor="middle" style="white-space: pre;">Red
        </text>
        <text x="37" y="41" font-family="Virgil, Segoe UI Emoji" font-size="18.829902491874314px" fill="#000000"
              text-anchor="middle" style="white-space: pre;">Stroke
        </text>
    </g>
    <g stroke-linecap="round">
        <g transform="translate(443.73205673661266 104) rotate(0 19.711875482968708 38.78297423747367)">
            <path d="M1 0.52 C7.43 13.24, 33.01 63.93, 39.36 76.53 M0.07 -0.26 C6.35 12.62, 32.45 64.94, 38.89 77.82"
                  stroke="#000000" stroke-width="1" fill="none"/>
        </g>
        <g transform="translate(443.73205673661266 104) rotate(0 19.711875482968708 38.78297423747367)">
            <path d="M17.98 58.69 C24.3 65.6, 31.6 72.6, 37.8 79.53 M17.98 57.4 C24.55 64.84, 33.45 72.83, 39.6 77.52"
                  stroke="#000000" stroke-width="1" fill="none"/>
        </g>
        <g transform="translate(443.73205673661266 104) rotate(0 19.711875482968708 38.78297423747367)">
            <path d="M36.34 49.53 C35.98 59.93, 36.59 70.28, 37.8 79.53 M36.35 48.24 C36.27 59.06, 38.46 70.4, 39.6 77.52"
                  stroke="#000000" stroke-width="1" fill="none"/>
        </g>
    </g>
    <g stroke-linecap="round">
        <g transform="translate(548 249.61808399358443) rotate(0 15.198195797950007 0.6954311339785306)">
            <path d="M-0.8 -0.65 C4.22 -0.48, 25.98 0.14, 31.2 0.51 M0.98 1.62 C5.86 2.01, 26.04 2.21, 30.88 1.87"
                  stroke="#000000" stroke-width="1" fill="none"/>
        </g>
        <g transform="translate(548 249.61808399358443) rotate(0 15.198195797950007 0.6954311339785306)">
            <path d="M16.08 8.81 C21.93 5.93, 28.65 4.04, 29.72 1.27 M16.97 6.66 C20.46 5.38, 25.54 4.17, 31.43 1.33"
                  stroke="#000000" stroke-width="1" fill="none"/>
        </g>
        <g transform="translate(548 249.61808399358443) rotate(0 15.198195797950007 0.6954311339785306)">
            <path d="M15.85 -1.45 C21.74 -0.35, 28.56 1.73, 29.72 1.27 M16.74 -3.6 C20.28 -1.92, 25.41 -0.16, 31.43 1.33"
                  stroke="#000000" stroke-width="1" fill="none"/>
        </g>
    </g>
    <g stroke-linecap="round">
        <g transform="translate(172.4725847412451 311.60846353004894) rotate(0 1.425833160416488 29.62098874518759)">
            <path d="M1.01 1.16 C1.47 10.68, 2.51 47.78, 2.77 57.55 M0.08 0.73 C0.45 10.31, 1.86 48.96, 2.19 58.51"
                  stroke="#000000" stroke-width="1" fill="none"/>
        </g>
        <g transform="translate(172.4725847412451 311.60846353004894) rotate(0 1.425833160416488 29.62098874518759)">
            <path d="M-6.88 32.49 C-7.21 40.2, -0.18 47.91, 2.95 57.1 M-8.86 31.8 C-5.21 41.46, -0.76 52.69, 1.59 57.57"
                  stroke="#000000" stroke-width="1" fill="none"/>
        </g>
        <g transform="translate(172.4725847412451 311.60846353004894) rotate(0 1.425833160416488 29.62098874518759)">
            <path d="M13.18 31.78 C6.81 39.87, 7.81 47.79, 2.95 57.1 M11.19 31.08 C6.82 41.12, 3.26 52.64, 1.59 57.57"
                  stroke="#000000" stroke-width="1" fill="none"/>
        </g>
    </g>
    <g stroke-linecap="round" transform="translate(33 30) rotate(0 61 45.5)">
        <path d="M0.87 0.62 L120.51 0.89 L123.13 91.02 L-0.95 91.63" stroke="none" stroke-width="0"
              fill="#15aabf"/>
        <path d="M-1.52 -0.64 C28.4 -0.71, 58.77 -1.17, 123.67 -0.17 M0.42 0.48 C42.37 -1.33, 85.77 -0.99, 121.87 -0.53 M121.6 -0.41 C122.97 32.18, 123.86 62.09, 121.3 92.58 M122.8 0.47 C122.97 23.1, 123.22 48.63, 121.56 90.62 M120.45 91.3 C97.94 92.53, 70.23 92.28, -1.93 91.16 M122.12 91.42 C76.02 91.33, 31.32 91.72, -0.17 90.39 M-0.48 89.54 C-0.82 61.4, 1.49 31.77, 0.33 -1.41 M-0.26 91.5 C-0.34 65.93, -0.52 41.45, 0.59 -0.05"
              stroke="#000000" stroke-width="1" fill="none"/>
    </g>
    <g stroke-linecap="round">
        <g transform="translate(157 75) rotate(0 10.365426075602898 -0.22114501048424984)">
            <path d="M-0.93 1.17 C2.28 1.2, 15.72 0.5, 19.31 0.34 M0.79 0.74 C4.38 0.38, 18.43 -1.76, 21.66 -1.61"
                  stroke="#000000" stroke-width="1" fill="none"/>
        </g>
        <g transform="translate(157 75) rotate(0 10.365426075602898 -0.22114501048424984)">
            <path d="M13.51 1.89 C15.59 1.81, 18.26 0.71, 22.28 -1.06 M12.43 2.44 C15.88 1.12, 18.86 0.04, 21.49 -1.79"
                  stroke="#000000" stroke-width="1" fill="none"/>
        </g>
        <g transform="translate(157 75) rotate(0 10.365426075602898 -0.22114501048424984)">
            <path d="M13.02 -4.93 C15.26 -2.93, 18.08 -1.94, 22.28 -1.06 M11.94 -4.38 C15.52 -3.46, 18.66 -2.3, 21.49 -1.79"
                  stroke="#000000" stroke-width="1" fill="none"/>
        </g>
    </g>
    <g stroke-linecap="round" transform="translate(50 43) rotate(0 43 29)">
        <path d="M0.99 0.03 L87.95 0.84 L85.58 58.53 L0.17 59.93" stroke="none" stroke-width="0" fill="#fab005"/>
        <path d="M-1.32 -0.77 C33.75 2.51, 66.09 1.64, 85.47 0.89 M-0.46 -0.42 C21.68 -0.64, 43.27 -1.45, 86.37 -0.39 M84.64 -1.1 C87.08 17.93, 84.35 31.67, 85.64 56.82 M85.66 0.09 C86.23 16.03, 85.56 31.43, 86.9 57.05 M84.57 58.59 C66.97 57.83, 44.2 56.61, 0.43 56.5 M85.7 58.05 C55.13 57.26, 23.23 57.06, 0.81 58.45 M1.14 56.81 C-0.87 39.58, -1.57 23.82, -1.4 0.18 M0.86 58.93 C1.25 35.41, 0.26 11.88, -0.25 0.45"
              stroke="#000000" stroke-width="1" fill="none"/>
    </g>
    <g transform="translate(55 59.5) rotate(0 38 12.5)">
        <text x="38" y="18" font-family="Virgil, Segoe UI Emoji" font-size="20px" fill="#000000" text-anchor="middle"
              style="white-space: pre;">Dash
        </text>
    </g>
    <g stroke-linecap="round" transform="translate(35.58974358974365 385.5) rotate(0 61.91025641025641 55.5)">
        <path d="M-1.52 0 L125.28 -1.06 L125.57 110.64 L1.5 111.68" stroke="none" stroke-width="0"
              fill="#15aabf"/>
        <path d="M-0.47 -1.62 C34.13 -1.05, 63.28 2.17, 122.45 -1.95 M0.36 0.48 C42.52 -0.43, 84.12 -0.95, 124.44 -0.79 M124.82 -0.79 C123.06 27.83, 125.06 60.97, 125.01 112.45 M124.7 0.19 C124.38 33.04, 124.5 63.95, 123.49 110.36 M122.48 110.3 C97.45 111.98, 71.14 111.09, -0.36 110.25 M123.64 110.47 C95.98 110.88, 68.07 111.44, 0.94 111.93 M0.02 111.45 C2.12 76.65, -0.19 41.93, 1.07 0.84 M0.19 111.61 C0.27 75.14, 1.53 40.15, 0.69 -0.09"
              stroke="#000000" stroke-width="1" fill="none"/>
    </g>
    <g stroke-linecap="round" transform="translate(52 402) rotate(0 44 34.5)">
        <path d="M0.68 0.76 L88.43 1.52 L89.29 70.19 L0.21 70.18" stroke="none" stroke-width="0" fill="#fab005"/>
        <path d="M1.21 0.79 C22.8 -0.84, 44.64 -1.17, 88.04 1.12 M0.81 -0.14 C32.91 1.25, 67.37 0.88, 87.13 -0.67 M88.22 1.02 C87.89 19.98, 86.81 44.8, 86.03 68.53 M88.65 -0.91 C88.05 21.1, 88.36 42.24, 87.65 68.34 M89.92 69.97 C58.68 70.23, 32.51 70.26, -0.16 68.49 M88.59 68.22 C61.38 69.14, 35.89 69.47, -0.96 69.06 M-0.56 68.95 C0.38 46.21, -1.05 26.01, 1.45 0.62 M-0.99 69.59 C-0.85 44.93, -0.3 20.88, -0.71 -0.84"
              stroke="#000000" stroke-width="1" fill="none"/>
    </g>
    <g transform="translate(57 411.5) rotate(0 39 25)">
        <text x="39" y="18" font-family="Virgil, Segoe UI Emoji" font-size="20px" fill="#000000" text-anchor="middle"
              style="white-space: pre;">Blue
        </text>
        <text x="39" y="43" font-family="Virgil, Segoe UI Emoji" font-size="20px" fill="#000000" text-anchor="middle"
              style="white-space: pre;">Fill
        </text>
    </g>
    <g stroke-linecap="round">
        <g transform="translate(160.41025641025647 432.6259820391954) rotate(0 15.330236381731709 -0.20152258439773618)">
            <path d="M-0.47 -1.04 C4.85 -0.93, 25.74 0.49, 31.13 0.59 M1.48 1.02 C6.67 0.76, 24.97 -1.33, 29.94 -1.42"
                  stroke="#000000" stroke-width="1" fill="none"/>
        </g>
        <g transform="translate(160.41025641025647 432.6259820391954) rotate(0 15.330236381731709 -0.20152258439773618)">
            <path d="M14.14 4.41 C19.18 3.97, 21.2 2.17, 30.72 -1.29 M15.51 5.69 C18.82 3.22, 23.15 2.01, 30.13 -1.1"
                  stroke="#000000" stroke-width="1" fill="none"/>
        </g>
        <g transform="translate(160.41025641025647 432.6259820391954) rotate(0 15.330236381731709 -0.20152258439773618)">
            <path d="M13.38 -6.37 C18.59 -4.28, 20.79 -3.55, 30.72 -1.29 M14.75 -5.09 C18.31 -4.84, 22.84 -3.33, 30.13 -1.1"
                  stroke="#000000" stroke-width="1" fill="none"/>
        </g>
    </g>
</svg>
